<svg width="64" height="48" viewBox="0 0 64 48" fill="none" xmlns="http://www.w3.org/2000/svg">
<g clip-path="url(#clip0_115_1419)">
<path d="M31.7577 3.75C32.725 3.75 33.6007 4.19115 34.2346 4.90425C34.8685 5.61738 35.2606 6.60259 35.2606 7.69071C35.2606 8.77876 34.8685 9.76404 34.2346 10.4772C33.6007 11.1903 32.725 11.6314 31.7577 11.6314C30.7905 11.6314 29.9148 11.1903 29.2809 10.4772C28.647 9.76404 28.2549 8.77877 28.2549 7.69071C28.2549 6.60259 28.647 5.61738 29.2809 4.90425C29.9148 4.19115 30.7905 3.75 31.7577 3.75ZM33.1624 6.11046C32.803 5.70617 32.3063 5.45601 31.7577 5.45601C31.2091 5.45601 30.7125 5.70617 30.3531 6.11046C29.9937 6.5148 29.7713 7.07354 29.7713 7.69071C29.7713 8.30784 29.9937 8.86662 30.3531 9.27096C30.7125 9.67526 31.2091 9.92541 31.7577 9.92541C32.3063 9.92541 32.803 9.67526 33.1624 9.27096C33.5218 8.86662 33.7441 8.30785 33.7441 7.69071C33.7441 7.07354 33.5218 6.51481 33.1624 6.11046Z" fill="#2D2D2D"/>
<path d="M38.3011 8.07898H25.2143C24.3614 8.07898 23.6699 8.85685 23.6699 9.81639V13.1656C23.6699 14.1252 24.3614 14.903 25.2143 14.903H38.3011C39.1541 14.903 39.8455 14.1252 39.8455 13.1656V9.81639C39.8455 8.85685 39.1541 8.07898 38.3011 8.07898Z" fill="#3E3E3E"/>
<path d="M51.6807 11.491H11.8349C9.71695 11.491 8 13.4225 8 15.8052V40.1596C8 42.5423 9.71695 44.4739 11.8349 44.4739H51.6807C53.7987 44.4739 55.5156 42.5423 55.5156 40.1596V15.8052C55.5156 13.4225 53.7987 11.491 51.6807 11.491Z" fill="#3E3E3E"/>
<path d="M51.6808 13.7657H11.835C10.8337 13.7657 10.022 14.6789 10.022 15.8054V40.1598C10.022 41.2862 10.8337 42.1994 11.835 42.1994H51.6808C52.6821 42.1994 53.4938 41.2862 53.4938 40.1598V15.8054C53.4938 14.6789 52.6821 13.7657 51.6808 13.7657Z" fill="#ECECEC"/>
<path d="M28.0931 34.3563H13.5132V35.1252H28.0931V34.3563Z" fill="#3E3E3E"/>
<path d="M28.0931 30.9772H13.5132V31.7461H28.0931V30.9772Z" fill="#3E3E3E"/>
<path d="M28.0931 27.5981H13.5132V28.3671H28.0931V27.5981Z" fill="#3E3E3E"/>
<path d="M28.0931 24.219H13.5132V24.9879H28.0931V24.219Z" fill="#3E3E3E"/>
<path d="M28.0931 20.8398H13.5132V21.6088H28.0931V20.8398Z" fill="#3E3E3E"/>
<path d="M47.5486 19.7812H37.6241C36.3385 19.7812 35.2964 20.9537 35.2964 22.3999V33.565C35.2964 35.0112 36.3385 36.1836 37.6241 36.1836H47.5486C48.8341 36.1836 49.8763 35.0112 49.8763 33.565V22.3999C49.8763 20.9537 48.8341 19.7812 47.5486 19.7812Z" fill="#707070"/>
<path fill-rule="evenodd" clip-rule="evenodd" d="M39.2322 27.849C39.1804 27.2872 39.4184 26.7888 39.7634 26.7355C40.1087 26.6823 40.4304 27.0944 40.4822 27.6561C40.534 28.2177 40.296 28.7163 39.9508 28.7695C39.6056 28.8227 39.2839 28.4106 39.2322 27.849Z" fill="#DDDDDE"/>
<path fill-rule="evenodd" clip-rule="evenodd" d="M45.9407 27.849C45.9925 27.2872 45.7545 26.7888 45.4095 26.7355C45.0641 26.6823 44.7424 27.0944 44.6907 27.6561C44.6389 28.2177 44.8769 28.7163 45.2221 28.7695C45.5672 28.8227 45.8889 28.4106 45.9407 27.849Z" fill="#DDDDDE"/>
<path fill-rule="evenodd" clip-rule="evenodd" d="M44.07 34.2542H41.103V31.2736H44.07V34.2542Z" fill="#D8D8D8"/>
<path fill-rule="evenodd" clip-rule="evenodd" d="M42.5865 23.136C41.4134 23.136 39.5581 23.8862 39.5581 27.402C39.5581 29.4321 40.1463 30.7619 40.4026 31.1297C41.3486 32.4868 43.8245 32.4872 44.7703 31.1297C45.0266 30.7619 45.6149 29.4321 45.6149 27.402C45.6149 23.8862 43.7596 23.136 42.5865 23.136Z" fill="#DDDDDE"/>
<path fill-rule="evenodd" clip-rule="evenodd" d="M43.7584 30.8899C43.6657 31.0543 43.5812 31.1835 43.5391 31.2694C43.497 31.3553 43.4042 31.3841 43.2526 31.2694C42.4986 30.7001 42.7164 30.6679 41.9203 31.2694C41.7686 31.3841 41.6758 31.3554 41.6337 31.2694C41.5915 31.1835 41.5071 31.0543 41.4144 30.8899C41.3216 30.7252 41.1951 30.4815 41.2879 30.4249C41.3807 30.3684 41.405 30.4276 41.7942 30.3678C42.23 30.3009 42.1887 30.2293 42.2998 30.1664C42.5275 30.0376 42.6454 30.0376 42.8732 30.1664C42.9843 30.2293 42.943 30.3009 43.3788 30.3678C43.7677 30.4276 43.792 30.3684 43.885 30.4249C43.9775 30.4815 43.8512 30.7252 43.7584 30.8899ZM39.6079 28.4088C39.7552 29.8709 40.1914 30.8268 40.4025 31.1298C41.3485 32.4869 43.8244 32.4872 44.7702 31.1298C44.9814 30.8268 45.4177 29.871 45.565 28.4088C45.5211 28.3995 45.5037 28.462 45.5037 28.462C45.5037 28.462 45.1549 29.2282 45.1412 29.4218C45.1279 29.6104 44.739 30.2018 44.7832 30.3765C44.7815 30.3765 44.7847 30.3765 44.7832 30.3765C44.7201 30.286 44.5037 30.1556 44.1547 29.9874C43.911 29.87 43.5288 29.5188 43.146 29.5721C42.9402 29.6007 42.8141 29.6794 42.7299 29.7154C42.6455 29.751 42.6455 29.751 42.6455 29.751L42.5864 29.7728L42.5275 29.751C42.5275 29.751 42.5275 29.751 42.4432 29.7154C42.3588 29.6794 42.2326 29.6007 42.0269 29.5721C41.6441 29.5188 41.262 29.87 41.0181 29.9874C40.6692 30.1556 40.4576 30.2858 40.3948 30.3763C40.3931 30.3762 40.3964 30.3763 40.3948 30.3763C40.439 30.2016 40.0449 29.6104 40.0317 29.4218C40.0179 29.2282 39.6692 28.462 39.6692 28.462C39.6692 28.462 39.6517 28.3996 39.6079 28.4088Z" fill="#2E2E2E"/>
<path fill-rule="evenodd" clip-rule="evenodd" d="M45.5459 24.9471C45.5242 24.7073 45.4959 24.2338 45.3234 24.0158C45.1509 23.7982 44.8671 23.5925 44.6335 23.4352C44.3998 23.2778 44.1742 23.0983 44.0905 23.0556C44.007 23.0134 43.7716 22.9309 43.4741 22.8182C43.2116 22.7189 42.7819 22.5278 42.4508 22.5278C42.1866 22.5278 41.6012 22.653 41.4158 22.7655C41.2302 22.8778 40.9817 23.0723 40.8258 23.173C40.6703 23.2739 40.0913 23.8627 39.9951 24.044C39.8987 24.2254 39.6247 25.0518 39.61 25.1728C39.5952 25.2939 39.5581 25.6205 39.5468 25.7978C39.4446 26.2274 39.5902 27.0906 39.8288 27.2332C39.877 27.2857 39.8504 27.5477 39.8987 27.7452C39.9207 27.8357 39.983 28.0382 40.04 28.2114C40.04 28.1933 40.155 26.9758 40.1639 26.953C40.2567 26.7151 40.3733 26.6284 40.4326 26.4795C40.4919 26.3301 40.5217 26.1042 40.544 26.0077C40.5663 25.9106 41.2747 25.3543 41.3712 25.3182C41.4677 25.2817 41.7819 25.3152 41.9165 25.2899C42.08 25.2593 42.3922 25.0963 42.558 25.1041C42.6747 25.11 42.8195 25.2375 43.0088 25.2375C43.1979 25.2375 43.5207 25.1467 43.6208 25.1527C43.7211 25.1588 44.1161 25.2255 44.4777 25.3523C44.8394 25.4793 45.0118 26.078 44.9952 26.2293C44.9784 26.3805 45.0432 26.7207 45.1156 26.9688C45.1648 27.1387 45.164 27.6955 45.164 27.9681C45.164 27.9746 45.1871 28.0474 45.1871 28.0474C45.2844 27.5429 45.5693 26.6693 45.6185 26.1931C45.6504 25.883 45.5743 25.2577 45.5459 24.9471Z" fill="#2E2E2E"/>
<path fill-rule="evenodd" clip-rule="evenodd" d="M48.2774 36.0513C48.0479 36.1371 47.8028 36.1838 47.5485 36.1838H37.624C37.3697 36.1838 37.1246 36.1371 36.895 36.0513C37.4678 33.2145 37.5051 33.2756 40.7715 32.7382L42.5862 32.908L44.4008 32.7382C47.6673 33.2756 47.7046 33.2145 48.2774 36.0513Z" fill="#767676"/>
<path fill-rule="evenodd" clip-rule="evenodd" d="M42.5864 32.9079L41.1031 32.353L40.4219 32.8L41.2435 34.495L42.5864 32.9079Z" fill="white"/>
<path fill-rule="evenodd" clip-rule="evenodd" d="M42.5864 32.9079L44.0701 32.3529L44.7511 32.8L43.9292 34.495L42.5864 32.9079Z" fill="white"/>
</g>
<defs>
<clipPath id="clip0_115_1419">
<rect width="64" height="48" fill="white"/>
</clipPath>
</defs>
</svg>
