<svg width="70" height="70" viewBox="0 0 70 70" fill="none" xmlns="http://www.w3.org/2000/svg">
<circle cx="35" cy="35" r="35" fill="#E6E6E6"/>
<path d="M21.9336 44.7687V31.2557C21.9336 25.3212 21.9336 22.354 23.8472 20.5104C25.7607 18.6667 28.8406 18.6667 35.0003 18.6667C41.1599 18.6667 44.2399 18.6667 46.1533 20.5104C48.0669 22.354 48.0669 25.3212 48.0669 31.2557V44.7687C48.0669 48.535 48.0669 50.4181 46.8047 51.0922C44.3601 52.3974 39.7748 48.0426 37.5973 46.7313C36.3344 45.9709 35.7029 45.5906 35.0003 45.5906C34.2976 45.5906 33.6662 45.9709 32.4033 46.7313C30.2257 48.0426 25.6404 52.3974 23.1959 51.0922C21.9336 50.4181 21.9336 48.535 21.9336 44.7687Z" stroke="#F29254" stroke-width="1.5" stroke-linecap="round" stroke-linejoin="round"/>
<path d="M30.1006 33.9111C30.1006 33.9111 31.5298 33.9111 32.9589 36.6333C32.9589 36.6333 37.4986 29.8278 41.5339 28.4667" stroke="#F29254" stroke-width="1.5" stroke-linecap="round" stroke-linejoin="round"/>
</svg>
