<svg width="288" height="188" viewBox="0 0 288 188" fill="none" xmlns="http://www.w3.org/2000/svg">
<path d="M65.0501 12.5C66.6501 12.5 67.8418 12.875 68.6251 13.625C69.4084 14.375 69.8001 15.4833 69.8001 16.95C69.8001 17.7333 69.6084 18.425 69.2251 19.025C68.8418 19.6083 68.2751 20.0667 67.5251 20.4C66.7751 20.7167 65.8501 20.875 64.7501 20.875L64.8501 19.75C65.3668 19.75 65.9584 19.825 66.6251 19.975C67.2918 20.1083 67.9334 20.3583 68.5501 20.725C69.1834 21.075 69.7001 21.575 70.1001 22.225C70.5168 22.8583 70.7251 23.675 70.7251 24.675C70.7251 25.775 70.5418 26.675 70.1751 27.375C69.8251 28.075 69.3584 28.6167 68.7751 29C68.1918 29.3833 67.5668 29.65 66.9001 29.8C66.2334 29.9333 65.5918 30 64.9751 30H58.7501C58.3168 30 57.9501 29.8583 57.6501 29.575C57.3668 29.275 57.2251 28.9083 57.2251 28.475V14.025C57.2251 13.5917 57.3668 13.2333 57.6501 12.95C57.9501 12.65 58.3168 12.5 58.7501 12.5H65.0501ZM64.6001 15.45H60.1501L60.4751 15.05V19.575L60.1751 19.35H64.6751C65.1584 19.35 65.5918 19.1917 65.9751 18.875C66.3584 18.5583 66.5501 18.1 66.5501 17.5C66.5501 16.7833 66.3668 16.2667 66.0001 15.95C65.6501 15.6167 65.1834 15.45 64.6001 15.45ZM64.8001 22.3H60.2501L60.4751 22.1V27.375L60.2251 27.125H64.9751C65.7418 27.125 66.3501 26.925 66.8001 26.525C67.2501 26.1083 67.4751 25.4917 67.4751 24.675C67.4751 23.925 67.3251 23.3833 67.0251 23.05C66.7251 22.7167 66.3668 22.5083 65.9501 22.425C65.5334 22.3417 65.1501 22.3 64.8001 22.3ZM86.3075 23.325C86.3075 24.6917 85.9992 25.9 85.3825 26.95C84.7825 27.9833 83.9659 28.7917 82.9325 29.375C81.9159 29.9583 80.7742 30.25 79.5075 30.25C78.2409 30.25 77.0909 29.9583 76.0575 29.375C75.0409 28.7917 74.2242 27.9833 73.6075 26.95C73.0075 25.9 72.7075 24.6917 72.7075 23.325C72.7075 21.9583 73.0075 20.7583 73.6075 19.725C74.2242 18.675 75.0409 17.8583 76.0575 17.275C77.0909 16.675 78.2409 16.375 79.5075 16.375C80.7742 16.375 81.9159 16.675 82.9325 17.275C83.9659 17.8583 84.7825 18.675 85.3825 19.725C85.9992 20.7583 86.3075 21.9583 86.3075 23.325ZM83.3075 23.325C83.3075 22.475 83.1325 21.7417 82.7825 21.125C82.4492 20.4917 81.9909 20 81.4075 19.65C80.8409 19.3 80.2075 19.125 79.5075 19.125C78.8075 19.125 78.1659 19.3 77.5825 19.65C77.0159 20 76.5575 20.4917 76.2075 21.125C75.8742 21.7417 75.7075 22.475 75.7075 23.325C75.7075 24.1583 75.8742 24.8917 76.2075 25.525C76.5575 26.1417 77.0159 26.625 77.5825 26.975C78.1659 27.325 78.8075 27.5 79.5075 27.5C80.2075 27.5 80.8409 27.325 81.4075 26.975C81.9909 26.625 82.4492 26.1417 82.7825 25.525C83.1325 24.8917 83.3075 24.1583 83.3075 23.325ZM101.908 23.325C101.908 24.6917 101.6 25.9 100.983 26.95C100.383 27.9833 99.5664 28.7917 98.5331 29.375C97.5164 29.9583 96.3748 30.25 95.1081 30.25C93.8414 30.25 92.6914 29.9583 91.6581 29.375C90.6414 28.7917 89.8248 27.9833 89.2081 26.95C88.6081 25.9 88.3081 24.6917 88.3081 23.325C88.3081 21.9583 88.6081 20.7583 89.2081 19.725C89.8248 18.675 90.6414 17.8583 91.6581 17.275C92.6914 16.675 93.8414 16.375 95.1081 16.375C96.3748 16.375 97.5164 16.675 98.5331 17.275C99.5664 17.8583 100.383 18.675 100.983 19.725C101.6 20.7583 101.908 21.9583 101.908 23.325ZM98.9081 23.325C98.9081 22.475 98.7331 21.7417 98.3831 21.125C98.0498 20.4917 97.5914 20 97.0081 19.65C96.4414 19.3 95.8081 19.125 95.1081 19.125C94.4081 19.125 93.7664 19.3 93.1831 19.65C92.6164 20 92.1581 20.4917 91.8081 21.125C91.4748 21.7417 91.3081 22.475 91.3081 23.325C91.3081 24.1583 91.4748 24.8917 91.8081 25.525C92.1581 26.1417 92.6164 26.625 93.1831 26.975C93.7664 27.325 94.4081 27.5 95.1081 27.5C95.8081 27.5 96.4414 27.325 97.0081 26.975C97.5914 26.625 98.0498 26.1417 98.3831 25.525C98.7331 24.8917 98.9081 24.1583 98.9081 23.325ZM106.284 30C105.85 30 105.492 29.8583 105.209 29.575C104.925 29.275 104.784 28.9083 104.784 28.475V13.025C104.784 12.5917 104.925 12.2333 105.209 11.95C105.492 11.65 105.85 11.5 106.284 11.5C106.717 11.5 107.075 11.65 107.359 11.95C107.642 12.2333 107.784 12.5917 107.784 13.025V28.475C107.784 28.9083 107.642 29.275 107.359 29.575C107.075 29.8583 106.717 30 106.284 30ZM114.234 16.625C114.617 16.625 114.95 16.7833 115.234 17.1C115.517 17.4167 115.659 17.725 115.659 18.025C115.659 18.425 115.459 18.8 115.059 19.15L107.534 26.075L107.409 22.625L113.134 17.1C113.45 16.7833 113.817 16.625 114.234 16.625ZM114.609 29.975C114.175 29.975 113.809 29.8083 113.509 29.475L108.884 24.575L111.159 22.475L115.659 27.375C115.975 27.7083 116.134 28.0833 116.134 28.5C116.134 28.9333 115.959 29.2917 115.609 29.575C115.275 29.8417 114.942 29.975 114.609 29.975ZM121.592 28.475C121.592 28.9083 121.45 29.275 121.167 29.575C120.884 29.8583 120.525 30 120.092 30C119.659 30 119.3 29.8583 119.017 29.575C118.734 29.275 118.592 28.9083 118.592 28.475V18.15C118.592 17.7167 118.734 17.3583 119.017 17.075C119.3 16.775 119.659 16.625 120.092 16.625C120.525 16.625 120.884 16.775 121.167 17.075C121.45 17.3583 121.592 17.7167 121.592 18.15V28.475ZM120.067 15C119.5 15 119.1 14.9083 118.867 14.725C118.634 14.5417 118.517 14.2167 118.517 13.75V13.275C118.517 12.7917 118.642 12.4667 118.892 12.3C119.159 12.1167 119.559 12.025 120.092 12.025C120.675 12.025 121.084 12.1167 121.317 12.3C121.55 12.4833 121.667 12.8083 121.667 13.275V13.75C121.667 14.2333 121.542 14.5667 121.292 14.75C121.042 14.9167 120.634 15 120.067 15ZM131.825 16.375C133.059 16.375 133.992 16.6333 134.625 17.15C135.275 17.6667 135.717 18.3583 135.95 19.225C136.2 20.075 136.325 21.025 136.325 22.075V28.475C136.325 28.9083 136.184 29.275 135.9 29.575C135.617 29.8583 135.259 30 134.825 30C134.392 30 134.034 29.8583 133.75 29.575C133.467 29.275 133.325 28.9083 133.325 28.475V22.075C133.325 21.525 133.25 21.0333 133.1 20.6C132.967 20.15 132.717 19.7917 132.35 19.525C131.984 19.2583 131.459 19.125 130.775 19.125C130.109 19.125 129.542 19.2583 129.075 19.525C128.625 19.7917 128.275 20.15 128.025 20.6C127.792 21.0333 127.675 21.525 127.675 22.075V28.475C127.675 28.9083 127.534 29.275 127.25 29.575C126.967 29.8583 126.609 30 126.175 30C125.742 30 125.384 29.8583 125.1 29.575C124.817 29.275 124.675 28.9083 124.675 28.475V18.15C124.675 17.7167 124.817 17.3583 125.1 17.075C125.384 16.775 125.742 16.625 126.175 16.625C126.609 16.625 126.967 16.775 127.25 17.075C127.534 17.3583 127.675 17.7167 127.675 18.15V19.225L127.3 19.15C127.45 18.8667 127.667 18.5667 127.95 18.25C128.234 17.9167 128.567 17.6083 128.95 17.325C129.334 17.0417 129.767 16.8167 130.25 16.65C130.734 16.4667 131.259 16.375 131.825 16.375ZM145.118 16.375C145.818 16.375 146.46 16.4833 147.043 16.7C147.626 16.9167 148.126 17.1917 148.543 17.525C148.976 17.8583 149.31 18.2 149.543 18.55C149.793 18.8833 149.918 19.1667 149.918 19.4L149.268 19.725V17.9C149.268 17.4667 149.41 17.1083 149.693 16.825C149.976 16.525 150.335 16.375 150.768 16.375C151.201 16.375 151.56 16.5167 151.843 16.8C152.126 17.0833 152.268 17.45 152.268 17.9V29.025C152.268 30.475 151.951 31.6333 151.318 32.5C150.701 33.3833 149.885 34.0167 148.868 34.4C147.851 34.8 146.76 35 145.593 35C145.26 35 144.826 34.9583 144.293 34.875C143.76 34.7917 143.251 34.6917 142.768 34.575C142.285 34.4583 141.918 34.35 141.668 34.25C141.168 34.0333 140.818 33.7583 140.618 33.425C140.435 33.1083 140.401 32.7667 140.518 32.4C140.668 31.9167 140.91 31.5833 141.243 31.4C141.576 31.2333 141.926 31.2167 142.293 31.35C142.46 31.4 142.735 31.5 143.118 31.65C143.501 31.8 143.918 31.9333 144.368 32.05C144.835 32.1833 145.243 32.25 145.593 32.25C146.843 32.25 147.768 32 148.368 31.5C148.968 31 149.268 30.3083 149.268 29.425V27.25L149.568 27.475C149.568 27.6917 149.451 27.9583 149.218 28.275C149.001 28.575 148.693 28.875 148.293 29.175C147.91 29.475 147.451 29.7333 146.918 29.95C146.385 30.15 145.818 30.25 145.218 30.25C144.035 30.25 142.968 29.9583 142.018 29.375C141.068 28.775 140.318 27.9583 139.768 26.925C139.218 25.875 138.943 24.675 138.943 23.325C138.943 21.9583 139.218 20.7583 139.768 19.725C140.318 18.675 141.06 17.8583 141.993 17.275C142.926 16.675 143.968 16.375 145.118 16.375ZM145.593 19.125C144.843 19.125 144.185 19.3083 143.618 19.675C143.051 20.0417 142.61 20.5417 142.293 21.175C141.976 21.8083 141.818 22.525 141.818 23.325C141.818 24.1083 141.976 24.8167 142.293 25.45C142.61 26.0833 143.051 26.5833 143.618 26.95C144.185 27.3167 144.843 27.5 145.593 27.5C146.36 27.5 147.026 27.3167 147.593 26.95C148.16 26.5833 148.601 26.0833 148.918 25.45C149.235 24.8167 149.393 24.1083 149.393 23.325C149.393 22.525 149.235 21.8083 148.918 21.175C148.601 20.5417 148.16 20.0417 147.593 19.675C147.026 19.3083 146.36 19.125 145.593 19.125ZM168.392 30.25C167.225 30.25 166.175 30.1083 165.242 29.825C164.309 29.525 163.417 29.0083 162.567 28.275C162.35 28.0917 162.184 27.8833 162.067 27.65C161.95 27.4167 161.892 27.1833 161.892 26.95C161.892 26.5667 162.025 26.2333 162.292 25.95C162.575 25.65 162.925 25.5 163.342 25.5C163.659 25.5 163.942 25.6 164.192 25.8C164.825 26.3167 165.45 26.7083 166.067 26.975C166.7 27.2417 167.475 27.375 168.392 27.375C169.009 27.375 169.575 27.2833 170.092 27.1C170.609 26.9 171.025 26.6417 171.342 26.325C171.659 25.9917 171.817 25.6167 171.817 25.2C171.817 24.7 171.667 24.275 171.367 23.925C171.067 23.575 170.609 23.2833 169.992 23.05C169.375 22.8 168.592 22.6083 167.642 22.475C166.742 22.3417 165.95 22.1417 165.267 21.875C164.584 21.5917 164.009 21.2417 163.542 20.825C163.092 20.3917 162.75 19.8917 162.517 19.325C162.284 18.7417 162.167 18.0917 162.167 17.375C162.167 16.2917 162.442 15.3667 162.992 14.6C163.559 13.8333 164.317 13.25 165.267 12.85C166.217 12.45 167.267 12.25 168.417 12.25C169.5 12.25 170.5 12.4167 171.417 12.75C172.35 13.0667 173.109 13.475 173.692 13.975C174.175 14.3583 174.417 14.8 174.417 15.3C174.417 15.6667 174.275 16 173.992 16.3C173.709 16.6 173.375 16.75 172.992 16.75C172.742 16.75 172.517 16.675 172.317 16.525C172.05 16.2917 171.692 16.075 171.242 15.875C170.792 15.6583 170.317 15.4833 169.817 15.35C169.317 15.2 168.85 15.125 168.417 15.125C167.7 15.125 167.092 15.2167 166.592 15.4C166.109 15.5833 165.742 15.8333 165.492 16.15C165.242 16.4667 165.117 16.8333 165.117 17.25C165.117 17.75 165.259 18.1667 165.542 18.5C165.842 18.8167 166.267 19.075 166.817 19.275C167.367 19.4583 168.025 19.625 168.792 19.775C169.792 19.9583 170.667 20.175 171.417 20.425C172.184 20.675 172.817 21 173.317 21.4C173.817 21.7833 174.192 22.275 174.442 22.875C174.692 23.4583 174.817 24.175 174.817 25.025C174.817 26.1083 174.517 27.0417 173.917 27.825C173.317 28.6083 172.525 29.2083 171.542 29.625C170.575 30.0417 169.525 30.25 168.392 30.25ZM187.359 16.625C187.792 16.625 188.151 16.775 188.434 17.075C188.717 17.3583 188.859 17.7167 188.859 18.15V24.5C188.859 26.2667 188.367 27.6667 187.384 28.7C186.401 29.7333 184.984 30.25 183.134 30.25C181.284 30.25 179.867 29.7333 178.884 28.7C177.917 27.6667 177.434 26.2667 177.434 24.5V18.15C177.434 17.7167 177.576 17.3583 177.859 17.075C178.142 16.775 178.501 16.625 178.934 16.625C179.367 16.625 179.726 16.775 180.009 17.075C180.292 17.3583 180.434 17.7167 180.434 18.15V24.5C180.434 25.5167 180.659 26.275 181.109 26.775C181.559 27.2583 182.234 27.5 183.134 27.5C184.051 27.5 184.734 27.2583 185.184 26.775C185.634 26.275 185.859 25.5167 185.859 24.5V18.15C185.859 17.7167 186.001 17.3583 186.284 17.075C186.567 16.775 186.926 16.625 187.359 16.625ZM198.057 16.375C199.007 16.375 199.832 16.475 200.532 16.675C201.249 16.875 201.799 17.1583 202.182 17.525C202.582 17.875 202.782 18.3 202.782 18.8C202.782 19.1333 202.682 19.45 202.482 19.75C202.282 20.0333 201.99 20.175 201.607 20.175C201.34 20.175 201.115 20.1417 200.932 20.075C200.765 19.9917 200.615 19.8917 200.482 19.775C200.349 19.6583 200.19 19.55 200.007 19.45C199.84 19.35 199.582 19.275 199.232 19.225C198.899 19.1583 198.649 19.125 198.482 19.125C197.632 19.125 196.907 19.3083 196.307 19.675C195.724 20.0417 195.274 20.5417 194.957 21.175C194.64 21.7917 194.482 22.5083 194.482 23.325C194.482 24.125 194.64 24.8417 194.957 25.475C195.29 26.0917 195.74 26.5833 196.307 26.95C196.89 27.3167 197.557 27.5 198.307 27.5C198.724 27.5 199.082 27.475 199.382 27.425C199.682 27.375 199.932 27.3 200.132 27.2C200.365 27.0667 200.574 26.925 200.757 26.775C200.94 26.625 201.215 26.55 201.582 26.55C202.015 26.55 202.349 26.6917 202.582 26.975C202.815 27.2417 202.932 27.575 202.932 27.975C202.932 28.3917 202.699 28.775 202.232 29.125C201.765 29.4583 201.149 29.7333 200.382 29.95C199.632 30.15 198.815 30.25 197.932 30.25C196.615 30.25 195.474 29.95 194.507 29.35C193.54 28.7333 192.79 27.9 192.257 26.85C191.74 25.8 191.482 24.625 191.482 23.325C191.482 21.9583 191.757 20.7583 192.307 19.725C192.874 18.675 193.649 17.8583 194.632 17.275C195.632 16.675 196.774 16.375 198.057 16.375ZM211.045 16.375C211.995 16.375 212.82 16.475 213.52 16.675C214.237 16.875 214.787 17.1583 215.17 17.525C215.57 17.875 215.77 18.3 215.77 18.8C215.77 19.1333 215.67 19.45 215.47 19.75C215.27 20.0333 214.979 20.175 214.595 20.175C214.329 20.175 214.104 20.1417 213.92 20.075C213.754 19.9917 213.604 19.8917 213.47 19.775C213.337 19.6583 213.179 19.55 212.995 19.45C212.829 19.35 212.57 19.275 212.22 19.225C211.887 19.1583 211.637 19.125 211.47 19.125C210.62 19.125 209.895 19.3083 209.295 19.675C208.712 20.0417 208.262 20.5417 207.945 21.175C207.629 21.7917 207.47 22.5083 207.47 23.325C207.47 24.125 207.629 24.8417 207.945 25.475C208.279 26.0917 208.729 26.5833 209.295 26.95C209.879 27.3167 210.545 27.5 211.295 27.5C211.712 27.5 212.07 27.475 212.37 27.425C212.67 27.375 212.92 27.3 213.12 27.2C213.354 27.0667 213.562 26.925 213.745 26.775C213.929 26.625 214.204 26.55 214.57 26.55C215.004 26.55 215.337 26.6917 215.57 26.975C215.804 27.2417 215.92 27.575 215.92 27.975C215.92 28.3917 215.687 28.775 215.22 29.125C214.754 29.4583 214.137 29.7333 213.37 29.95C212.62 30.15 211.804 30.25 210.92 30.25C209.604 30.25 208.462 29.95 207.495 29.35C206.529 28.7333 205.779 27.9 205.245 26.85C204.729 25.8 204.47 24.625 204.47 23.325C204.47 21.9583 204.745 20.7583 205.295 19.725C205.862 18.675 206.637 17.8583 207.62 17.275C208.62 16.675 209.762 16.375 211.045 16.375ZM224.383 30.25C222.967 30.25 221.733 29.9583 220.683 29.375C219.65 28.775 218.85 27.9667 218.283 26.95C217.733 25.9333 217.458 24.7833 217.458 23.5C217.458 22 217.758 20.725 218.358 19.675C218.975 18.6083 219.775 17.7917 220.758 17.225C221.742 16.6583 222.783 16.375 223.883 16.375C224.733 16.375 225.533 16.55 226.283 16.9C227.05 17.25 227.725 17.7333 228.308 18.35C228.892 18.95 229.35 19.65 229.683 20.45C230.033 21.25 230.208 22.1 230.208 23C230.192 23.4 230.033 23.725 229.733 23.975C229.433 24.225 229.083 24.35 228.683 24.35H219.133L218.383 21.85H227.558L227.008 22.35V21.675C226.975 21.1917 226.8 20.7583 226.483 20.375C226.183 19.9917 225.8 19.6917 225.333 19.475C224.883 19.2417 224.4 19.125 223.883 19.125C223.383 19.125 222.917 19.1917 222.483 19.325C222.05 19.4583 221.675 19.6833 221.358 20C221.042 20.3167 220.792 20.7417 220.608 21.275C220.425 21.8083 220.333 22.4833 220.333 23.3C220.333 24.2 220.517 24.9667 220.883 25.6C221.267 26.2167 221.75 26.6917 222.333 27.025C222.933 27.3417 223.567 27.5 224.233 27.5C224.85 27.5 225.342 27.45 225.708 27.35C226.075 27.25 226.367 27.1333 226.583 27C226.817 26.85 227.025 26.725 227.208 26.625C227.508 26.475 227.792 26.4 228.058 26.4C228.425 26.4 228.725 26.525 228.958 26.775C229.208 27.025 229.333 27.3167 229.333 27.65C229.333 28.1 229.1 28.5083 228.633 28.875C228.2 29.2417 227.592 29.5667 226.808 29.85C226.025 30.1167 225.217 30.25 224.383 30.25ZM232.055 27.925C231.888 27.6917 231.813 27.3917 231.83 27.025C231.846 26.6583 232.063 26.3417 232.48 26.075C232.746 25.9083 233.03 25.8417 233.33 25.875C233.63 25.8917 233.921 26.0417 234.205 26.325C234.688 26.8083 235.196 27.1833 235.73 27.45C236.263 27.7167 236.93 27.85 237.73 27.85C237.98 27.8333 238.255 27.8 238.555 27.75C238.855 27.6833 239.113 27.55 239.33 27.35C239.563 27.1333 239.68 26.8083 239.68 26.375C239.68 26.0083 239.555 25.7167 239.305 25.5C239.055 25.2833 238.721 25.1 238.305 24.95C237.905 24.8 237.455 24.6583 236.955 24.525C236.438 24.375 235.905 24.2083 235.355 24.025C234.821 23.8417 234.33 23.6083 233.88 23.325C233.43 23.025 233.063 22.6333 232.78 22.15C232.496 21.6667 232.355 21.0583 232.355 20.325C232.355 19.4917 232.588 18.7833 233.055 18.2C233.521 17.6167 234.121 17.1667 234.855 16.85C235.605 16.5333 236.388 16.375 237.205 16.375C237.721 16.375 238.263 16.4417 238.83 16.575C239.396 16.6917 239.938 16.8917 240.455 17.175C240.971 17.4417 241.405 17.8 241.755 18.25C241.938 18.5 242.046 18.8 242.08 19.15C242.113 19.5 241.955 19.8167 241.605 20.1C241.355 20.3 241.063 20.3917 240.73 20.375C240.396 20.3417 240.121 20.225 239.905 20.025C239.621 19.6583 239.238 19.3667 238.755 19.15C238.288 18.9333 237.746 18.825 237.13 18.825C236.88 18.825 236.605 18.8583 236.305 18.925C236.021 18.975 235.771 19.1 235.555 19.3C235.338 19.4833 235.23 19.7833 235.23 20.2C235.23 20.5833 235.355 20.8917 235.605 21.125C235.855 21.3417 236.188 21.525 236.605 21.675C237.038 21.8083 237.496 21.9417 237.98 22.075C238.48 22.2083 238.988 22.3667 239.505 22.55C240.021 22.7333 240.496 22.975 240.93 23.275C241.363 23.575 241.713 23.9667 241.98 24.45C242.246 24.9167 242.38 25.5167 242.38 26.25C242.38 27.1 242.13 27.825 241.63 28.425C241.13 29.025 240.505 29.4833 239.755 29.8C239.005 30.1 238.238 30.25 237.455 30.25C236.471 30.25 235.488 30.0833 234.505 29.75C233.521 29.4 232.705 28.7917 232.055 27.925ZM244.115 27.925C243.948 27.6917 243.873 27.3917 243.89 27.025C243.907 26.6583 244.123 26.3417 244.54 26.075C244.807 25.9083 245.09 25.8417 245.39 25.875C245.69 25.8917 245.982 26.0417 246.265 26.325C246.748 26.8083 247.257 27.1833 247.79 27.45C248.323 27.7167 248.99 27.85 249.79 27.85C250.04 27.8333 250.315 27.8 250.615 27.75C250.915 27.6833 251.173 27.55 251.39 27.35C251.623 27.1333 251.74 26.8083 251.74 26.375C251.74 26.0083 251.615 25.7167 251.365 25.5C251.115 25.2833 250.782 25.1 250.365 24.95C249.965 24.8 249.515 24.6583 249.015 24.525C248.498 24.375 247.965 24.2083 247.415 24.025C246.882 23.8417 246.39 23.6083 245.94 23.325C245.49 23.025 245.123 22.6333 244.84 22.15C244.557 21.6667 244.415 21.0583 244.415 20.325C244.415 19.4917 244.648 18.7833 245.115 18.2C245.582 17.6167 246.182 17.1667 246.915 16.85C247.665 16.5333 248.448 16.375 249.265 16.375C249.782 16.375 250.323 16.4417 250.89 16.575C251.457 16.6917 251.998 16.8917 252.515 17.175C253.032 17.4417 253.465 17.8 253.815 18.25C253.998 18.5 254.107 18.8 254.14 19.15C254.173 19.5 254.015 19.8167 253.665 20.1C253.415 20.3 253.123 20.3917 252.79 20.375C252.457 20.3417 252.182 20.225 251.965 20.025C251.682 19.6583 251.298 19.3667 250.815 19.15C250.348 18.9333 249.807 18.825 249.19 18.825C248.94 18.825 248.665 18.8583 248.365 18.925C248.082 18.975 247.832 19.1 247.615 19.3C247.398 19.4833 247.29 19.7833 247.29 20.2C247.29 20.5833 247.415 20.8917 247.665 21.125C247.915 21.3417 248.248 21.525 248.665 21.675C249.098 21.8083 249.557 21.9417 250.04 22.075C250.54 22.2083 251.048 22.3667 251.565 22.55C252.082 22.7333 252.557 22.975 252.99 23.275C253.423 23.575 253.773 23.9667 254.04 24.45C254.307 24.9167 254.44 25.5167 254.44 26.25C254.44 27.1 254.19 27.825 253.69 28.425C253.19 29.025 252.565 29.4833 251.815 29.8C251.065 30.1 250.298 30.25 249.515 30.25C248.532 30.25 247.548 30.0833 246.565 29.75C245.582 29.4 244.765 28.7917 244.115 27.925ZM263.826 11.5C264.192 11.5 264.551 11.55 264.901 11.65C265.251 11.75 265.542 11.9167 265.776 12.15C266.009 12.3667 266.126 12.6583 266.126 13.025C266.126 13.4417 266.001 13.775 265.751 14.025C265.517 14.2583 265.242 14.375 264.926 14.375C264.776 14.375 264.551 14.3417 264.251 14.275C263.951 14.1917 263.659 14.15 263.376 14.15C262.959 14.15 262.634 14.2417 262.401 14.425C262.184 14.6083 262.034 14.825 261.951 15.075C261.867 15.3083 261.826 15.5167 261.826 15.7V28.475C261.826 28.9083 261.684 29.275 261.401 29.575C261.117 29.8583 260.759 30 260.326 30C259.892 30 259.534 29.8583 259.251 29.575C258.967 29.275 258.826 28.9083 258.826 28.475V15.725C258.826 14.5417 259.242 13.5417 260.076 12.725C260.909 11.9083 262.159 11.5 263.826 11.5ZM264.101 16.875C264.501 16.875 264.834 17.0083 265.101 17.275C265.367 17.525 265.501 17.85 265.501 18.25C265.501 18.65 265.367 18.9833 265.101 19.25C264.834 19.5 264.501 19.625 264.101 19.625H257.476C257.076 19.625 256.742 19.5 256.476 19.25C256.209 18.9833 256.076 18.65 256.076 18.25C256.076 17.85 256.209 17.525 256.476 17.275C256.742 17.0083 257.076 16.875 257.476 16.875H264.101ZM277.789 16.625C278.222 16.625 278.58 16.775 278.864 17.075C279.147 17.3583 279.289 17.7167 279.289 18.15V24.5C279.289 26.2667 278.797 27.6667 277.814 28.7C276.83 29.7333 275.414 30.25 273.564 30.25C271.714 30.25 270.297 29.7333 269.314 28.7C268.347 27.6667 267.864 26.2667 267.864 24.5V18.15C267.864 17.7167 268.005 17.3583 268.289 17.075C268.572 16.775 268.93 16.625 269.364 16.625C269.797 16.625 270.155 16.775 270.439 17.075C270.722 17.3583 270.864 17.7167 270.864 18.15V24.5C270.864 25.5167 271.089 26.275 271.539 26.775C271.989 27.2583 272.664 27.5 273.564 27.5C274.48 27.5 275.164 27.2583 275.614 26.775C276.064 26.275 276.289 25.5167 276.289 24.5V18.15C276.289 17.7167 276.43 17.3583 276.714 17.075C276.997 16.775 277.355 16.625 277.789 16.625ZM285.787 28.475C285.787 28.9083 285.637 29.275 285.337 29.575C285.053 29.8583 284.695 30 284.262 30C283.845 30 283.495 29.8583 283.212 29.575C282.928 29.275 282.787 28.9083 282.787 28.475V13.025C282.787 12.5917 282.928 12.2333 283.212 11.95C283.512 11.65 283.878 11.5 284.312 11.5C284.745 11.5 285.095 11.65 285.362 11.95C285.645 12.2333 285.787 12.5917 285.787 13.025V28.475Z" fill="#AB4412"/>
<path d="M42.1673 23.0002C42.1673 12.4147 33.586 3.8335 23.0007 3.8335C12.4152 3.8335 3.83398 12.4147 3.83398 23.0002C3.83398 33.5855 12.4152 42.1668 23.0007 42.1668C33.586 42.1668 42.1673 33.5855 42.1673 23.0002Z" stroke="#319F43" stroke-width="3"/>
<path d="M15.334 24.4377C15.334 24.4377 18.4007 26.1866 19.934 28.7502C19.934 28.7502 24.534 18.6877 30.6673 15.3335" stroke="#319F43" stroke-width="3" stroke-linecap="round" stroke-linejoin="round"/>
<g clip-path="url(#clip0_2620_855)">
<path d="M221.138 106.736C220.943 106.895 220.748 107.048 220.548 107.198H171.233C170.865 107.048 170.5 106.894 170.136 106.736C164.929 104.486 160.084 101.49 155.753 97.8431C152.877 95.4237 150.232 92.9258 148.314 90.5848C145.638 87.3181 143.174 83.7582 142.028 79.7019C140.884 75.6456 141.226 70.996 143.781 67.6323C144.572 66.5976 145.545 65.7131 146.652 65.0213C146.836 64.9058 147.022 64.795 147.212 64.6911C150.276 62.9828 154.142 62.5672 157.592 63.4514C162.532 64.7188 166.637 68.258 169.566 72.4089C172.495 76.5575 174.397 81.3226 176.27 86.0345C178.172 77.6241 183.93 70.091 191.708 66.261C199.484 62.431 209.145 62.4772 216.756 66.6258C219.151 67.939 221.314 69.6311 223.161 71.6355C223.344 71.8318 223.523 72.0326 223.7 72.2358C227.412 76.5044 229.735 81.9713 229.925 87.609C230.169 94.8719 226.78 102.167 221.138 106.736Z" fill="#FDDAC4"/>
<path d="M173.206 107.198H172.508C172.499 107.043 172.487 106.891 172.473 106.736C172.23 103.716 171.719 100.723 170.948 97.7922C169.18 91.1004 166.159 84.799 162.043 79.217C157.939 73.6171 152.765 68.8743 146.816 65.2589C146.773 65.2342 146.736 65.1999 146.707 65.1587C146.679 65.1175 146.661 65.0705 146.654 65.0212C146.642 64.9567 146.65 64.8903 146.675 64.8298C146.7 64.7693 146.742 64.7172 146.796 64.6794C146.849 64.6417 146.913 64.6199 146.979 64.6166C147.045 64.6134 147.11 64.6288 147.167 64.661C147.183 64.6702 147.199 64.6802 147.214 64.691C150.584 66.7311 153.713 69.141 156.54 71.8755C161.599 76.7758 165.677 82.5827 168.561 88.9894C171.105 94.6005 172.664 100.603 173.169 106.736C173.183 106.891 173.194 107.045 173.206 107.198Z" fill="white"/>
<path d="M223.701 72.2355C223.696 72.2381 223.691 72.2397 223.685 72.2402C223.176 72.3325 222.664 72.4295 222.158 72.5334C217.998 73.3818 213.925 74.6098 209.993 76.2018C206.07 77.7915 202.298 79.7229 198.718 81.9734C195.134 84.2227 191.755 86.778 188.618 89.6103C185.481 92.4386 182.603 95.5382 180.019 98.8726C178.087 101.371 176.331 103.998 174.763 106.736C174.674 106.888 174.588 107.043 174.502 107.198H173.705C173.789 107.043 173.875 106.888 173.963 106.736C175.861 103.381 178.036 100.19 180.467 97.1942C183.156 93.879 186.136 90.8079 189.373 88.0174C192.589 85.2425 196.041 82.7492 199.69 80.5651C203.354 78.3722 207.206 76.5057 211.202 74.9874C215.079 73.5154 219.082 72.3935 223.162 71.6353C223.276 71.6145 223.387 71.5937 223.501 71.573C223.936 71.4945 224.122 72.1455 223.701 72.2355Z" fill="white"/>
<path d="M96.9528 108.57C98.1929 106.245 98.3976 103.217 96.8556 101.078C95.9377 99.8042 94.5045 98.9682 93.0006 98.4967C91.4968 98.0251 89.9104 97.8866 88.3376 97.772C86.7807 97.6585 85.1961 97.5677 83.6752 97.9174C82.1544 98.2671 80.6812 99.1215 79.9403 100.486C78.6888 102.791 79.8289 105.747 78.9096 108.202C78.066 110.455 75.665 111.772 73.3048 112.303C70.9446 112.835 68.4811 112.778 66.1198 113.305C63.7584 113.831 61.3534 115.136 60.4948 117.383C59.874 119.008 60.1824 120.88 61.0005 122.416C61.8186 123.952 63.0999 125.196 64.4599 126.29C66.4888 127.922 68.8625 129.32 71.4694 129.461C74.2163 129.61 76.9021 128.311 78.8792 126.412C80.8562 124.512 82.2022 122.057 83.2776 119.542C83.9598 117.947 84.6043 116.23 85.9714 115.153C86.976 114.362 88.2537 114.015 89.4928 113.687L90.8959 113.315C92.1674 112.985 93.3573 112.4 94.3925 111.596C95.4277 110.792 96.2863 109.786 96.9154 108.64C96.9279 108.617 96.9404 108.593 96.9528 108.57Z" fill="#AB4412"/>
<path d="M85.8874 185.049H83.0376L81.6816 174.132H85.8881L85.8874 185.049Z" fill="#FFB8B8"/>
<path d="M81.0017 184.241H86.498V187.678H77.541C77.541 187.226 77.6305 186.779 77.8044 186.362C77.9784 185.945 78.2333 185.566 78.5546 185.247C78.876 184.928 79.2575 184.675 79.6773 184.502C80.0972 184.33 80.5472 184.241 81.0017 184.241Z" fill="#AB4412"/>
<path d="M109.6 185.049H106.75L105.395 174.132H109.601L109.6 185.049Z" fill="#FFB8B8"/>
<path d="M104.715 184.241H110.211V187.678H101.254C101.254 187.226 101.343 186.779 101.517 186.362C101.691 185.945 101.946 185.566 102.268 185.247C102.589 184.928 102.97 184.675 103.39 184.502C103.81 184.33 104.26 184.241 104.715 184.241Z" fill="#AB4412"/>
<path d="M91.3657 176.372C91.326 176.372 91.2863 176.37 91.2467 176.366L79.652 175.132C79.498 175.116 79.3493 175.067 79.2158 174.989C79.0822 174.911 78.9669 174.806 78.8776 174.68C78.7882 174.555 78.7268 174.412 78.6975 174.261C78.6681 174.11 78.6715 173.954 78.7074 173.804L88.9736 135.026C89.0217 134.829 89.1244 134.649 89.27 134.506C89.4156 134.364 89.5984 134.265 89.7978 134.22L99.3214 131.583C99.5124 131.542 99.7111 131.552 99.897 131.612C100.083 131.672 100.249 131.78 100.379 131.926C106.502 138.785 111.116 153.99 114.612 173.154C114.638 173.299 114.635 173.447 114.601 173.591C114.568 173.734 114.506 173.869 114.419 173.988C114.331 174.106 114.22 174.206 114.093 174.28C113.965 174.355 113.824 174.403 113.677 174.422L104.177 175.626C103.907 175.661 103.634 175.595 103.412 175.44C103.189 175.285 103.033 175.053 102.975 174.789L98.3524 154.323C98.3099 154.135 98.2035 153.967 98.0511 153.847C97.8987 153.727 97.7094 153.663 97.515 153.665C97.3207 153.668 97.133 153.736 96.9834 153.859C96.8338 153.983 96.7313 154.153 96.6932 154.342L92.4321 175.501C92.3838 175.747 92.251 175.968 92.0564 176.127C91.8619 176.286 91.6177 176.373 91.3657 176.372Z" fill="#AB4412"/>
<path d="M89.6021 113.895C92.7555 113.895 95.3117 111.357 95.3117 108.225C95.3117 105.093 92.7555 102.555 89.6021 102.555C86.4488 102.555 83.8926 105.093 83.8926 108.225C83.8926 111.357 86.4488 113.895 89.6021 113.895Z" fill="#FFB8B8"/>
<path d="M89.4425 135.135C89.2025 135.135 88.9692 135.056 88.7791 134.911C88.589 134.765 88.4527 134.561 88.3914 134.331L84.9566 121.516C84.7087 120.595 84.8113 119.615 85.2449 118.765C85.6786 117.915 86.4127 117.253 87.3068 116.907C90.0718 115.835 92.706 115.437 95.1363 115.724C97.2963 115.98 99.961 128.68 99.7847 128.951L100.637 131.49C100.685 131.634 100.703 131.787 100.688 131.938C100.673 132.089 100.626 132.235 100.551 132.367C100.476 132.499 100.373 132.614 100.25 132.704C100.127 132.794 99.9862 132.858 99.8369 132.89L89.6794 135.11C89.6016 135.127 89.5222 135.135 89.4425 135.135Z" fill="#CCCCCC"/>
<path d="M92.521 148.241C92.5699 147.989 92.5626 147.729 92.4995 147.48C92.4364 147.231 92.319 146.998 92.1557 146.799C91.9924 146.6 91.7871 146.439 91.5543 146.327C91.3215 146.215 91.0668 146.155 90.8082 146.152L88.8292 140.226L86.8066 142.774L88.996 148.011C89.0188 148.442 89.2003 148.851 89.5062 149.159C89.812 149.467 90.2209 149.652 90.6554 149.681C91.09 149.709 91.5199 149.578 91.8637 149.313C92.2075 149.048 92.4414 148.666 92.521 148.241Z" fill="#FFB8B8"/>
<path d="M117.965 133.998C117.847 133.77 117.679 133.57 117.475 133.413C117.27 133.256 117.033 133.145 116.781 133.089C116.528 133.033 116.267 133.032 116.014 133.087C115.761 133.142 115.524 133.251 115.318 133.407L110.075 129.962L110.07 133.206L115.05 135.98C115.337 136.306 115.734 136.516 116.166 136.57C116.598 136.624 117.035 136.519 117.394 136.275C117.753 136.031 118.01 135.664 118.115 135.244C118.22 134.825 118.167 134.381 117.965 133.998Z" fill="#FFB8B8"/>
<path d="M88.3718 145.503C88.1425 145.503 87.919 145.431 87.7331 145.298C87.5472 145.164 87.4084 144.976 87.3364 144.76L82.6972 135.014C82.5069 134.442 82.41 133.845 82.4102 133.243L83.8049 120.575C83.8049 119.866 84.0774 119.183 84.5669 118.667C85.0564 118.15 85.7259 117.839 86.4387 117.796C87.1516 117.753 87.8541 117.982 88.4027 118.436C88.9514 118.89 89.3049 119.535 89.3911 120.239L87.2571 134.698L90.6624 143.573C90.7163 143.809 90.6888 144.056 90.5843 144.275C90.4799 144.494 90.3045 144.671 90.0863 144.779L88.8593 145.388C88.708 145.464 88.541 145.503 88.3718 145.503Z" fill="#CCCCCC"/>
<path d="M113.149 135.278C112.978 135.278 112.81 135.238 112.657 135.161L103.431 130.533C102.89 130.262 102.397 129.907 101.969 129.48L92.9643 120.509C92.4602 120.006 92.1681 119.332 92.1476 118.623C92.1272 117.914 92.38 117.224 92.8544 116.694C93.3289 116.164 93.9891 115.833 94.7004 115.77C95.4118 115.707 96.1205 115.916 96.682 116.354L106.437 127.113L114.169 131.989C114.375 132.119 114.532 132.313 114.613 132.541C114.694 132.769 114.696 133.018 114.619 133.247L114.183 134.539C114.11 134.754 113.971 134.941 113.786 135.074C113.6 135.206 113.377 135.278 113.149 135.278Z" fill="#CCCCCC"/>
<path d="M83.1094 105.293C84.0792 106.553 85.4734 107.424 87.0369 107.747C88.6217 108.073 90.2711 107.838 91.7001 107.084C92.85 106.467 93.7702 105.541 94.6715 104.629C95.0476 104.249 95.4483 103.81 95.4293 103.291C95.4 102.486 94.4265 102.047 93.5909 101.871C90.8481 101.303 87.9942 101.622 85.447 102.781C84.3126 103.304 83.1306 104.251 83.301 105.428" fill="#AB4412"/>
<path d="M233.049 106.736H121.001C119.953 106.737 118.949 107.151 118.208 107.887C117.467 108.623 117.05 109.62 117.049 110.661V153.601C117.05 154.642 117.467 155.639 118.208 156.375C118.949 157.11 119.953 157.524 121.001 157.526H233.049C234.096 157.524 235.101 157.11 235.841 156.375C236.582 155.639 236.999 154.642 237.001 153.601V110.661C236.999 109.62 236.582 108.623 235.841 107.887C235.101 107.151 234.096 106.737 233.049 106.736ZM236.536 153.601C236.534 154.519 236.167 155.399 235.513 156.049C234.859 156.698 233.973 157.063 233.049 157.064H121.001C120.076 157.063 119.19 156.698 118.536 156.049C117.883 155.399 117.515 154.519 117.514 153.601V110.661C117.515 109.742 117.883 108.862 118.536 108.213C119.19 107.564 120.076 107.199 121.001 107.198H233.049C233.973 107.199 234.859 107.564 235.513 108.213C236.167 108.862 236.534 109.742 236.536 110.661V153.601Z" fill="#AB4412"/>
<path d="M141.344 145.521C138.678 145.521 136.071 144.736 133.854 143.264C131.636 141.793 129.908 139.702 128.888 137.255C127.867 134.808 127.6 132.116 128.12 129.519C128.641 126.921 129.925 124.535 131.81 122.663C133.696 120.79 136.098 119.515 138.714 118.998C141.329 118.481 144.04 118.747 146.504 119.76C148.968 120.773 151.073 122.49 152.555 124.692C154.036 126.894 154.827 129.483 154.827 132.131C154.823 135.681 153.401 139.084 150.874 141.595C148.346 144.105 144.919 145.517 141.344 145.521ZM141.344 119.202C138.77 119.202 136.253 119.961 134.112 121.381C131.971 122.802 130.303 124.821 129.317 127.183C128.332 129.546 128.074 132.145 128.576 134.653C129.079 137.161 130.319 139.464 132.139 141.273C133.96 143.081 136.279 144.312 138.805 144.811C141.33 145.31 143.947 145.054 146.326 144.075C148.705 143.097 150.738 141.439 152.168 139.313C153.599 137.187 154.362 134.688 154.362 132.131C154.358 128.703 152.986 125.417 150.545 122.993C148.105 120.57 144.796 119.206 141.344 119.202Z" fill="#AB4412"/>
<path d="M223.049 123.589H169.349C168.599 123.589 167.877 123.878 167.337 124.395C166.796 124.912 166.477 125.617 166.448 126.362C166.444 126.399 166.443 126.437 166.444 126.475C166.445 127.24 166.751 127.973 167.296 128.514C167.841 129.055 168.579 129.359 169.349 129.36H223.049C223.819 129.36 224.558 129.056 225.103 128.515C225.648 127.974 225.954 127.24 225.954 126.475C225.954 125.709 225.648 124.975 225.103 124.434C224.558 123.893 223.819 123.589 223.049 123.589Z" fill="#F29254"/>
<path d="M223.049 134.901H169.349C168.599 134.902 167.877 135.191 167.337 135.708C166.796 136.224 166.477 136.929 166.448 137.674C166.444 137.712 166.443 137.749 166.444 137.787C166.445 138.552 166.751 139.286 167.296 139.827C167.841 140.367 168.579 140.672 169.349 140.673H223.049C223.819 140.673 224.558 140.369 225.103 139.828C225.648 139.287 225.954 138.553 225.954 137.787C225.954 137.022 225.648 136.288 225.103 135.747C224.558 135.205 223.819 134.901 223.049 134.901Z" fill="#F29254"/>
<path d="M139.84 137.981C139.464 137.982 139.097 137.861 138.796 137.637L138.778 137.623L134.848 134.635C134.666 134.497 134.513 134.324 134.399 134.127C134.284 133.93 134.209 133.712 134.179 133.487C134.149 133.261 134.164 133.032 134.223 132.812C134.282 132.592 134.385 132.385 134.524 132.205C134.664 132.024 134.837 131.872 135.036 131.758C135.234 131.644 135.454 131.57 135.681 131.54C135.908 131.51 136.139 131.525 136.361 131.584C136.582 131.643 136.79 131.744 136.972 131.883L139.517 133.821L145.532 126.031C145.671 125.85 145.845 125.699 146.044 125.585C146.242 125.471 146.462 125.397 146.689 125.367C146.916 125.337 147.147 125.352 147.369 125.411C147.59 125.47 147.798 125.571 147.98 125.71L147.942 125.76L147.981 125.711C148.348 125.991 148.588 126.404 148.648 126.86C148.709 127.316 148.585 127.776 148.304 128.142L141.229 137.305C141.065 137.516 140.855 137.687 140.614 137.804C140.373 137.922 140.108 137.982 139.84 137.981Z" fill="#F29254"/>
<path d="M139.801 188H51.2325C51.1708 188 51.1117 187.975 51.0681 187.932C51.0245 187.889 51 187.83 51 187.769C51 187.708 51.0245 187.649 51.0681 187.606C51.1117 187.562 51.1708 187.538 51.2325 187.538H139.801C139.863 187.538 139.922 187.562 139.966 187.606C140.009 187.649 140.034 187.708 140.034 187.769C140.034 187.83 140.009 187.889 139.966 187.932C139.922 187.975 139.863 188 139.801 188Z" fill="#AB4412"/>
<path d="M209.834 96.3355C204.977 95.6722 200.045 95.7826 195.224 96.6627C190.417 97.5354 185.776 99.1468 181.469 101.439C179.048 102.731 176.75 104.238 174.604 105.943C174.254 106.221 174.75 106.708 175.097 106.433C178.863 103.458 183.084 101.101 187.601 99.4523C192.082 97.8065 196.791 96.8576 201.564 96.6392C204.264 96.516 206.97 96.6379 209.648 97.0034C209.737 97.0246 209.831 97.0114 209.911 96.9665C209.99 96.9216 210.05 96.8483 210.077 96.7615C210.101 96.673 210.089 96.5786 210.043 96.4988C209.998 96.4191 209.922 96.3604 209.834 96.3355Z" fill="white"/>
</g>
<defs>
<clipPath id="clip0_2620_855">
<rect width="186" height="125" fill="white" transform="translate(51 63)"/>
</clipPath>
</defs>
</svg>
