<svg width="70" height="70" viewBox="0 0 70 70" fill="none" xmlns="http://www.w3.org/2000/svg">
<circle cx="35" cy="35" r="35" fill="#E6E6E6"/>
<path d="M37.4502 24.3834V18.6667M37.4502 35.0001V30.1001" stroke="#F29254" stroke-width="1.75" stroke-linecap="round" stroke-linejoin="round"/>
<path d="M37.4502 51.3334C47.2502 51.3334 49.7002 43.9671 49.7002 35.0001C49.7002 26.033 47.2502 18.6667 37.4502 18.6667C27.6501 18.6667 25.2002 26.033 25.2002 35.0001C25.2002 43.9671 27.6501 51.3334 37.4502 51.3334Z" stroke="#F29254" stroke-width="1.75"/>
<path d="M39.9 26.8333C39.9 26.0723 39.9 25.6917 39.7757 25.3916C39.6099 24.9914 39.2919 24.6734 38.8917 24.5076C38.5915 24.3833 38.211 24.3833 37.45 24.3833C36.689 24.3833 36.3085 24.3833 36.0083 24.5076C35.6081 24.6734 35.2901 24.9914 35.1243 25.3916C35 25.6917 35 26.0723 35 26.8333V27.65C35 28.411 35 28.7915 35.1243 29.0917C35.2901 29.4919 35.6081 29.8099 36.0083 29.9756C36.3085 30.1 36.689 30.1 37.45 30.1C38.211 30.1 38.5915 30.1 38.8917 29.9756C39.2919 29.8099 39.6099 29.4919 39.7757 29.0917C39.9 28.7915 39.9 28.411 39.9 27.65V26.8333Z" stroke="#F29254" stroke-width="1.75"/>
<path d="M25.2002 35H49.7002" stroke="#F29254" stroke-width="1.75" stroke-linecap="round" stroke-linejoin="round"/>
<path d="M23.5674 20.5736L22.945 18.6667M21.9809 24.4936L20.3008 25.2001" stroke="#F29254" stroke-width="1.75" stroke-linecap="round"/>
</svg>
