<svg width="70" height="70" viewBox="0 0 70 70" fill="none" xmlns="http://www.w3.org/2000/svg">
<circle cx="35" cy="35" r="35" fill="#E6E6E6"/>
<path d="M49.6072 42.8977C48.5352 36.448 45.198 31.6453 42.2969 28.8243C41.4526 28.0034 41.0306 27.593 40.0981 27.2131C39.1656 26.8333 38.3641 26.8333 36.7612 26.8333H33.2404C31.6374 26.8333 30.8359 26.8333 29.9035 27.2131C28.9711 27.593 28.549 28.0034 27.7047 28.8243C24.8036 31.6453 21.4663 36.448 20.3943 42.8977C19.5967 47.6965 24.0236 51.3333 28.971 51.3333H41.0306C45.9779 51.3333 50.4049 47.6965 49.6072 42.8977Z" stroke="#F29254" stroke-width="1.5" stroke-linecap="round" stroke-linejoin="round"/>
<path d="M28 38H42" stroke="#F29254" stroke-width="1.5" stroke-linecap="round" stroke-linejoin="round"/>
<path d="M28 41H42" stroke="#F29254" stroke-width="1.5" stroke-linecap="round" stroke-linejoin="round"/>
<path d="M31 44V35L39.5 43.5V34.5" stroke="#F29254" stroke-width="1.5" stroke-linecap="round" stroke-linejoin="round"/>
<path d="M27.2531 22.6566C26.9162 22.1662 26.4277 21.5004 27.4367 21.3486C28.4737 21.1926 29.5506 21.9025 30.6046 21.8879C31.5582 21.8747 32.044 21.4518 32.5652 20.8479C33.114 20.212 33.9638 18.6666 35.0007 18.6666C36.0375 18.6666 36.8873 20.212 37.4361 20.8479C37.9573 21.4518 38.4431 21.8747 39.3966 21.8879C40.4508 21.9025 41.5276 21.1926 42.5646 21.3486C43.5735 21.5004 43.0852 22.1662 42.7482 22.6566L41.2245 24.8743C40.5728 25.823 40.2469 26.2973 39.5648 26.5653C38.8829 26.8333 38.0016 26.8333 36.239 26.8333H33.7623C31.9997 26.8333 31.1184 26.8333 30.4364 26.5653C29.7544 26.2973 29.4285 25.823 28.7768 24.8743L27.2531 22.6566Z" stroke="#F29254" stroke-width="1.5" stroke-linejoin="round"/>
</svg>
