<svg width="241" height="185" viewBox="0 0 241 185" fill="none" xmlns="http://www.w3.org/2000/svg">
<g clip-path="url(#clip0_607_9603)">
<path d="M161.505 52.0908C166.675 38.219 178.89 26.2329 193.652 24.8071C184.777 38.2459 180.951 54.3843 182.852 70.3668C183.608 76.528 185.091 83.3022 181.763 88.546C179.692 91.8088 176.042 93.8176 172.28 94.724C168.518 95.6305 164.598 95.5603 160.728 95.4849L159.862 95.9118C157.141 81.3629 156.335 65.9625 161.505 52.0908Z" fill="#F0F0F0"/>
<path d="M193.723 25.1097C183.66 32.1254 176.068 42.1271 172.025 53.694C171.174 56.1774 170.527 58.7704 170.49 61.4074C170.473 63.9781 171.147 66.5063 172.44 68.7294C173.605 70.8263 175.039 72.8367 175.673 75.1796C176.341 77.6492 175.796 80.1475 174.432 82.2812C172.764 84.8917 170.254 86.7483 167.737 88.4787C164.943 90.4 162.009 92.3515 160.299 95.3697C160.092 95.7354 159.536 95.3932 159.743 95.028C162.718 89.7768 168.961 87.8693 172.781 83.4088C174.563 81.3275 175.728 78.6975 175.177 75.926C174.695 73.5025 173.218 71.4281 172.02 69.315C170.763 67.0963 169.941 64.7937 169.845 62.2267C169.747 59.6007 170.294 56.977 171.078 54.4828C172.897 48.8403 175.594 43.5182 179.07 38.7117C183.006 33.2041 187.858 28.4091 193.415 24.5342C193.759 24.2945 194.065 24.8715 193.723 25.1097Z" fill="white"/>
<path d="M173.107 49.8928C171.255 48.9525 169.797 47.3856 168.996 45.4719C168.194 43.5583 168.1 41.4225 168.73 39.4461C168.859 39.0466 169.487 39.2278 169.358 39.6278C168.768 41.4672 168.856 43.4566 169.606 45.2371C170.356 47.0175 171.719 48.4717 173.45 49.3371C173.826 49.5256 173.481 50.0802 173.107 49.8928Z" fill="white"/>
<path d="M171.71 67.7434C175.762 66.4664 179.182 63.7124 181.289 60.0306C181.498 59.6656 182.054 60.0077 181.846 60.3722C179.646 64.1996 176.081 67.0583 171.862 68.3779C171.459 68.5034 171.31 67.8682 171.71 67.7434Z" fill="white"/>
<path d="M183.454 33.9447C184.095 34.4576 184.853 34.8036 185.661 34.9517C186.469 35.0998 187.302 35.0453 188.083 34.7931C188.484 34.6626 188.633 35.2979 188.235 35.4276C187.37 35.7022 186.451 35.7613 185.558 35.5996C184.665 35.438 183.825 35.0606 183.112 34.5003C183.04 34.4532 182.989 34.3805 182.969 34.2972C182.949 34.2138 182.962 34.1261 183.004 34.0517C183.05 33.9783 183.123 33.926 183.207 33.9059C183.291 33.8859 183.38 33.8998 183.454 33.9447Z" fill="white"/>
<path d="M229.233 60.1667C228.985 60.2553 228.737 60.3439 228.488 60.4378C225.164 61.6461 221.944 63.122 218.859 64.8508C218.618 64.9807 218.376 65.116 218.14 65.2525C210.753 69.4967 204.22 75.0726 198.872 81.6968C196.747 84.3347 194.825 87.1302 193.125 90.059C190.777 94.1039 188.553 98.676 185.105 101.624C184.749 101.935 184.373 102.225 183.981 102.49L160.451 96.9336C160.404 96.8942 160.355 96.86 160.308 96.8205L159.358 96.6416C159.436 96.4844 159.519 96.3231 159.596 96.1659C159.64 96.0745 159.69 95.9844 159.734 95.8931C159.766 95.8326 159.797 95.7721 159.822 95.7157C159.832 95.6955 159.843 95.6754 159.852 95.6605C159.876 95.6042 159.905 95.5544 159.929 95.5034C160.392 94.6002 160.863 93.6987 161.341 92.7989C161.342 92.7935 161.342 92.7935 161.349 92.7894C165.008 85.9425 169.272 79.3403 174.404 73.5938C174.559 73.421 174.714 73.2427 174.879 73.0724C177.207 70.4949 179.742 68.1117 182.459 65.9464C183.951 64.7655 185.501 63.6608 187.105 62.6364C191.253 59.9974 195.791 58.026 200.553 56.7944C210.047 54.3407 220.221 54.9442 228.596 59.7902C228.811 59.9143 229.02 60.0372 229.233 60.1667Z" fill="#F0F0F0"/>
<path d="M229.109 60.4519C216.841 60.0074 204.745 63.4316 194.539 70.2381C192.361 71.7096 190.28 73.3915 188.66 75.4746C187.095 77.5172 186.108 79.9405 185.8 82.4928C185.464 84.8667 185.397 87.3338 184.489 89.5851C183.532 91.958 181.59 93.6258 179.214 94.5099C176.307 95.5917 173.183 95.5664 170.129 95.4358C166.739 95.2907 163.22 95.0865 160.033 96.469C159.647 96.6365 159.409 96.0289 159.795 95.8616C165.338 93.4563 171.474 95.6847 177.215 94.4182C179.894 93.8272 182.411 92.427 183.643 89.883C184.72 87.6585 184.792 85.1145 185.111 82.7078C185.445 80.1808 186.179 77.8488 187.651 75.7416C189.157 73.5861 191.176 71.8195 193.307 70.2989C198.164 66.8867 203.528 64.2578 209.203 62.5085C215.669 60.4762 222.436 59.5626 229.21 59.8074C229.63 59.8227 229.526 60.4671 229.109 60.4519Z" fill="white"/>
<path d="M197.696 67.8536C196.784 65.9897 196.566 63.863 197.08 61.8533C197.594 59.8437 198.808 58.0819 200.504 56.8826C200.848 56.6411 201.24 57.1632 200.895 57.405C199.314 58.5188 198.184 60.1601 197.709 62.0325C197.234 63.9048 197.445 65.885 198.305 67.6157C198.491 67.992 197.881 68.2278 197.696 67.8536Z" fill="white"/>
<path d="M185.811 81.2668C189.816 82.6815 194.209 82.5376 198.113 80.8639C198.499 80.6978 198.737 81.3053 198.351 81.4713C194.285 83.2054 189.714 83.3458 185.549 81.8646C185.152 81.7231 185.416 81.1261 185.811 81.2668Z" fill="white"/>
<path d="M215.579 61.3366C215.782 62.1311 216.178 62.8631 216.734 63.4668C217.29 64.0705 217.987 64.527 218.763 64.7952C219.162 64.9316 218.898 65.5284 218.502 65.393C217.645 65.0926 216.876 64.5875 216.26 63.9219C215.645 63.2563 215.202 62.4503 214.971 61.5745C214.942 61.4938 214.945 61.4052 214.979 61.3267C215.014 61.2482 215.077 61.1857 215.156 61.1519C215.236 61.1208 215.326 61.1227 215.406 61.1573C215.485 61.1919 215.547 61.2563 215.579 61.3366Z" fill="white"/>
<path d="M25.1705 179.242C11.7001 173.05 0.645818 159.99 0.335938 145.193C13.094 155.039 28.9307 160.065 45.0442 159.38C51.2575 159.094 58.1384 158.13 63.1267 161.837C66.2306 164.144 67.9621 167.928 68.5838 171.74C69.2055 175.552 68.8393 179.447 68.4717 183.292L68.8328 184.186C54.09 185.796 38.6409 185.435 25.1705 179.242Z" fill="#F0F0F0"/>
<path d="M0.64356 145.145C6.89387 155.689 16.3143 163.999 27.5668 168.895C29.9839 169.93 32.5261 170.769 35.1582 171.005C37.7256 171.216 40.3027 170.736 42.6217 169.617C44.8049 168.617 46.922 167.341 49.3109 166.888C51.829 166.41 54.2842 167.14 56.3132 168.658C58.7957 170.516 60.4613 173.153 62.0002 175.788C63.709 178.714 65.4374 181.781 68.3241 183.71C68.6739 183.944 68.2899 184.472 67.9407 184.238C62.9183 180.881 61.4838 174.524 57.3153 170.387C55.3702 168.456 52.8302 167.098 50.0193 167.437C47.5613 167.734 45.377 169.048 43.1751 170.08C40.8632 171.163 38.5004 171.807 35.9282 171.708C33.2969 171.607 30.7165 170.865 28.2835 169.897C22.7827 167.661 17.6686 164.575 13.1283 160.753C7.92236 156.42 3.49752 151.23 0.0452665 145.408C-0.168271 145.048 0.431433 144.787 0.64356 145.145Z" fill="white"/>
<path d="M23.8506 167.531C22.7711 169.304 21.0953 170.635 19.1227 171.289C17.15 171.942 15.0088 171.874 13.0815 171.098C12.6921 170.939 12.9206 170.328 13.3105 170.487C15.1039 171.213 17.0984 171.276 18.9341 170.664C20.7698 170.052 22.3258 168.805 23.3212 167.148C23.5379 166.789 24.0661 167.173 23.8506 167.531Z" fill="white"/>
<path d="M41.5819 170.269C40.6119 166.141 38.1184 162.53 34.5986 160.155C34.2496 159.92 34.6335 159.392 34.982 159.627C38.6402 162.105 41.2274 165.869 42.2274 170.167C42.3224 170.576 41.6765 170.677 41.5819 170.269Z" fill="white"/>
<path d="M8.69625 156.031C9.25714 155.432 9.66017 154.703 9.86915 153.91C10.0781 153.117 10.0865 152.285 9.89356 151.488C9.79338 151.08 10.4395 150.98 10.539 151.385C10.7481 152.267 10.7377 153.186 10.5088 154.062C10.2798 154.939 9.83927 155.746 9.22563 156.413C9.17307 156.481 9.09663 156.526 9.01186 156.54C8.92708 156.553 8.84034 156.534 8.76923 156.486C8.69939 156.435 8.65255 156.359 8.63889 156.273C8.62522 156.188 8.64584 156.101 8.69625 156.031Z" fill="white"/>
<path d="M38.354 112.458C38.4238 112.711 38.4936 112.964 38.5686 113.219C39.525 116.618 40.7566 119.934 42.2511 123.134C42.3627 123.383 42.4795 123.634 42.5981 123.88C46.2811 131.551 51.3593 138.473 57.5745 144.295C60.0498 146.609 62.6979 148.732 65.496 150.645C69.3604 153.287 73.761 155.845 76.4461 159.499C76.7305 159.877 76.9912 160.272 77.2266 160.683L69.8978 183.677C69.8549 183.721 69.8171 183.767 69.774 183.811L69.5235 184.743C69.3723 184.654 69.2174 184.559 69.0661 184.47C68.9782 184.419 68.8919 184.363 68.804 184.312C68.7459 184.276 68.6878 184.24 68.6334 184.212C68.614 184.2 68.5947 184.188 68.5805 184.178C68.526 184.149 68.4785 184.116 68.4293 184.089C67.5618 183.56 66.6966 183.023 65.8336 182.48C65.8283 182.478 65.8283 182.478 65.8247 182.471C59.2595 178.313 52.9845 173.572 47.6301 168.031C47.4691 167.864 47.3027 167.696 47.145 167.518C44.7454 165.007 42.5554 162.305 40.597 159.438C39.5297 157.864 38.5429 156.238 37.6404 154.565C35.3168 150.238 33.6896 145.573 32.8186 140.741C31.0838 131.109 32.4552 121.03 37.9297 113.062C38.0699 112.858 38.2085 112.66 38.354 112.458Z" fill="#F0F0F0"/>
<path d="M38.6304 112.602C37.2598 124.776 39.7678 137.071 45.7982 147.741C47.1041 150.019 48.6275 152.217 50.5866 153.987C52.5095 155.698 54.8563 156.863 57.3833 157.363C59.73 157.876 62.1901 158.129 64.371 159.203C66.6698 160.334 68.1896 162.392 68.8936 164.823C69.755 167.798 69.4939 170.904 69.1327 173.933C68.7318 177.296 68.2619 180.783 69.4027 184.058C69.5409 184.455 68.9158 184.646 68.7778 184.249C66.793 178.551 69.483 172.614 68.651 166.805C68.2628 164.095 67.0537 161.485 64.6048 160.067C62.4634 158.827 59.9268 158.563 57.5462 158.065C55.0464 157.541 52.7716 156.635 50.7773 155.011C48.7371 153.349 47.1245 151.207 45.7659 148.972C42.7232 143.881 40.5014 138.345 39.1821 132.565C37.6397 125.978 37.2378 119.175 37.994 112.452C38.041 112.036 38.677 112.188 38.6304 112.602Z" fill="white"/>
<path d="M43.6538 144.419C41.7225 145.186 39.581 145.243 37.6118 144.579C35.6425 143.916 33.9738 142.575 32.9035 140.797C32.6882 140.436 33.2394 140.086 33.455 140.447C34.4486 142.104 36.0032 143.353 37.8382 143.967C39.6733 144.581 41.6679 144.52 43.462 143.796C43.8521 143.639 44.0417 144.263 43.6538 144.419Z" fill="white"/>
<path d="M56.1591 157.259C57.8751 153.38 58.0631 148.998 56.6855 144.987C56.5487 144.59 57.1737 144.399 57.3103 144.796C58.7361 148.972 58.5312 153.532 56.7366 157.565C56.5652 157.949 55.9887 157.641 56.1591 157.259Z" fill="white"/>
<path d="M38.4922 126.132C39.3014 125.991 40.0628 125.651 40.708 125.144C41.3532 124.636 41.8619 123.977 42.1886 123.225C42.355 122.838 42.9314 123.147 42.7661 123.53C42.4013 124.36 41.8385 125.087 41.1269 125.649C40.4154 126.212 39.5766 126.591 38.6841 126.756C38.6012 126.778 38.5129 126.768 38.437 126.728C38.3612 126.688 38.3035 126.621 38.2757 126.54C38.2507 126.457 38.2594 126.368 38.3 126.291C38.3405 126.215 38.4096 126.158 38.4922 126.132Z" fill="white"/>
<path d="M56.1863 97.4718C44.2834 85.7785 39.2562 73.5795 42.0303 63.1222C45.5904 49.7025 61.406 40.4239 85.422 37.6655L85.5107 38.4353C61.8291 41.1551 46.2547 50.2254 42.7808 63.3204C40.081 73.4974 45.0352 85.43 56.731 96.9199L56.1863 97.4718Z" fill="#F0F0F0"/>
<path d="M171.029 138.979C156.174 138.979 140.031 136.776 123.996 132.54C104.167 127.301 85.9856 119.394 71.418 109.673L71.8493 109.029C86.3469 118.703 104.447 126.574 124.195 131.791C142.04 136.506 160.019 138.69 176.181 138.114L176.209 138.888C174.502 138.949 172.776 138.98 171.029 138.979Z" fill="#F0F0F0"/>
<path d="M205.11 134.108L204.861 133.374C218.147 128.891 226.457 121.669 228.893 112.49C231.989 100.82 225.263 87.2777 209.955 74.3578C194.569 61.3724 172.381 50.5977 147.479 44.019L147.678 43.27C172.689 49.8777 194.984 60.7081 210.456 73.7664C226.006 86.8901 232.82 100.713 229.643 112.688C227.138 122.131 218.655 129.538 205.11 134.108Z" fill="#F0F0F0"/>
<path d="M83.1104 139.303C53.9202 126.384 31.4269 109.622 19.7744 92.1063L20.4211 91.6777C31.9931 109.073 54.3683 125.735 83.4251 138.595L83.1104 139.303Z" fill="#F0F0F0"/>
<path d="M185.741 161.685C182.731 161.685 179.668 161.618 176.555 161.484L176.588 160.71C199.824 161.714 220.326 158.939 235.881 152.683L236.172 153.402C222.603 158.858 205.308 161.685 185.741 161.685Z" fill="#F0F0F0"/>
<path d="M168.805 38.3598C163.98 36.7922 159.018 35.3327 154.055 34.0216C125.497 26.477 97.4247 23.7983 72.871 26.2765L72.793 25.5056C97.4381 23.0192 125.607 25.7044 154.254 33.2726C159.23 34.5875 164.207 36.0512 169.045 37.6233L168.805 38.3598Z" fill="#F0F0F0"/>
<path d="M37.9431 98.6334C26.0402 86.9402 21.013 74.7411 23.7871 64.2838C27.3472 50.8641 43.1629 41.5855 67.1788 38.8271L67.2675 39.5969C43.5859 42.3167 28.0115 51.3871 24.5377 64.482C21.8378 74.659 26.7921 86.5916 38.4878 98.0815L37.9431 98.6334Z" fill="#F0F0F0"/>
<path d="M152.786 140.142C137.931 140.142 121.787 137.939 105.753 133.702C85.9236 128.464 67.7424 120.556 53.1748 110.835L53.6062 110.191C68.1037 119.865 86.2043 127.737 105.951 132.953C123.796 137.668 141.775 139.853 157.938 139.276L157.966 140.05C156.259 140.111 154.532 140.142 152.786 140.142Z" fill="#F0F0F0"/>
<path d="M186.867 135.27L186.618 134.536C199.904 130.053 208.214 122.832 210.65 113.652C213.745 101.982 207.02 88.4398 191.712 75.5199C176.326 62.5345 154.138 51.7598 129.236 45.1811L129.435 44.4321C154.446 51.0398 176.741 61.8702 192.213 74.9285C207.763 88.0522 214.577 101.875 211.4 113.85C208.895 123.293 200.411 130.7 186.867 135.27Z" fill="#F0F0F0"/>
<path d="M64.8673 140.465C35.677 127.546 13.1838 110.784 1.53125 93.2684L2.17792 92.8398C13.7499 110.235 36.1251 126.897 65.1819 139.757L64.8673 140.465Z" fill="#F0F0F0"/>
<path d="M167.498 162.847C164.487 162.847 161.425 162.78 158.312 162.646L158.345 161.872C181.581 162.876 202.083 160.101 217.638 153.845L217.928 154.564C204.359 160.02 187.065 162.847 167.498 162.847Z" fill="#F0F0F0"/>
<path d="M150.562 39.5219C145.737 37.9543 140.774 36.4948 135.812 35.1837C107.254 27.6391 79.1815 24.9604 54.6279 27.4386L54.5498 26.6677C79.195 24.1813 107.364 26.8665 136.011 34.4347C140.987 35.7496 145.964 37.2133 150.802 38.7854L150.562 39.5219Z" fill="#F0F0F0"/>
<path d="M73.4408 97.0454C71.8457 97.0472 70.3164 97.6803 69.1885 98.8059C68.0606 99.9315 67.4262 101.458 67.4244 103.049C65.137 119.856 64.3731 136.835 65.1419 153.779C65.1876 154.861 65.2382 155.851 65.297 156.805C65.3823 158.382 65.4907 160.046 65.619 161.753C65.6927 162.76 65.7704 163.77 65.8555 164.777C65.998 166.416 66.1546 168.082 66.3212 169.728C66.4258 170.733 66.5344 171.744 66.6506 172.75C66.8737 174.726 67.1261 176.752 67.4227 178.944C67.4197 180.54 68.0521 182.071 69.1806 183.202C70.3092 184.333 71.8415 184.97 73.4408 184.974H174.36C175.955 184.972 177.485 184.339 178.612 183.213C179.74 182.088 180.375 180.562 180.377 178.97L180.381 178.928C180.831 176.884 181.249 174.802 181.626 172.737C181.827 171.649 182.001 170.661 182.157 169.716C182.44 167.995 182.692 166.33 182.905 164.767C183.051 163.717 183.183 162.701 183.297 161.744C183.485 160.18 183.655 158.562 183.816 156.799C183.905 155.841 183.986 154.852 184.065 153.774V153.774C185.299 136.791 184.058 119.719 180.381 103.091L180.377 103.049C180.375 101.458 179.74 99.9314 178.612 98.8059C177.485 97.6803 175.955 97.0472 174.36 97.0454L73.4408 97.0454Z" fill="#FDDAC4"/>
<path d="M127.819 122.748C105.952 122.748 82.7811 120.765 52.4556 116.798H52.4524C50.8803 116.796 49.3643 116.215 48.195 115.166C47.0258 114.118 46.2856 112.675 46.1163 111.115C46.0887 110.881 46.0753 110.645 46.0763 110.409V92.2032C46.0756 92.1643 46.0774 92.1254 46.0816 92.0867C46.1158 90.414 46.8044 88.821 48.0002 87.6484C49.1961 86.4757 50.8043 85.8166 52.4808 85.812C105.241 78.6532 137.29 78.6539 195.345 85.8135H195.347C197.023 85.8245 198.628 86.489 199.819 87.6651C201.01 88.8413 201.693 90.4356 201.721 92.1075C201.725 92.1393 201.726 92.1713 201.725 92.2032V110.409C201.726 110.645 201.713 110.882 201.685 111.117C201.513 112.681 200.768 114.126 199.594 115.175C198.419 116.224 196.897 116.803 195.321 116.8C170.239 120.765 149.68 122.748 127.819 122.748Z" fill="#AB4412"/>
<path d="M131.326 135.393H118.059C116.37 135.391 114.751 134.721 113.557 133.529C112.363 132.338 111.691 130.722 111.689 129.037V80.9352C111.691 79.25 112.363 77.6345 113.557 76.4429C114.751 75.2513 116.37 74.581 118.059 74.5791H131.326C133.015 74.581 134.634 75.2513 135.828 76.4428C137.022 77.6344 137.694 79.25 137.696 80.9352V129.037C137.694 130.722 137.022 132.338 135.828 133.529C134.634 134.721 133.015 135.391 131.326 135.393Z" fill="#FDDAC4"/>
<path d="M161.448 65.3746C161.352 64.4729 161.183 63.5803 160.942 62.7058C160.683 61.8296 160.354 60.9753 159.959 60.151C158.544 57.1201 156.156 54.6464 153.175 53.1211C149.474 51.303 145.241 51.1543 141.262 52.0302C137.917 52.7779 134.776 54.2453 132.058 56.33C130.649 57.3894 129.362 58.6009 128.22 59.9426C127.041 61.3543 124.848 65.2327 124.69 65.5918C123.45 62.7825 121.671 60.2426 119.453 58.1156C116.875 55.6735 113.797 53.8175 110.432 52.6751C108.643 52.0735 106.785 51.6968 104.903 51.5535C102.911 51.3883 100.905 51.5629 98.972 52.0699C95.4994 53.0404 92.4957 55.2316 90.5152 58.239C88.628 61.0342 87.7011 64.3652 87.874 67.7312C87.9695 69.4307 88.3368 71.1039 88.9618 72.6877C89.2968 73.545 89.6941 74.3767 90.1506 75.1762C90.6229 75.966 91.151 76.7211 91.7309 77.4359C94.0064 80.2226 97.0714 82.2593 100.525 83.28C104.213 84.4172 108.124 84.4544 111.916 83.9205C115.81 83.3722 119.558 82.1143 123.225 80.7367C123.714 80.5529 124.202 80.3638 124.69 80.1765C127.95 81.4282 131.238 82.6353 134.651 83.4015C138.49 84.3268 142.475 84.4863 146.376 83.8708C150.013 83.2751 153.394 81.627 156.1 79.1309C158.604 76.7795 160.356 73.7427 161.137 70.4013C161.523 68.7551 161.628 67.0558 161.448 65.3746ZM110.903 80.1784C108.799 80.4475 106.669 80.4599 104.562 80.2154C103.051 79.9969 101.571 79.6039 100.152 79.0441C96.8061 77.6536 94.139 75.011 92.7217 71.6822C92.2981 70.6328 91.9964 69.5383 91.8225 68.4204C91.7111 67.4257 91.7107 66.4218 91.8216 65.4271C91.9867 64.3806 92.2696 63.356 92.6648 62.3727C93.0923 61.4164 93.6232 60.5096 94.2479 59.6682C94.8537 58.9154 95.5383 58.2292 96.29 57.6213C97.0025 57.0954 97.7694 56.6469 98.5775 56.2837C99.542 55.9078 100.545 55.6399 101.569 55.4851C102.956 55.3319 104.356 55.3428 105.74 55.5176C107.387 55.7714 108.999 56.2149 110.544 56.8391C112.187 57.5507 113.74 58.4542 115.17 59.5306C116.493 60.5767 117.692 61.7699 118.745 63.0872C119.787 64.47 120.66 65.9715 121.347 67.56C122.015 69.2172 122.484 70.9475 122.745 72.7147L122.748 72.7406C122.646 73.6285 122.596 74.5214 122.596 75.4151C122.596 75.7594 122.611 76.1033 122.629 76.4469C122.465 76.6045 122.328 76.788 122.224 76.9901C119.521 78.0486 116.749 78.9258 113.928 79.6156C112.929 79.846 111.92 80.0335 110.903 80.1784ZM157.565 68.4203C157.391 69.5384 157.089 70.6329 156.666 71.6825C155.255 75.0158 152.586 77.6606 149.236 79.0441C147.816 79.6039 146.336 79.9969 144.826 80.2154C142.714 80.4603 140.581 80.4474 138.473 80.177C134.728 79.6426 131.116 78.4631 127.582 77.1466C127.436 77.0924 127.292 77.0353 127.147 76.9806C127.048 76.7816 126.918 76.6 126.76 76.4434C126.822 75.1962 126.783 73.946 126.644 72.705C126.905 70.9412 127.374 69.2142 128.04 67.56C128.727 65.9716 129.601 64.4702 130.643 63.0873C131.695 61.77 132.895 60.5767 134.218 59.5306C135.648 58.4542 137.201 57.5507 138.844 56.8391C140.388 56.2149 142.001 55.7714 143.648 55.5176C145.032 55.3428 146.432 55.3319 147.818 55.4851C148.842 55.6399 149.846 55.9078 150.81 56.2837C151.618 56.647 152.385 57.0954 153.098 57.6214C153.849 58.2293 154.534 58.9155 155.14 59.6683C155.764 60.5097 156.295 61.4165 156.723 62.3727C157.118 63.356 157.401 64.3806 157.566 65.4271C157.677 66.4217 157.677 67.4256 157.565 68.4203Z" fill="#FDDAC4"/>
<path d="M84.3094 137.523C85.5956 137.523 86.6383 136.483 86.6383 135.199C86.6383 133.916 85.5956 132.875 84.3094 132.875C83.0232 132.875 81.9805 133.916 81.9805 135.199C81.9805 136.483 83.0232 137.523 84.3094 137.523Z" fill="#AB4412"/>
<path d="M101 131.713C102.286 131.713 103.329 130.673 103.329 129.389C103.329 128.105 102.286 127.065 101 127.065C99.7136 127.065 98.6709 128.105 98.6709 129.389C98.6709 130.673 99.7136 131.713 101 131.713Z" fill="#AB4412"/>
<path d="M93.6248 149.918C94.911 149.918 95.9537 148.878 95.9537 147.594C95.9537 146.311 94.911 145.27 93.6248 145.27C92.3386 145.27 91.2959 146.311 91.2959 147.594C91.2959 148.878 92.3386 149.918 93.6248 149.918Z" fill="#AB4412"/>
<path d="M162.716 137.523C164.002 137.523 165.045 136.483 165.045 135.199C165.045 133.916 164.002 132.875 162.716 132.875C161.429 132.875 160.387 133.916 160.387 135.199C160.387 136.483 161.429 137.523 162.716 137.523Z" fill="#AB4412"/>
<path d="M146.025 131.713C147.311 131.713 148.354 130.673 148.354 129.389C148.354 128.105 147.311 127.065 146.025 127.065C144.739 127.065 143.696 128.105 143.696 129.389C143.696 130.673 144.739 131.713 146.025 131.713Z" fill="#AB4412"/>
<path d="M153.4 149.918C154.686 149.918 155.729 148.878 155.729 147.594C155.729 146.311 154.686 145.27 153.4 145.27C152.114 145.27 151.071 146.311 151.071 147.594C151.071 148.878 152.114 149.918 153.4 149.918Z" fill="#AB4412"/>
<path d="M164.657 178.195C165.943 178.195 166.986 177.155 166.986 175.871C166.986 174.587 165.943 173.547 164.657 173.547C163.371 173.547 162.328 174.587 162.328 175.871C162.328 177.155 163.371 178.195 164.657 178.195Z" fill="#AB4412"/>
<path d="M170.479 161.539C171.766 161.539 172.808 160.498 172.808 159.215C172.808 157.931 171.766 156.891 170.479 156.891C169.193 156.891 168.15 157.931 168.15 159.215C168.15 160.498 169.193 161.539 170.479 161.539Z" fill="#AB4412"/>
<path d="M152.236 168.899C153.522 168.899 154.565 167.858 154.565 166.575C154.565 165.291 153.522 164.25 152.236 164.25C150.95 164.25 149.907 165.291 149.907 166.575C149.907 167.858 150.95 168.899 152.236 168.899Z" fill="#AB4412"/>
<path d="M97.8943 178.195C99.1806 178.195 100.223 177.155 100.223 175.871C100.223 174.587 99.1806 173.547 97.8943 173.547C96.6081 173.547 95.5654 174.587 95.5654 175.871C95.5654 177.155 96.6081 178.195 97.8943 178.195Z" fill="#AB4412"/>
<path d="M103.717 161.539C105.003 161.539 106.046 160.498 106.046 159.215C106.046 157.931 105.003 156.891 103.717 156.891C102.43 156.891 101.388 157.931 101.388 159.215C101.388 160.498 102.43 161.539 103.717 161.539Z" fill="#AB4412"/>
<path d="M85.4734 168.899C86.7597 168.899 87.8023 167.858 87.8023 166.575C87.8023 165.291 86.7597 164.25 85.4734 164.25C84.1872 164.25 83.1445 165.291 83.1445 166.575C83.1445 167.858 84.1872 168.899 85.4734 168.899Z" fill="#AB4412"/>
<path d="M152.389 14.0517C153.27 14.4191 154.232 14.5536 155.181 14.4423C156.13 14.3311 157.035 13.9777 157.807 13.4164C159.777 11.9505 160.515 9.39167 161.134 7.01911L162.961 0L159.875 1.86945C157.656 3.21359 155.386 4.60227 153.784 6.64291C152.183 8.68354 151.372 11.5432 152.428 13.9112" fill="#F2F2F2"/>
<path d="M69.8647 74.009C70.4602 73.2632 70.8533 72.3769 71.006 71.4355C71.1587 70.4941 71.0659 69.5293 70.7365 68.6341C69.8632 66.3423 67.5993 64.9328 65.4821 63.6895L59.2178 60.0137L60.1744 63.4871C60.8621 65.985 61.5787 68.5439 63.1067 70.6401C64.6347 72.7363 67.1687 74.2973 69.74 73.9327" fill="#F2F2F2"/>
<path d="M216.974 182.079C217.57 181.334 217.963 180.447 218.115 179.506C218.268 178.564 218.175 177.6 217.846 176.704C216.973 174.413 214.709 173.003 212.592 171.76L206.327 168.084L207.284 171.557C207.971 174.055 208.688 176.614 210.216 178.71C211.744 180.807 214.278 182.368 216.849 182.003" fill="#F2F2F2"/>
<path d="M98.6706 44.9466C100.386 44.9466 101.776 43.5592 101.776 41.8478C101.776 40.1364 100.386 38.749 98.6706 38.749C96.9557 38.749 95.5654 40.1364 95.5654 41.8478C95.5654 43.5592 96.9557 44.9466 98.6706 44.9466Z" fill="#AB4412"/>
<path d="M15.9949 136.361C17.7098 136.361 19.1001 134.974 19.1001 133.262C19.1001 131.551 17.7098 130.164 15.9949 130.164C14.2799 130.164 12.8896 131.551 12.8896 133.262C12.8896 134.974 14.2799 136.361 15.9949 136.361Z" fill="#AB4412"/>
<path d="M229.478 111.183C231.193 111.183 232.583 109.796 232.583 108.085C232.583 106.373 231.193 104.986 229.478 104.986C227.763 104.986 226.373 106.373 226.373 108.085C226.373 109.796 227.763 111.183 229.478 111.183Z" fill="#AB4412"/>
<path d="M12.8894 58.5042C14.6044 58.5042 15.9946 57.1169 15.9946 55.4054C15.9946 53.694 14.6044 52.3066 12.8894 52.3066C11.1744 52.3066 9.78418 53.694 9.78418 55.4054C9.78418 57.1169 11.1744 58.5042 12.8894 58.5042Z" fill="#E6E6E6"/>
<path d="M205.024 146.82C206.739 146.82 208.129 145.432 208.129 143.721C208.129 142.009 206.739 140.622 205.024 140.622C203.309 140.622 201.919 142.009 201.919 143.721C201.919 145.432 203.309 146.82 205.024 146.82Z" fill="#E6E6E6"/>
<path d="M211.235 52.6937C212.95 52.6937 214.34 51.3063 214.34 49.5949C214.34 47.8835 212.95 46.4961 211.235 46.4961C209.52 46.4961 208.13 47.8835 208.13 49.5949C208.13 51.3063 209.52 52.6937 211.235 52.6937Z" fill="#E6E6E6"/>
<path d="M75.0814 101.978C74.8129 102.402 74.1621 102.341 73.7966 102.076C73.2893 101.708 73.4535 101 73.8029 100.581C74.9133 99.251 76.7497 100.655 76.9974 101.976C77.0895 102.62 76.9901 103.277 76.7116 103.866C76.433 104.454 75.9875 104.948 75.4304 105.286C74.1636 106.035 72.518 105.659 71.4288 104.762C69.1567 102.892 69.7753 99.1471 72.2991 97.7939C73.9097 96.9303 75.9459 97.3093 77.5326 98.0327C79.3186 98.847 80.8544 100.095 82.5061 101.136C86.1301 103.399 90.2296 104.796 94.4843 105.217C95.2291 105.293 95.2238 104.13 94.4843 104.055C92.1265 103.812 89.8119 103.256 87.6016 102.401C85.4148 101.517 83.3391 100.38 81.4171 99.0139C79.4724 97.6836 77.4406 96.3914 75.0339 96.1716C74.0627 96.0584 73.0788 96.2039 72.1822 96.5932C71.2855 96.9825 70.5082 97.6018 69.9292 98.3882C69.4142 99.0918 69.0695 99.9049 68.922 100.764C68.7746 101.623 68.8284 102.504 69.0794 103.338C69.3818 104.211 69.9106 104.988 70.6118 105.591C71.3131 106.193 72.1618 106.6 73.0715 106.768C73.9473 106.934 74.8529 106.822 75.662 106.449C76.4711 106.076 77.1434 105.46 77.5851 104.687C78.4709 103.159 78.4421 101.105 77.1041 99.8373C76.7206 99.4482 76.2405 99.1678 75.7128 99.0246C75.1851 98.8813 74.6288 98.8805 74.1006 99.0221C73.614 99.1861 73.1859 99.4881 72.8686 99.8912C72.5512 100.294 72.3585 100.781 72.3139 101.291C72.1848 103.276 75.0078 104.268 76.0868 102.565C76.4884 101.931 75.4812 101.347 75.0814 101.978Z" fill="#FDDAC4"/>
<path d="M174.661 101.978C174.929 102.402 175.58 102.341 175.945 102.076C176.453 101.708 176.289 101 175.939 100.581C174.829 99.251 172.992 100.655 172.745 101.976C172.653 102.62 172.752 103.277 173.031 103.866C173.309 104.454 173.755 104.948 174.312 105.286C175.579 106.035 177.224 105.659 178.313 104.762C180.585 102.892 179.967 99.1471 177.443 97.7939C175.832 96.9303 173.796 97.3093 172.21 98.0327C170.423 98.847 168.888 100.095 167.236 101.136C163.612 103.399 159.512 104.796 155.258 105.217C154.513 105.293 154.518 104.13 155.258 104.055C157.616 103.812 159.93 103.256 162.14 102.401C164.327 101.517 166.403 100.38 168.325 99.0139C170.27 97.6836 172.301 96.3914 174.708 96.1716C175.679 96.0584 176.663 96.2039 177.56 96.5932C178.457 96.9825 179.234 97.6018 179.813 98.3882C180.328 99.0918 180.673 99.9049 180.82 100.764C180.968 101.623 180.914 102.504 180.663 103.338C180.36 104.211 179.832 104.988 179.13 105.591C178.429 106.193 177.58 106.6 176.671 106.768C175.795 106.934 174.889 106.822 174.08 106.449C173.271 106.076 172.599 105.46 172.157 104.687C171.271 103.159 171.3 101.105 172.638 99.8373C173.021 99.4482 173.502 99.1678 174.029 99.0246C174.557 98.8813 175.113 98.8805 175.641 99.0221C176.128 99.1861 176.556 99.4881 176.874 99.8912C177.191 100.294 177.384 100.781 177.428 101.291C177.557 103.276 174.734 104.268 173.655 102.565C173.254 101.931 174.261 101.347 174.661 101.978Z" fill="#FDDAC4"/>
<path d="M34.5589 14.0851L33.0207 16.0109L27.5811 12.7998L29.1189 10.874L34.5589 14.0851Z" fill="#E4E4E4"/>
<path d="M40.2351 22.3589L41.5934 24.382L35.8789 27.2185L34.5205 25.1957L40.2351 22.3589Z" fill="#E4E4E4"/>
<path d="M46.1505 13.5635L48.8651 13.6595L48.5949 19.3278L45.8799 19.2322L46.1505 13.5635Z" fill="#E4E4E4"/>
<path d="M226.694 132.614L225.155 134.54L219.716 131.329L221.254 129.403L226.694 132.614Z" fill="#E4E4E4"/>
<path d="M232.37 140.888L233.728 142.911L228.014 145.747L226.655 143.724L232.37 140.888Z" fill="#E4E4E4"/>
<path d="M238.285 132.092L241 132.188L240.73 137.857L238.015 137.761L238.285 132.092Z" fill="#E4E4E4"/>
</g>
<defs>
<clipPath id="clip0_607_9603">
<rect width="241" height="185" fill="white"/>
</clipPath>
</defs>
</svg>
