<svg width="262" height="177" viewBox="0 0 262 177" fill="none" xmlns="http://www.w3.org/2000/svg">
<g clip-path="url(#clip0_607_15264)">
<path d="M239.658 61.9302C239.383 62.1557 239.108 62.3715 238.826 62.584H169.361C168.844 62.3715 168.329 62.1536 167.816 61.9302C160.482 58.7441 153.656 54.5015 147.556 49.3379C143.506 45.9119 139.779 42.3749 137.078 39.0601C133.309 34.4344 129.838 29.3935 128.224 23.6499C126.613 17.9062 127.094 11.3224 130.693 6.5594C131.807 5.09424 133.177 3.84177 134.737 2.86213C134.995 2.69868 135.257 2.54177 135.526 2.39466C139.841 -0.0244177 145.287 -0.612846 150.146 0.639192C157.105 2.43389 162.887 7.44531 167.013 13.323C171.139 19.1975 173.818 25.9447 176.457 32.6168C179.135 20.7078 187.246 10.0409 198.203 4.6176C209.156 -0.805719 222.765 -0.740338 233.486 5.13411C236.859 6.99366 239.906 9.38967 242.507 12.2279C242.766 12.5058 243.018 12.7902 243.267 13.0778C248.496 19.1223 251.767 26.8633 252.036 34.8463C252.38 45.1306 247.605 55.4608 239.658 61.9302Z" fill="#FDDAC4"/>
<path d="M172.138 62.5844H171.156C171.143 62.3653 171.126 62.1496 171.107 61.9305C170.763 57.6545 170.045 53.4168 168.959 49.2663C166.467 39.7907 162.212 30.8678 156.414 22.9637C150.633 15.0343 143.345 8.3185 134.966 3.19918C134.905 3.16412 134.852 3.11557 134.812 3.05723C134.773 2.99889 134.747 2.93228 134.737 2.86247C134.721 2.77118 134.731 2.67722 134.767 2.59155C134.802 2.50587 134.861 2.432 134.937 2.37856C135.013 2.32511 135.102 2.29428 135.195 2.28967C135.288 2.28506 135.38 2.30685 135.461 2.3525C135.483 2.36551 135.505 2.37969 135.526 2.39499C140.273 5.28369 144.68 8.69621 148.663 12.5682C155.788 19.5071 161.534 27.7296 165.596 36.8015C169.179 44.7468 171.374 53.2459 172.086 61.9305C172.105 62.1496 172.122 62.3686 172.138 62.5844Z" fill="white"/>
<path d="M243.266 13.0774C243.259 13.081 243.252 13.0833 243.244 13.0839C242.526 13.2147 241.806 13.352 241.092 13.4991C235.232 14.7005 229.496 16.4393 223.957 18.6936C218.432 20.9446 213.117 23.6795 208.075 26.8661C203.027 30.0512 198.266 33.6695 193.848 37.6801C189.429 41.6849 185.375 46.0739 181.735 50.7954C179.015 54.333 176.541 58.0532 174.332 61.9297C174.207 62.1455 174.086 62.3645 173.965 62.5835H172.842C172.96 62.3645 173.081 62.1455 173.205 61.9297C175.878 57.1798 178.943 52.6605 182.367 48.4188C186.154 43.7245 190.353 39.3759 194.912 35.4244C199.442 31.4953 204.304 27.9647 209.444 24.872C214.605 21.7669 220.031 19.1239 225.659 16.9741C231.121 14.8896 236.76 13.301 242.507 12.2274C242.667 12.198 242.824 12.1686 242.985 12.1392C243.597 12.028 243.859 12.9499 243.266 13.0774Z" fill="white"/>
<path d="M64.7301 64.5278C66.4769 61.2356 66.7653 56.9478 64.5932 53.9184C63.3002 52.1151 61.2813 50.9314 59.163 50.2637C57.0447 49.5961 54.81 49.3998 52.5946 49.2376C50.4016 49.0769 48.1695 48.9484 46.0272 49.4435C43.8849 49.9387 41.8099 51.1484 40.7663 53.0807C39.0033 56.345 40.6093 60.5307 39.3144 64.0066C38.1261 67.1964 34.7441 69.0613 31.4195 69.8139C28.0949 70.5665 24.6248 70.4864 21.2986 71.2317C17.9723 71.977 14.5847 73.8245 13.3753 77.0065C12.5007 79.3075 12.9353 81.9579 14.0876 84.1335C15.24 86.3091 17.0448 88.0704 18.9605 89.6193C21.8184 91.9299 25.162 93.9089 28.8341 94.1092C32.7034 94.3203 36.4866 92.4815 39.2715 89.7915C42.0564 87.1015 43.9523 83.6253 45.4671 80.0646C46.428 77.8057 47.336 75.3747 49.2617 73.8493C50.6767 72.7284 52.4765 72.2373 54.2219 71.7729L56.1984 71.247C57.9893 70.7792 59.6654 69.9505 61.1236 68.8119C62.5818 67.6733 63.7912 66.2488 64.6774 64.6262C64.695 64.5935 64.7126 64.5607 64.7301 64.5278Z" fill="#AB4412"/>
<path d="M49.143 172.822H45.1288L43.2188 157.363H49.144L49.143 172.822Z" fill="#FFB8B8"/>
<path d="M42.2614 171.677H50.0036V176.543H37.3867C37.3867 175.904 37.5128 175.271 37.7578 174.681C38.0028 174.091 38.3618 173.554 38.8145 173.102C39.2671 172.65 39.8045 172.292 40.396 172.047C40.9874 171.803 41.6213 171.677 42.2614 171.677Z" fill="#AB4412"/>
<path d="M82.5434 172.822H78.5292L76.6191 157.363H82.5443L82.5434 172.822Z" fill="#FFB8B8"/>
<path d="M75.6618 171.677H83.404V176.543H70.7871C70.7871 175.904 70.9132 175.271 71.1582 174.681C71.4032 174.091 71.7622 173.554 72.2149 173.102C72.6675 172.65 73.2049 172.292 73.7963 172.047C74.3878 171.803 75.0217 171.677 75.6618 171.677Z" fill="#AB4412"/>
<path d="M56.8606 160.535C56.8046 160.535 56.7487 160.532 56.693 160.526L40.3606 158.779C40.1437 158.756 39.9342 158.687 39.7462 158.576C39.5581 158.466 39.3957 158.317 39.2698 158.139C39.1439 157.961 39.0574 157.759 39.0161 157.545C38.9748 157.331 38.9795 157.111 39.0301 156.899L53.4911 101.989C53.5588 101.71 53.7034 101.455 53.9085 101.253C54.1137 101.051 54.3712 100.911 54.652 100.847L68.067 97.1141C68.336 97.0551 68.6159 97.0689 68.8777 97.1541C69.1396 97.2393 69.3739 97.3927 69.5565 97.5986C78.1816 107.311 84.6814 128.841 89.6052 155.979C89.6424 156.183 89.6374 156.394 89.5906 156.596C89.5437 156.799 89.456 156.99 89.3328 157.158C89.2096 157.326 89.0535 157.467 88.8739 157.573C88.6943 157.679 88.4951 157.747 88.2883 157.773L74.9062 159.479C74.5266 159.528 74.1423 159.434 73.8289 159.214C73.5156 158.995 73.2958 158.666 73.213 158.293L66.7021 129.314C66.6422 129.047 66.4923 128.809 66.2776 128.639C66.0629 128.47 65.7963 128.379 65.5226 128.382C65.2488 128.385 64.9844 128.482 64.7736 128.657C64.5629 128.831 64.4186 129.073 64.3649 129.341L58.3627 159.302C58.2947 159.649 58.1076 159.963 57.8335 160.188C57.5595 160.413 57.2155 160.536 56.8606 160.535Z" fill="#AB4412"/>
<path d="M54.3765 72.0669C58.8183 72.0669 62.419 68.4722 62.419 64.0379C62.419 59.6035 58.8183 56.0088 54.3765 56.0088C49.9347 56.0088 46.334 59.6035 46.334 64.0379C46.334 68.4722 49.9347 72.0669 54.3765 72.0669Z" fill="#FFB8B8"/>
<path d="M54.1518 102.144C53.8137 102.143 53.4852 102.031 53.2174 101.825C52.9496 101.619 52.7576 101.331 52.6713 101.004L47.8329 82.8579C47.4837 81.554 47.6283 80.1673 48.2391 78.9632C48.8499 77.7591 49.884 76.8221 51.1435 76.3315C55.0382 74.8137 58.7488 74.2507 62.1721 74.6573C65.2147 75.0194 68.9682 93.0026 68.7199 93.3862L69.9206 96.9821C69.9887 97.186 70.013 97.4019 69.9921 97.6159C69.9712 97.8298 69.9055 98.037 69.7992 98.2239C69.6929 98.4109 69.5485 98.5734 69.3752 98.7011C69.2019 98.8287 69.0037 98.9185 68.7934 98.9647L54.4855 102.107C54.3759 102.131 54.264 102.143 54.1518 102.144Z" fill="#CCCCCC"/>
<path d="M58.4878 120.701C58.5567 120.344 58.5463 119.976 58.4574 119.624C58.3685 119.271 58.2032 118.942 57.9732 118.66C57.7432 118.378 57.454 118.15 57.1261 117.991C56.7981 117.833 56.4394 117.748 56.0751 117.743L53.2875 109.352L50.4385 112.959L53.5224 120.375C53.5545 120.987 53.8102 121.565 54.241 122.001C54.6719 122.437 55.2479 122.7 55.8599 122.74C56.472 122.78 57.0775 122.595 57.5619 122.219C58.0462 121.843 58.3756 121.303 58.4878 120.701Z" fill="#FFB8B8"/>
<path d="M94.3257 100.534C94.1588 100.21 93.923 99.9276 93.6347 99.7051C93.3465 99.4827 93.013 99.326 92.6575 99.2462C92.3021 99.1663 91.9334 99.1653 91.5776 99.243C91.2217 99.3208 90.8872 99.4756 90.5977 99.6963L83.2118 94.8184L83.2051 99.4126L90.2199 103.34C90.6236 103.801 91.1827 104.099 91.7913 104.175C92.3998 104.252 93.0154 104.104 93.5215 103.758C94.0276 103.412 94.389 102.893 94.5372 102.298C94.6854 101.704 94.6102 101.076 94.3257 100.534Z" fill="#FFB8B8"/>
<path d="M52.6437 116.824C52.3207 116.824 52.0059 116.722 51.744 116.533C51.4822 116.344 51.2867 116.078 51.1853 115.772L44.6504 101.971C44.3824 101.162 44.2459 100.316 44.2461 99.464L46.2108 81.5264C46.2107 80.5221 46.5946 79.5556 47.2841 78.8243C47.9735 78.093 48.9166 77.6519 49.9207 77.5912C50.9249 77.5305 51.9144 77.8547 52.6873 78.4976C53.4601 79.1405 53.958 80.0536 54.0794 81.0506L51.0735 101.525L55.8702 114.091C55.9461 114.425 55.9074 114.775 55.7602 115.085C55.6131 115.395 55.366 115.646 55.0587 115.799L53.3304 116.662C53.1172 116.768 52.8821 116.824 52.6437 116.824Z" fill="#CCCCCC"/>
<path d="M87.544 102.345C87.3034 102.345 87.0661 102.289 86.8514 102.18L73.8557 95.627C73.0938 95.2432 72.3985 94.7399 71.7964 94.1362L59.112 81.432C58.4018 80.7207 57.9903 79.7657 57.9616 78.7618C57.9328 77.758 58.2889 76.781 58.9572 76.0303C59.6255 75.2797 60.5555 74.812 61.5575 74.7227C62.5594 74.6333 63.5578 74.9292 64.3487 75.5498L78.0893 90.7843L88.9813 97.6885C89.2714 97.8717 89.4916 98.147 89.6063 98.47C89.7211 98.7931 89.7239 99.1453 89.6142 99.4701L89.0002 101.299C88.8978 101.604 88.7022 101.869 88.4409 102.056C88.1796 102.244 87.8659 102.345 87.544 102.345Z" fill="#CCCCCC"/>
<path d="M45.2285 59.8874C46.5947 61.6716 48.5585 62.9052 50.7608 63.3628C52.9932 63.8233 55.3165 63.491 57.3295 62.4232C58.9493 61.5495 60.2454 60.2382 61.515 58.9471C62.0448 58.4083 62.6091 57.787 62.5824 57.0519C62.5412 55.9131 61.1698 55.2905 59.9928 55.0421C56.1293 54.2375 52.1093 54.6888 48.5213 56.3301C46.9234 57.0711 45.2585 58.4117 45.4984 60.0783" fill="#AB4412"/>
<path d="M256.434 61.9307H98.6028C97.1271 61.9327 95.7124 62.5189 94.6689 63.5607C93.6254 64.6024 93.0382 66.0148 93.0361 67.488V128.292C93.0382 129.765 93.6254 131.178 94.6689 132.219C95.7124 133.261 97.1271 133.847 98.6028 133.849H256.434C257.909 133.847 259.324 133.261 260.368 132.219C261.411 131.178 261.998 129.765 262 128.292V67.488C261.998 66.0148 261.411 64.6024 260.368 63.5607C259.324 62.5189 257.909 61.9327 256.434 61.9307ZM261.345 128.292C261.344 129.592 260.826 130.838 259.905 131.758C258.984 132.677 257.736 133.194 256.434 133.195H98.6028C97.3006 133.194 96.0522 132.677 95.1314 131.758C94.2106 130.838 93.6926 129.592 93.691 128.292V67.488C93.6926 66.188 94.2106 64.9417 95.1314 64.0224C96.0522 63.1032 97.3006 62.5861 98.6028 62.5845H256.434C257.736 62.5861 258.984 63.1032 259.905 64.0224C260.826 64.9417 261.344 66.188 261.345 67.488V128.292Z" fill="#AB4412"/>
<path d="M127.259 116.849C123.502 116.849 119.831 115.737 116.707 113.654C113.584 111.571 111.15 108.609 109.712 105.145C108.275 101.68 107.899 97.8681 108.632 94.1901C109.364 90.5121 111.173 87.1337 113.829 84.4821C116.485 81.8304 119.869 80.0246 123.554 79.293C127.238 78.5614 131.056 78.9369 134.527 80.372C137.997 81.8071 140.963 84.2373 143.05 87.3553C145.137 90.4733 146.251 94.1391 146.251 97.8891C146.245 102.916 144.242 107.735 140.682 111.29C137.121 114.844 132.294 116.844 127.259 116.849ZM127.259 79.5825C123.632 79.5825 120.087 80.6562 117.071 82.6677C114.056 84.6793 111.705 87.5384 110.317 90.8835C108.929 94.2286 108.566 97.9094 109.274 101.461C109.981 105.012 111.728 108.274 114.292 110.834C116.857 113.394 120.124 115.138 123.681 115.844C127.238 116.55 130.925 116.188 134.276 114.802C137.627 113.417 140.491 111.07 142.506 108.06C144.52 105.049 145.596 101.51 145.596 97.8891C145.59 93.0356 143.657 88.3824 140.219 84.9505C136.781 81.5185 132.12 79.588 127.259 79.5825Z" fill="#AB4412"/>
<path d="M242.349 85.7939H166.708C165.65 85.7946 164.634 86.2037 163.873 86.9356C163.111 87.6675 162.662 88.6653 162.621 89.72C162.616 89.7733 162.613 89.8268 162.615 89.8802C162.616 90.9635 163.048 92.002 163.815 92.768C164.582 93.534 165.623 93.965 166.708 93.9665H242.349C243.434 93.9665 244.475 93.536 245.243 92.7697C246.01 92.0033 246.442 90.964 246.442 89.8802C246.442 88.7965 246.01 87.7571 245.243 86.9908C244.475 86.2245 243.434 85.7939 242.349 85.7939Z" fill="#F29254"/>
<path d="M242.349 101.812H166.708C165.65 101.813 164.634 102.222 163.873 102.954C163.111 103.686 162.662 104.684 162.621 105.739C162.616 105.792 162.613 105.845 162.615 105.899C162.616 106.982 163.048 108.021 163.815 108.787C164.582 109.553 165.623 109.984 166.708 109.985H242.349C243.434 109.985 244.475 109.555 245.243 108.788C246.01 108.022 246.442 106.983 246.442 105.899C246.442 104.815 246.01 103.776 245.243 103.009C244.475 102.243 243.434 101.812 242.349 101.812Z" fill="#F29254"/>
<path d="M125.14 106.174C124.61 106.175 124.095 106.004 123.671 105.687L123.644 105.667L118.109 101.436C117.853 101.24 117.638 100.996 117.476 100.717C117.314 100.437 117.209 100.129 117.167 99.8097C117.124 99.4901 117.145 99.1653 117.229 98.8538C117.312 98.5423 117.456 98.2503 117.653 97.9943C117.849 97.7384 118.094 97.5236 118.374 97.3622C118.653 97.2008 118.962 97.096 119.282 97.0537C119.602 97.0114 119.927 97.0324 120.239 97.1157C120.551 97.1989 120.844 97.3426 121.1 97.5387L124.686 100.283L133.158 89.2522C133.355 88.9964 133.6 88.7817 133.879 88.6204C134.159 88.4591 134.468 88.3543 134.788 88.3121C135.108 88.2699 135.433 88.2911 135.745 88.3745C136.057 88.4578 136.35 88.6017 136.606 88.7979L136.553 88.8693L136.607 88.7989C137.124 89.1955 137.463 89.7807 137.548 90.426C137.633 91.0713 137.459 91.724 137.063 92.241L127.097 105.216C126.866 105.515 126.57 105.757 126.231 105.923C125.891 106.089 125.518 106.175 125.14 106.174Z" fill="#F29254"/>
<path d="M125.086 177H0.32745C0.240605 177 0.157316 176.965 0.0959076 176.904C0.0344989 176.842 0 176.759 0 176.673C0 176.586 0.0344989 176.503 0.0959076 176.441C0.157316 176.38 0.240605 176.346 0.32745 176.346H125.086C125.173 176.346 125.256 176.38 125.317 176.441C125.379 176.503 125.413 176.586 125.413 176.673C125.413 176.759 125.379 176.842 125.317 176.904C125.256 176.965 125.173 177 125.086 177Z" fill="#AB4412"/>
<path d="M223.732 47.203C216.892 46.2637 209.945 46.4201 203.154 47.6662C196.382 48.9021 189.845 51.1838 183.778 54.4294C180.368 56.2585 177.131 58.3932 174.108 60.807C173.614 61.2009 174.314 61.8907 174.803 61.5005C180.107 57.2879 186.054 53.951 192.415 51.6164C198.727 49.2859 205.361 47.9423 212.084 47.633C215.887 47.4586 219.699 47.6312 223.471 48.1487C223.597 48.1787 223.729 48.16 223.841 48.0965C223.953 48.0329 224.037 47.9291 224.075 47.8062C224.109 47.6809 224.092 47.5472 224.028 47.4343C223.964 47.3214 223.858 47.2383 223.732 47.203Z" fill="white"/>
</g>
<defs>
<clipPath id="clip0_607_15264">
<rect width="262" height="177" fill="white"/>
</clipPath>
</defs>
</svg>
