<svg width="130" height="87" viewBox="0 0 130 87" fill="none" xmlns="http://www.w3.org/2000/svg">
<g clip-path="url(#clip0_607_14802)">
<path d="M106.705 52.0871C106.791 52.0614 106.879 52.0427 106.968 52.0309L110.518 44.8219L109.434 43.1981L111.673 41.2432L114.486 44.6843L108.756 53.0195C108.897 53.3347 108.938 53.6854 108.875 54.0248C108.812 54.3643 108.647 54.6764 108.401 54.9197C108.156 55.1631 107.843 55.3261 107.503 55.3871C107.163 55.448 106.812 55.4041 106.498 55.2611C106.183 55.1181 105.92 54.8828 105.742 54.5865C105.565 54.2902 105.482 53.9469 105.505 53.6024C105.527 53.2578 105.654 52.9283 105.869 52.6576C106.083 52.3869 106.375 52.1879 106.705 52.0871Z" fill="#A0616A"/>
<path d="M112.765 42.2396C112.717 42.2905 112.661 42.3342 112.6 42.3694L108.968 44.4737C108.881 44.5243 108.784 44.5562 108.684 44.5675C108.584 44.5787 108.482 44.5691 108.386 44.5391C108.289 44.5092 108.2 44.4595 108.124 44.3934C108.048 44.3273 107.986 44.246 107.943 44.1549L106.177 40.425C106.101 40.268 106.085 40.0893 106.131 39.9214C106.177 39.7535 106.281 39.6076 106.426 39.5104L108.677 37.9797C108.818 37.8842 108.987 37.8407 109.157 37.8568C109.326 37.8729 109.484 37.9475 109.604 38.0678L112.751 41.224C112.885 41.3583 112.961 41.5394 112.964 41.729C112.966 41.9185 112.895 42.1017 112.765 42.2396Z" fill="#CCCCCC"/>
<path d="M117.864 83.5477L115.947 84.0692L113.021 76.925L115.852 76.1553L117.864 83.5477Z" fill="#A0616A"/>
<path d="M114.428 83.8941L118.127 82.8885L118.76 85.2157L112.733 86.8546C112.65 86.549 112.628 86.23 112.668 85.9158C112.708 85.6016 112.81 85.2984 112.967 85.0235C113.125 84.7486 113.335 84.5074 113.585 84.3136C113.836 84.1198 114.122 83.9773 114.428 83.8941Z" fill="#2F2E41"/>
<path d="M101.471 85.01L99.4836 85.0098L98.5381 77.3486L101.471 77.3488L101.471 85.01Z" fill="#A0616A"/>
<path d="M98.0636 84.4424H101.896V86.8542H95.6504C95.6504 86.5375 95.7128 86.2239 95.8341 85.9312C95.9554 85.6386 96.1331 85.3728 96.3572 85.1488C96.5813 84.9248 96.8473 84.7472 97.1401 84.626C97.4329 84.5048 97.7467 84.4424 98.0636 84.4424Z" fill="#2F2E41"/>
<path d="M103.564 35.4359C105.763 35.4359 107.546 33.6543 107.546 31.4567C107.546 29.2591 105.763 27.4775 103.564 27.4775C101.366 27.4775 99.583 29.2591 99.583 31.4567C99.583 33.6543 101.366 35.4359 103.564 35.4359Z" fill="#A0616A"/>
<path d="M101.35 79.5479H98.634C98.4483 79.5475 98.2697 79.4767 98.1344 79.3496C97.9991 79.2226 97.9171 79.0489 97.9052 78.8637C97.0959 66.0063 97.5693 56.7834 99.3949 49.8389C99.4029 49.8085 99.4128 49.7787 99.4245 49.7495L99.5699 49.3861C99.6236 49.2505 99.717 49.1343 99.8378 49.0525C99.9587 48.9707 100.101 48.9273 100.247 48.9277H105.832C105.937 48.9277 106.041 48.9504 106.137 48.9943C106.233 49.0383 106.317 49.1024 106.386 49.1823L107.144 50.0669C107.159 50.0841 107.173 50.1017 107.186 50.1202C110.607 54.8875 113.672 64.2077 117.223 76.7351C117.275 76.9172 117.254 77.1125 117.165 77.2795C117.075 77.4464 116.924 77.5718 116.743 77.6289L113.824 78.5623C113.657 78.6151 113.476 78.6059 113.315 78.5366C113.153 78.4673 113.022 78.3423 112.945 78.1845L105.371 62.4845C105.318 62.3748 105.231 62.285 105.123 62.2285C105.015 62.172 104.892 62.1517 104.772 62.1707C104.651 62.1897 104.54 62.247 104.455 62.334C104.369 62.4211 104.314 62.5332 104.298 62.6539L102.073 78.9175C102.048 79.0919 101.962 79.2517 101.829 79.3674C101.696 79.4832 101.526 79.5473 101.35 79.5479Z" fill="#2F2E41"/>
<path d="M106.838 50.131C106.83 50.131 106.823 50.1309 106.815 50.1307L100.031 49.9166C99.8568 49.9118 99.69 49.8444 99.5612 49.7268C99.4323 49.6092 99.3501 49.4492 99.3295 49.276C98.4696 42.319 100.828 40.4553 101.882 39.977C101.97 39.9373 102.046 39.8755 102.103 39.7976C102.161 39.7198 102.197 39.6285 102.208 39.5326L102.299 38.8034C102.315 38.6746 102.365 38.5523 102.443 38.4493C104.096 36.3099 106.352 35.6248 107.55 35.407C107.647 35.3895 107.747 35.392 107.843 35.4142C107.939 35.4365 108.03 35.478 108.11 35.5364C108.189 35.5947 108.256 35.6686 108.306 35.7536C108.357 35.8385 108.389 35.9328 108.401 36.0307L108.538 37.0777C108.552 37.1776 108.592 37.2721 108.654 37.3518C112.1 41.8544 108.261 48.5025 107.456 49.7894C107.39 49.8939 107.299 49.9801 107.191 50.0398C107.083 50.0995 106.961 50.1309 106.838 50.131Z" fill="#CCCCCC"/>
<path d="M111.598 31.9052C110.71 30.6553 109.645 29.5409 108.436 28.5969C107.431 27.8125 106.313 27.1424 105.079 26.8218C103.845 26.5013 102.482 26.5558 101.357 27.1538C100.231 27.7518 99.0667 28.9399 99.0596 30.2141C99.0574 30.6235 99.1616 31.1773 99.5649 31.1065L99.6816 31.1219C100.655 30.9255 101.628 30.7291 102.601 30.5327C103.015 31.97 103.429 33.4074 103.844 34.8447C103.931 35.1477 104.048 35.4864 104.336 35.6156C104.607 35.7373 104.92 35.6226 105.195 35.5082C105.24 35.4894 105.627 34.6202 105.627 34.6202C105.637 34.593 105.654 34.5689 105.676 34.5504C105.698 34.5319 105.725 34.5196 105.753 34.5148C105.781 34.5101 105.811 34.513 105.838 34.5233C105.865 34.5336 105.888 34.5509 105.906 34.5734L106.137 34.8609C106.181 34.9159 106.241 34.955 106.309 34.9724C106.378 34.9899 106.45 34.9846 106.515 34.9575C108.101 34.2955 109.688 33.6335 111.275 32.9715C111.494 32.88 111.739 32.7605 111.803 32.5317C111.864 32.3124 111.73 32.0907 111.598 31.9052Z" fill="#2F2E41"/>
<path d="M129.838 86.9998H81.0449C81.0019 86.9998 80.9607 86.9827 80.9303 86.9523C80.8999 86.922 80.8828 86.8808 80.8828 86.8378C80.8828 86.7948 80.8999 86.7536 80.9303 86.7232C80.9607 86.6929 81.0019 86.6758 81.0449 86.6758H129.838C129.881 86.6758 129.923 86.6929 129.953 86.7232C129.983 86.7536 130 86.7948 130 86.8378C130 86.8808 129.983 86.922 129.953 86.9523C129.923 86.9827 129.881 86.9998 129.838 86.9998Z" fill="#3F3D56"/>
<path d="M103.386 61.7529C103.275 61.7525 103.168 61.717 103.079 61.6516L102.341 61.1158C102.28 61.0711 102.206 61.047 102.131 61.047C102.055 61.047 101.981 61.0711 101.92 61.1158L101.182 61.6516C101.093 61.7162 100.986 61.751 100.876 61.751C100.766 61.751 100.658 61.7162 100.569 61.6516C100.48 61.587 100.414 61.4959 100.38 61.3913C100.346 61.2868 100.346 61.1741 100.38 61.0696L100.662 60.2026C100.686 60.1306 100.686 60.053 100.662 59.9809C100.639 59.9089 100.593 59.8461 100.532 59.8017L99.7938 59.2659C99.7048 59.2012 99.6386 59.1101 99.6046 59.0056C99.5706 58.901 99.5706 58.7884 99.6046 58.6838C99.6386 58.5792 99.7048 58.4881 99.7938 58.4235C99.8828 58.3589 99.99 58.3241 100.1 58.3241H101.012C101.088 58.3242 101.162 58.3003 101.223 58.2558C101.284 58.2112 101.33 58.1484 101.353 58.0763L101.635 57.2094C101.669 57.1048 101.735 57.0137 101.824 56.949C101.913 56.8844 102.021 56.8496 102.131 56.8496C102.241 56.8496 102.348 56.8844 102.437 56.949C102.526 57.0137 102.592 57.1048 102.626 57.2094L102.908 58.0763C102.931 58.1484 102.977 58.2112 103.038 58.2558C103.099 58.3003 103.173 58.3242 103.249 58.3241H104.161C104.271 58.3241 104.378 58.3589 104.467 58.4235C104.556 58.4881 104.623 58.5792 104.657 58.6838C104.691 58.7884 104.691 58.901 104.657 59.0056C104.623 59.1101 104.556 59.2012 104.467 59.2659L103.729 59.8016C103.668 59.8461 103.622 59.9088 103.599 59.9809C103.575 60.053 103.576 60.1306 103.599 60.2026L103.881 61.0696C103.916 61.174 103.917 61.287 103.883 61.3919C103.849 61.4967 103.782 61.5878 103.692 61.6516C103.603 61.717 103.496 61.7525 103.386 61.7529Z" fill="#F29254"/>
<path d="M106.205 60.0196C106.413 59.8735 106.587 59.6835 106.714 59.4629C106.841 59.2424 106.918 58.9968 106.94 58.7433C106.962 58.4897 106.928 58.2346 106.84 57.9957C106.752 57.7568 106.613 57.54 106.433 57.3606L107.693 42.1523L103.941 42.6682L103.87 57.4443C103.588 57.7674 103.435 58.1824 103.44 58.6108C103.444 59.0392 103.605 59.4511 103.893 59.7685C104.181 60.0859 104.575 60.2868 105.001 60.3331C105.427 60.3794 105.856 60.2678 106.205 60.0196Z" fill="#A0616A"/>
<path d="M107.939 44.3428C107.868 44.3428 107.798 44.3327 107.731 44.3127L103.703 43.1288C103.607 43.1004 103.517 43.0522 103.439 42.9872C103.362 42.9223 103.299 42.8421 103.255 42.7516C103.21 42.6611 103.185 42.5624 103.18 42.4616C103.176 42.3609 103.192 42.2603 103.229 42.1662L104.719 38.3178C104.782 38.1553 104.9 38.0205 105.053 37.9381C105.207 37.8557 105.385 37.8311 105.555 37.8688L108.216 38.447C108.382 38.4831 108.53 38.5761 108.635 38.7098C108.74 38.8435 108.794 39.0097 108.79 39.1795L108.666 43.6335C108.661 43.823 108.582 44.003 108.446 44.1354C108.31 44.2678 108.128 44.3422 107.939 44.3428Z" fill="#CCCCCC"/>
<path d="M70.0291 63.3465H1.13473C0.833885 63.3462 0.545457 63.2266 0.332727 63.014C0.119997 62.8014 0.000337667 62.5131 0 62.2124V41.637C0.000337667 41.3363 0.119997 41.0481 0.332727 40.8355C0.545457 40.6229 0.833885 40.5033 1.13473 40.5029H70.0291C70.3299 40.5033 70.6184 40.6229 70.8311 40.8355C71.0438 41.0481 71.1635 41.3363 71.1638 41.637V62.2124C71.1635 62.5131 71.0438 62.8014 70.8311 63.014C70.6184 63.2266 70.3299 63.3462 70.0291 63.3465ZM1.13473 40.827C0.919843 40.8272 0.71383 40.9126 0.561881 41.0645C0.409933 41.2163 0.324457 41.4222 0.324209 41.637V62.2124C0.324457 62.4272 0.409933 62.6331 0.561881 62.7849C0.71383 62.9368 0.919843 63.0222 1.13473 63.0225H70.0291C70.244 63.0222 70.45 62.9368 70.6019 62.785C70.7539 62.6331 70.8394 62.4272 70.8396 62.2124V41.637C70.8394 41.4222 70.7539 41.2163 70.6019 41.0645C70.45 40.9126 70.244 40.8272 70.0291 40.827H1.13473Z" fill="#3F3D56"/>
<path d="M31.2823 72.0097C31.1472 72.0092 31.0158 71.9657 30.9072 71.8856L30.0032 71.2292C29.9282 71.1745 29.8377 71.145 29.7449 71.145C29.652 71.145 29.5615 71.1745 29.4865 71.2292L28.5825 71.8856C28.4735 71.9647 28.3422 72.0074 28.2075 72.0074C28.0727 72.0074 27.9414 71.9647 27.8324 71.8856C27.7234 71.8064 27.6422 71.6948 27.6006 71.5667C27.5589 71.4387 27.5589 71.3007 27.6005 71.1726L27.9458 70.1106C27.9747 70.0223 27.9748 69.9272 27.9461 69.8389C27.9174 69.7507 27.8614 69.6738 27.7862 69.6193L26.8822 68.9629C26.7732 68.8838 26.692 68.7722 26.6504 68.6441C26.6087 68.516 26.6087 68.378 26.6504 68.2499C26.692 68.1218 26.7732 68.0102 26.8822 67.931C26.9912 67.8519 27.1225 67.8092 27.2573 67.8092H28.3746C28.4675 67.8094 28.558 67.7801 28.6331 67.7256C28.7083 67.671 28.7641 67.594 28.7927 67.5057L29.1379 66.4437C29.1795 66.3156 29.2607 66.2039 29.3697 66.1248C29.4788 66.0456 29.6101 66.0029 29.7448 66.0029C29.8796 66.0029 30.0109 66.0456 30.12 66.1248C30.229 66.2039 30.3101 66.3156 30.3518 66.4437L30.697 67.5057C30.7256 67.594 30.7814 67.671 30.8565 67.7256C30.9317 67.7801 31.0222 67.8094 31.115 67.8092H32.2324C32.3672 67.8092 32.4985 67.8519 32.6075 67.931C32.7165 68.0102 32.7977 68.1218 32.8393 68.2499C32.8809 68.378 32.8809 68.516 32.8393 68.6441C32.7977 68.7722 32.7165 68.8838 32.6075 68.9629L31.7035 69.6193C31.6283 69.6738 31.5723 69.7507 31.5436 69.8389C31.5149 69.9272 31.515 70.0223 31.5439 70.1106L31.8892 71.1726C31.9323 71.3006 31.9331 71.439 31.8913 71.5674C31.8496 71.6959 31.7675 71.8074 31.6573 71.8856C31.5487 71.9657 31.4173 72.0092 31.2823 72.0097Z" fill="#F29254"/>
<path d="M40.4424 72.0097C40.3073 72.0092 40.1759 71.9657 40.0673 71.8856L39.1633 71.2292C39.0883 71.1745 38.9978 71.145 38.905 71.145C38.8121 71.145 38.7216 71.1745 38.6466 71.2292L37.7427 71.8856C37.6336 71.9647 37.5023 72.0074 37.3676 72.0074C37.2328 72.0074 37.1015 71.9647 36.9925 71.8856C36.8835 71.8064 36.8023 71.6948 36.7607 71.5667C36.719 71.4387 36.719 71.3007 36.7606 71.1726L37.1059 70.1106C37.1348 70.0223 37.1349 69.9272 37.1062 69.8389C37.0775 69.7507 37.0215 69.6738 36.9463 69.6193L36.0423 68.9629C35.9333 68.8838 35.8522 68.7722 35.8105 68.6441C35.7689 68.516 35.7689 68.378 35.8105 68.2499C35.8522 68.1218 35.9333 68.0102 36.0423 67.931C36.1514 67.8519 36.2827 67.8092 36.4174 67.8092H37.5348C37.6276 67.8094 37.7181 67.7801 37.7933 67.7256C37.8684 67.671 37.9242 67.594 37.9528 67.5057L38.2981 66.4437C38.3397 66.3156 38.4208 66.2039 38.5299 66.1248C38.6389 66.0456 38.7702 66.0029 38.905 66.0029C39.0397 66.0029 39.1711 66.0456 39.2801 66.1248C39.3891 66.2039 39.4703 66.3156 39.5119 66.4437L39.8571 67.5057C39.8857 67.594 39.9415 67.671 40.0167 67.7256C40.0918 67.7801 40.1823 67.8094 40.2752 67.8092H41.3925C41.5273 67.8092 41.6586 67.8519 41.7676 67.931C41.8766 68.0102 41.9578 68.1218 41.9994 68.2499C42.0411 68.378 42.0411 68.516 41.9994 68.6441C41.9578 68.7722 41.8767 68.8838 41.7676 68.9629L40.8637 69.6193C40.7884 69.6737 40.7324 69.7506 40.7037 69.8389C40.675 69.9272 40.6751 70.0223 40.704 70.1106L41.0493 71.1726C41.0924 71.3006 41.0932 71.439 41.0514 71.5674C41.0097 71.6959 40.9276 71.8074 40.8174 71.8856C40.7088 71.9657 40.5774 72.0092 40.4424 72.0097Z" fill="#F29254"/>
<path d="M49.6025 72.0097C49.4675 72.0092 49.3361 71.9657 49.2275 71.8856L48.3235 71.2292C48.2484 71.1746 48.158 71.1452 48.0651 71.1452C47.9723 71.1452 47.8818 71.1746 47.8068 71.2292L46.9028 71.8856C46.7938 71.9647 46.6625 72.0074 46.5277 72.0074C46.393 72.0074 46.2617 71.9648 46.1527 71.8856C46.0437 71.8064 45.9625 71.6948 45.9209 71.5667C45.8792 71.4387 45.8792 71.3007 45.9208 71.1726L46.2661 70.1106C46.2949 70.0223 46.295 69.9272 46.2664 69.8389C46.2377 69.7507 46.1817 69.6738 46.1064 69.6193L45.2025 68.9629C45.0935 68.8838 45.0123 68.7722 44.9707 68.6441C44.929 68.516 44.929 68.378 44.9707 68.2499C45.0123 68.1218 45.0935 68.0102 45.2025 67.931C45.3115 67.8519 45.4428 67.8092 45.5776 67.8092H46.6949C46.7878 67.8094 46.8783 67.7801 46.9534 67.7256C47.0285 67.671 47.0844 67.594 47.1129 67.5057L47.4582 66.4437C47.4999 66.3156 47.581 66.2039 47.69 66.1248C47.7991 66.0456 47.9304 66.0029 48.0651 66.0029C48.1999 66.0029 48.3312 66.0456 48.4402 66.1248C48.5493 66.2039 48.6304 66.3156 48.672 66.4437L49.0173 67.5057C49.0459 67.594 49.1017 67.671 49.1769 67.7256C49.252 67.7801 49.3425 67.8094 49.4354 67.8092H50.5527C50.6875 67.8092 50.8187 67.8519 50.9278 67.931C51.0368 68.0102 51.1179 68.1218 51.1596 68.2499C51.2012 68.378 51.2012 68.516 51.1596 68.6441C51.118 68.7722 51.0368 68.8838 50.9278 68.9629L50.0238 69.6193C49.9486 69.6738 49.8926 69.7507 49.8639 69.8389C49.8352 69.9272 49.8353 70.0223 49.8642 70.1106L50.2094 71.1726C50.2526 71.3005 50.2534 71.439 50.2116 71.5674C50.1699 71.6958 50.0878 71.8074 49.9776 71.8856C49.869 71.9657 49.7376 72.0092 49.6025 72.0097Z" fill="#F29254"/>
<path d="M58.7627 72.0097C58.6277 72.0092 58.4963 71.9657 58.3876 71.8856L57.4837 71.2292C57.4087 71.1744 57.3182 71.1449 57.2253 71.1449C57.1325 71.1449 57.042 71.1744 56.967 71.2292L56.063 71.8856C55.954 71.9647 55.8227 72.0074 55.688 72.0074C55.5532 72.0074 55.4219 71.9647 55.3129 71.8856C55.2038 71.8064 55.1227 71.6948 55.081 71.5667C55.0394 71.4387 55.0394 71.3007 55.081 71.1726L55.4263 70.1106C55.4552 70.0223 55.4553 69.9272 55.4266 69.839C55.3979 69.7507 55.3418 69.6738 55.2666 69.6194L54.3626 68.9629C54.2536 68.8838 54.1725 68.7721 54.1308 68.6441C54.0892 68.516 54.0892 68.378 54.1308 68.2499C54.1725 68.1218 54.2536 68.0102 54.3627 67.931C54.4717 67.8519 54.603 67.8092 54.7377 67.8092H55.8551C55.9479 67.8094 56.0385 67.7801 56.1136 67.7256C56.1887 67.671 56.2446 67.594 56.2731 67.5057L56.6184 66.4437C56.66 66.3156 56.7412 66.2039 56.8502 66.1247C56.9592 66.0456 57.0905 66.0029 57.2253 66.0029C57.3601 66.0029 57.4914 66.0456 57.6004 66.1247C57.7094 66.2039 57.7906 66.3156 57.8322 66.4437L58.1775 67.5057C58.206 67.594 58.2619 67.671 58.337 67.7256C58.4121 67.7801 58.5027 67.8094 58.5955 67.8092H59.7129C59.8476 67.8092 59.9789 67.8519 60.0879 67.931C60.1969 68.0102 60.2781 68.1218 60.3197 68.2499C60.3614 68.378 60.3614 68.516 60.3197 68.6441C60.2781 68.7721 60.197 68.8838 60.088 68.9629L59.184 69.6193C59.1088 69.6738 59.0528 69.7507 59.0241 69.8389C58.9954 69.9272 58.9955 70.0223 59.0243 70.1106L59.3696 71.1726C59.4128 71.3005 59.4136 71.439 59.3718 71.5674C59.33 71.6958 59.248 71.8074 59.1378 71.8856C59.0291 71.9657 58.8978 72.0091 58.7627 72.0097Z" fill="#F29254"/>
<path d="M64.8484 72.0729C64.7001 72.0723 64.5558 72.0246 64.4364 71.9367C64.3154 71.8508 64.2253 71.7282 64.1794 71.5871C64.1335 71.446 64.1343 71.2939 64.1817 71.1533L64.5271 70.0913C64.5518 70.0157 64.5519 69.9342 64.5273 69.8586C64.5027 69.7829 64.4547 69.717 64.3902 69.6704L63.4862 69.014C63.3665 68.927 63.2773 68.8044 63.2316 68.6637C63.1858 68.523 63.1858 68.3714 63.2316 68.2307C63.2773 68.09 63.3665 67.9674 63.4862 67.8805C63.606 67.7935 63.7502 67.7467 63.8983 67.7467H65.0156C65.0952 67.7468 65.1728 67.7217 65.2372 67.675C65.3016 67.6282 65.3494 67.5622 65.3739 67.4865L65.7192 66.4245C65.7649 66.2838 65.8541 66.1612 65.9738 66.0742C66.0936 65.9873 66.2378 65.9404 66.3858 65.9404C66.5339 65.9404 66.6781 65.9873 66.7978 66.0742C66.9176 66.1612 67.0067 66.2838 67.0525 66.4245L67.3978 67.4865C67.4222 67.5622 67.4701 67.6282 67.5345 67.675C67.5988 67.7217 67.6764 67.7468 67.756 67.7467H68.8734C69.0214 67.7467 69.1656 67.7935 69.2854 67.8805C69.4051 67.9674 69.4943 68.09 69.54 68.2307C69.5858 68.3714 69.5858 68.523 69.54 68.6637C69.4943 68.8044 69.4052 68.927 69.2854 69.014L68.3815 69.6704C68.317 69.717 68.2689 69.7829 68.2443 69.8586C68.2197 69.9342 68.2198 70.0157 68.2446 70.0913L68.5899 71.1533C68.6356 71.294 68.6356 71.4456 68.5898 71.5863C68.5441 71.727 68.455 71.8496 68.3352 71.9366C68.2154 72.0235 68.0712 72.0704 67.9232 72.0704C67.7752 72.0704 67.6309 72.0235 67.5112 71.9366L66.6072 71.2802C66.5429 71.2333 66.4654 71.2081 66.3858 71.2081C66.3062 71.2081 66.2287 71.2333 66.1644 71.2802L65.2604 71.9366C65.141 72.0246 64.9967 72.0723 64.8484 72.0729ZM66.3858 70.8839C66.5339 70.8839 66.6781 70.9309 66.7978 71.0181L67.7017 71.6744C67.7661 71.7212 67.8436 71.7464 67.9232 71.7464C68.0027 71.7464 68.0803 71.7212 68.1446 71.6745C68.209 71.6278 68.2569 71.5619 68.2815 71.4862C68.3061 71.4106 68.3061 71.3291 68.2815 71.2535L67.9362 70.1915C67.8902 70.0508 67.8901 69.8992 67.9358 69.7584C67.9816 69.6176 68.0709 69.495 68.1909 69.4083L69.0948 68.7518C69.1592 68.7051 69.2071 68.6392 69.2316 68.5636C69.2562 68.488 69.2562 68.4065 69.2316 68.3309C69.2071 68.2553 69.1592 68.1894 69.0948 68.1426C69.0304 68.0959 68.9529 68.0707 68.8734 68.0707H67.756C67.6079 68.071 67.4636 68.0243 67.3438 67.9373C67.224 67.8503 67.1349 67.7275 67.0894 67.5867L66.7441 66.5246C66.7195 66.449 66.6716 66.3831 66.6072 66.3364C66.5429 66.2896 66.4654 66.2644 66.3858 66.2644C66.3062 66.2644 66.2287 66.2896 66.1643 66.3364C66.1 66.3831 66.0521 66.449 66.0275 66.5246L65.6822 67.5867C65.6367 67.7275 65.5476 67.8503 65.4278 67.9373C65.308 68.0243 65.1637 68.071 65.0156 68.0707H63.8982C63.8187 68.0707 63.7412 68.0959 63.6768 68.1426C63.6124 68.1893 63.5645 68.2552 63.5399 68.3309C63.5153 68.4065 63.5153 68.4879 63.5399 68.5636C63.5645 68.6392 63.6124 68.7051 63.6768 68.7518L64.5808 69.4083C64.7007 69.495 64.79 69.6176 64.8358 69.7584C64.8815 69.8992 64.8814 70.0508 64.8354 70.1915L64.4901 71.2535C64.4655 71.3291 64.4655 71.4106 64.4901 71.4862C64.5147 71.5618 64.5626 71.6277 64.6269 71.6745C64.6913 71.7212 64.7688 71.7464 64.8484 71.7464C64.9279 71.7463 65.0055 71.7212 65.0698 71.6744L65.9738 71.0181C66.0935 70.9309 66.2377 70.8839 66.3858 70.8839Z" fill="#3F3D56"/>
<path d="M8.91598 45.3633C8.63653 45.3633 8.36852 45.4742 8.17092 45.6717C7.97331 45.8692 7.8623 46.1371 7.8623 46.4164C7.8623 46.6956 7.97331 46.9635 8.17092 47.161C8.36852 47.3585 8.63653 47.4694 8.91598 47.4694H62.2483C62.5278 47.4694 62.7958 47.3585 62.9934 47.161C63.191 46.9635 63.302 46.6956 63.302 46.4164C63.302 46.1371 63.191 45.8692 62.9934 45.6717C62.7958 45.4742 62.5278 45.3633 62.2483 45.3633H8.91598Z" fill="#CCCCCC"/>
<path d="M8.91598 50.8711C8.63653 50.8711 8.36852 50.982 8.17092 51.1795C7.97331 51.377 7.8623 51.6449 7.8623 51.9242C7.8623 52.2035 7.97331 52.4713 8.17092 52.6688C8.36852 52.8663 8.63653 52.9772 8.91598 52.9772H62.2483C62.5278 52.9772 62.7958 52.8663 62.9934 52.6688C63.191 52.4713 63.302 52.2035 63.302 51.9242C63.302 51.6449 63.191 51.377 62.9934 51.1795C62.7958 50.982 62.5278 50.8711 62.2483 50.8711H8.91598Z" fill="#CCCCCC"/>
<path d="M8.91598 56.3799C8.63653 56.3799 8.36852 56.4908 8.17092 56.6883C7.97331 56.8858 7.8623 57.1537 7.8623 57.433C7.8623 57.7122 7.97331 57.9801 8.17092 58.1776C8.36852 58.3751 8.63653 58.486 8.91598 58.486H62.2483C62.5278 58.486 62.7958 58.3751 62.9934 58.1776C63.191 57.9801 63.302 57.7122 63.302 57.433C63.302 57.1537 63.191 56.8858 62.9934 56.6883C62.7958 56.4908 62.5278 56.3799 62.2483 56.3799H8.91598Z" fill="#CCCCCC"/>
<path d="M8.91598 45.3633C8.63653 45.3633 8.36852 45.4742 8.17092 45.6717C7.97331 45.8692 7.8623 46.1371 7.8623 46.4164C7.8623 46.6956 7.97331 46.9635 8.17092 47.161C8.36852 47.3585 8.63653 47.4694 8.91598 47.4694H62.2483C62.5278 47.4694 62.7958 47.3585 62.9934 47.161C63.191 46.9635 63.302 46.6956 63.302 46.4164C63.302 46.1371 63.191 45.8692 62.9934 45.6717C62.7958 45.4742 62.5278 45.3633 62.2483 45.3633H8.91598Z" fill="#CCCCCC"/>
<path d="M8.91598 50.8711C8.63653 50.8711 8.36852 50.982 8.17092 51.1795C7.97331 51.377 7.8623 51.6449 7.8623 51.9242C7.8623 52.2035 7.97331 52.4713 8.17092 52.6688C8.36852 52.8663 8.63653 52.9772 8.91598 52.9772H62.2483C62.5278 52.9772 62.7958 52.8663 62.9934 52.6688C63.191 52.4713 63.302 52.2035 63.302 51.9242C63.302 51.6449 63.191 51.377 62.9934 51.1795C62.7958 50.982 62.5278 50.8711 62.2483 50.8711H8.91598Z" fill="#CCCCCC"/>
<path d="M8.91598 56.3799C8.63653 56.3799 8.36852 56.4908 8.17092 56.6883C7.97331 56.8858 7.8623 57.1537 7.8623 57.433C7.8623 57.7122 7.97331 57.9801 8.17092 58.1776C8.36852 58.3751 8.63653 58.486 8.91598 58.486H62.2483C62.5278 58.486 62.7958 58.3751 62.9934 58.1776C63.191 57.9801 63.302 57.7122 63.302 57.433C63.302 57.1537 63.191 56.8858 62.9934 56.6883C62.7958 56.4908 62.5278 56.3799 62.2483 56.3799H8.91598Z" fill="#CCCCCC"/>
<path d="M70.0291 22.8436H1.13473C0.833885 22.8432 0.545457 22.7236 0.332727 22.511C0.119997 22.2984 0.000337667 22.0102 0 21.7095V1.13408C0.000337667 0.833405 0.119997 0.545144 0.332727 0.332536C0.545457 0.119928 0.833885 0.000337473 1.13473 0H70.0291C70.3299 0.000337045 70.6184 0.119928 70.8311 0.332536C71.0438 0.545144 71.1635 0.833405 71.1638 1.13408V21.7095C71.1635 22.0102 71.0438 22.2984 70.8311 22.511C70.6184 22.7236 70.3299 22.8432 70.0291 22.8436ZM1.13473 0.324022C0.919843 0.324271 0.71383 0.409695 0.561881 0.561556C0.409933 0.713417 0.324457 0.919314 0.324209 1.13408V21.7095C0.324457 21.9243 0.409933 22.1302 0.561881 22.282C0.71383 22.4339 0.919843 22.5193 1.13473 22.5196H70.0291C70.244 22.5193 70.45 22.4339 70.6019 22.282C70.7539 22.1302 70.8394 21.9243 70.8396 21.7095V1.13408C70.8394 0.919313 70.7539 0.713415 70.6019 0.561553C70.45 0.409692 70.244 0.324268 70.0291 0.324022H1.13473Z" fill="#3F3D56"/>
<path d="M31.2823 31.5068C31.1472 31.5062 31.0158 31.4628 30.9072 31.3826L30.0032 30.7263C29.9282 30.6715 29.8377 30.642 29.7449 30.642C29.652 30.642 29.5615 30.6715 29.4865 30.7263L28.5825 31.3826C28.4735 31.4618 28.3422 31.5044 28.2075 31.5044C28.0727 31.5044 27.9414 31.4618 27.8324 31.3827C27.7234 31.3035 27.6422 31.1919 27.6006 31.0638C27.5589 30.9357 27.5589 30.7978 27.6005 30.6697L27.9458 29.6076C27.9747 29.5194 27.9748 29.4243 27.9461 29.336C27.9174 29.2477 27.8614 29.1708 27.7862 29.1164L26.8822 28.46C26.7732 28.3809 26.692 28.2692 26.6504 28.1411C26.6087 28.0131 26.6087 27.8751 26.6504 27.747C26.692 27.6189 26.7732 27.5073 26.8822 27.4281C26.9912 27.3489 27.1225 27.3063 27.2573 27.3063H28.3746C28.4675 27.3065 28.558 27.2772 28.6331 27.2226C28.7083 27.1681 28.7641 27.0911 28.7927 27.0028L29.1379 25.9407C29.1795 25.8126 29.2607 25.701 29.3697 25.6218C29.4788 25.5426 29.6101 25.5 29.7448 25.5C29.8796 25.5 30.0109 25.5426 30.12 25.6218C30.229 25.701 30.3101 25.8126 30.3518 25.9407L30.697 27.0028C30.7256 27.0911 30.7814 27.1681 30.8565 27.2226C30.9317 27.2772 31.0222 27.3065 31.115 27.3063H32.2324C32.3672 27.3063 32.4985 27.3489 32.6075 27.4281C32.7165 27.5073 32.7977 27.6189 32.8393 27.747C32.8809 27.8751 32.8809 28.0131 32.8393 28.1411C32.7977 28.2692 32.7165 28.3809 32.6075 28.46L31.7035 29.1164C31.6283 29.1708 31.5723 29.2477 31.5436 29.336C31.5149 29.4243 31.515 29.5194 31.5439 29.6076L31.8892 30.6697C31.9323 30.7976 31.9331 30.9361 31.8913 31.0645C31.8496 31.1929 31.7675 31.3045 31.6573 31.3826C31.5487 31.4628 31.4173 31.5062 31.2823 31.5068Z" fill="#F29254"/>
<path d="M40.4424 31.5068C40.3073 31.5062 40.1759 31.4628 40.0673 31.3826L39.1633 30.7263C39.0883 30.6715 38.9978 30.642 38.905 30.642C38.8121 30.642 38.7216 30.6715 38.6466 30.7263L37.7427 31.3826C37.6336 31.4618 37.5023 31.5044 37.3676 31.5044C37.2328 31.5045 37.1015 31.4618 36.9925 31.3827C36.8835 31.3035 36.8023 31.1919 36.7607 31.0638C36.719 30.9357 36.719 30.7978 36.7606 30.6697L37.1059 29.6076C37.1348 29.5194 37.1349 29.4243 37.1062 29.336C37.0775 29.2477 37.0215 29.1708 36.9463 29.1164L36.0423 28.46C35.9333 28.3809 35.8522 28.2692 35.8105 28.1411C35.7689 28.013 35.7689 27.8751 35.8105 27.747C35.8522 27.6189 35.9333 27.5073 36.0423 27.4281C36.1514 27.3489 36.2827 27.3063 36.4174 27.3063H37.5348C37.6276 27.3065 37.7181 27.2772 37.7933 27.2226C37.8684 27.1681 37.9242 27.0911 37.9528 27.0028L38.2981 25.9407C38.3397 25.8126 38.4208 25.701 38.5299 25.6218C38.6389 25.5426 38.7702 25.5 38.905 25.5C39.0397 25.5 39.1711 25.5426 39.2801 25.6218C39.3891 25.701 39.4703 25.8126 39.5119 25.9407L39.8571 27.0028C39.8857 27.0911 39.9415 27.1681 40.0167 27.2226C40.0918 27.2772 40.1823 27.3065 40.2752 27.3063H41.3925C41.5273 27.3063 41.6586 27.3489 41.7676 27.4281C41.8766 27.5073 41.9578 27.6189 41.9994 27.747C42.0411 27.8751 42.0411 28.013 41.9994 28.1411C41.9578 28.2692 41.8767 28.3809 41.7676 28.46L40.8637 29.1164C40.7884 29.1708 40.7324 29.2477 40.7037 29.336C40.675 29.4243 40.6751 29.5194 40.704 29.6076L41.0493 30.6697C41.0924 30.7976 41.0932 30.9361 41.0514 31.0645C41.0097 31.1929 40.9276 31.3045 40.8174 31.3826C40.7088 31.4627 40.5774 31.5062 40.4424 31.5068Z" fill="#F29254"/>
<path d="M49.6025 31.5068C49.4675 31.5062 49.3361 31.4628 49.2275 31.3826L48.3235 30.7263C48.2484 30.6717 48.158 30.6422 48.0651 30.6422C47.9723 30.6422 47.8818 30.6717 47.8068 30.7263L46.9028 31.3826C46.7938 31.4618 46.6625 31.5044 46.5277 31.5044C46.393 31.5045 46.2617 31.4618 46.1527 31.3827C46.0437 31.3035 45.9625 31.1919 45.9209 31.0638C45.8792 30.9357 45.8792 30.7978 45.9208 30.6697L46.2661 29.6076C46.2949 29.5194 46.295 29.4243 46.2664 29.336C46.2377 29.2477 46.1817 29.1708 46.1064 29.1164L45.2025 28.46C45.0935 28.3809 45.0123 28.2692 44.9707 28.1411C44.929 28.013 44.929 27.8751 44.9707 27.747C45.0123 27.6189 45.0935 27.5073 45.2025 27.4281C45.3115 27.3489 45.4428 27.3063 45.5776 27.3063H46.6949C46.7878 27.3065 46.8783 27.2772 46.9534 27.2226C47.0285 27.1681 47.0844 27.0911 47.1129 27.0028L47.4582 25.9407C47.4999 25.8126 47.581 25.701 47.69 25.6218C47.7991 25.5426 47.9304 25.5 48.0651 25.5C48.1999 25.5 48.3312 25.5426 48.4402 25.6218C48.5493 25.701 48.6304 25.8126 48.672 25.9407L49.0173 27.0028C49.0459 27.0911 49.1017 27.1681 49.1769 27.2226C49.252 27.2772 49.3425 27.3065 49.4354 27.3063H50.5527C50.6875 27.3063 50.8187 27.3489 50.9278 27.4281C51.0368 27.5073 51.1179 27.6189 51.1596 27.747C51.2012 27.8751 51.2012 28.013 51.1596 28.1411C51.118 28.2692 51.0368 28.3809 50.9278 28.46L50.0238 29.1164C49.9486 29.1708 49.8926 29.2477 49.8639 29.336C49.8352 29.4243 49.8353 29.5194 49.8642 29.6076L50.2094 30.6697C50.2526 30.7976 50.2534 30.9361 50.2116 31.0645C50.1699 31.1929 50.0878 31.3045 49.9776 31.3826C49.869 31.4628 49.7376 31.5062 49.6025 31.5068Z" fill="#F29254"/>
<path d="M64.8484 31.57C64.7001 31.5694 64.5558 31.5217 64.4364 31.4337C64.3154 31.3479 64.2253 31.2253 64.1794 31.0842C64.1335 30.9431 64.1343 30.791 64.1817 30.6504L64.5271 29.5884C64.5518 29.5128 64.5519 29.4313 64.5273 29.3557C64.5027 29.28 64.4547 29.2141 64.3902 29.1675L63.4862 28.5111C63.3665 28.4241 63.2773 28.3015 63.2316 28.1608C63.1858 28.0201 63.1858 27.8685 63.2316 27.7278C63.2773 27.5871 63.3665 27.4645 63.4862 27.3775C63.606 27.2906 63.7502 27.2438 63.8983 27.2438H65.0156C65.0952 27.2439 65.1728 27.2188 65.2372 27.172C65.3016 27.1253 65.3494 27.0593 65.3739 26.9836L65.7192 25.9216C65.7649 25.7809 65.8541 25.6582 65.9738 25.5713C66.0936 25.4843 66.2378 25.4375 66.3858 25.4375C66.5339 25.4375 66.6781 25.4843 66.7978 25.5713C66.9176 25.6582 67.0067 25.7809 67.0525 25.9216L67.3978 26.9836C67.4222 27.0593 67.4701 27.1253 67.5345 27.172C67.5988 27.2188 67.6764 27.2439 67.756 27.2438H68.8734C69.0214 27.2438 69.1656 27.2906 69.2854 27.3776C69.4051 27.4645 69.4943 27.5871 69.54 27.7278C69.5858 27.8685 69.5858 28.0201 69.54 28.1608C69.4943 28.3015 69.4052 28.4241 69.2854 28.5111L68.3815 29.1675C68.317 29.2141 68.2689 29.28 68.2443 29.3556C68.2197 29.4313 68.2198 29.5128 68.2446 29.5884L68.5899 30.6504C68.6356 30.7911 68.6356 30.9427 68.5898 31.0834C68.5441 31.2241 68.455 31.3467 68.3352 31.4337C68.2154 31.5206 68.0712 31.5674 67.9232 31.5674C67.7752 31.5674 67.6309 31.5206 67.5112 31.4337L66.6072 30.7773C66.5429 30.7304 66.4654 30.7052 66.3858 30.7052C66.3062 30.7052 66.2287 30.7304 66.1644 30.7773L65.2604 31.4337C65.141 31.5217 64.9967 31.5694 64.8484 31.57ZM66.3858 30.381C66.5339 30.381 66.6781 30.428 66.7978 30.5152L67.7017 31.1715C67.7661 31.2183 67.8436 31.2435 67.9232 31.2435C68.0027 31.2435 68.0803 31.2183 68.1446 31.1716C68.209 31.1248 68.2569 31.0589 68.2815 30.9833C68.3061 30.9077 68.3061 30.8262 68.2815 30.7506L67.9362 29.6886C67.8902 29.5479 67.8901 29.3962 67.9358 29.2555C67.9816 29.1147 68.0709 28.9921 68.1909 28.9053L69.0948 28.2489C69.1592 28.2022 69.2071 28.1363 69.2316 28.0606C69.2562 27.985 69.2562 27.9036 69.2316 27.828C69.2071 27.7523 69.1592 27.6864 69.0948 27.6397C69.0304 27.593 68.9529 27.5678 68.8734 27.5678H67.756C67.6079 27.5681 67.4636 27.5213 67.3438 27.4343C67.224 27.3473 67.1349 27.2246 67.0894 27.0837L66.7441 26.0217C66.7195 25.9461 66.6716 25.8802 66.6072 25.8334C66.5429 25.7867 66.4654 25.7615 66.3858 25.7615C66.3062 25.7615 66.2287 25.7867 66.1643 25.8334C66.1 25.8802 66.0521 25.9461 66.0275 26.0217L65.6822 27.0837C65.6367 27.2246 65.5476 27.3473 65.4278 27.4343C65.308 27.5213 65.1637 27.5681 65.0156 27.5678H63.8982C63.8187 27.5678 63.7412 27.5929 63.6768 27.6397C63.6124 27.6864 63.5645 27.7523 63.5399 27.8279C63.5153 27.9036 63.5153 27.985 63.5399 28.0606C63.5645 28.1363 63.6124 28.2022 63.6768 28.2489L64.5808 28.9053C64.7007 28.9921 64.79 29.1147 64.8358 29.2555C64.8815 29.3962 64.8814 29.5479 64.8354 29.6886L64.4901 30.7506C64.4655 30.8262 64.4655 30.9077 64.4901 30.9833C64.5147 31.0589 64.5626 31.1248 64.6269 31.1715C64.6913 31.2183 64.7688 31.2434 64.8484 31.2434C64.9279 31.2434 65.0055 31.2182 65.0698 31.1715L65.9738 30.5152C66.0935 30.428 66.2377 30.381 66.3858 30.381Z" fill="#3F3D56"/>
<path d="M55.6082 31.5446C55.4599 31.544 55.3156 31.4963 55.1962 31.4083C55.0752 31.3225 54.985 31.1999 54.9391 31.0588C54.8933 30.9177 54.8941 30.7656 54.9415 30.625L55.2868 29.563C55.3116 29.4874 55.3116 29.4059 55.287 29.3303C55.2624 29.2546 55.2144 29.1887 55.15 29.1421L54.246 28.4857C54.1262 28.3987 54.0371 28.2761 53.9913 28.1354C53.9456 27.9947 53.9456 27.8431 53.9913 27.7024C54.0371 27.5617 54.1262 27.4391 54.246 27.3521C54.3657 27.2652 54.51 27.2184 54.658 27.2184H55.7754C55.855 27.2185 55.9325 27.1934 55.9969 27.1466C56.0613 27.0999 56.1092 27.0339 56.1336 26.9582L56.4789 25.8962C56.5247 25.7555 56.6138 25.6329 56.7336 25.5459C56.8533 25.4589 56.9976 25.4121 57.1456 25.4121C57.2936 25.4121 57.4378 25.4589 57.5576 25.5459C57.6774 25.6329 57.7665 25.7555 57.8122 25.8962L58.1575 26.9582C58.182 27.0339 58.2298 27.0999 58.2942 27.1466C58.3586 27.1934 58.4362 27.2185 58.5158 27.2184H59.6331C59.7812 27.2184 59.9254 27.2652 60.0451 27.3522C60.1649 27.4391 60.254 27.5617 60.2998 27.7024C60.3455 27.8431 60.3455 27.9947 60.2998 28.1354C60.254 28.2761 60.1649 28.3987 60.0452 28.4857L59.1412 29.1421C59.0767 29.1887 59.0287 29.2546 59.0041 29.3303C58.9795 29.4059 58.9796 29.4874 59.0043 29.563L59.3496 30.625C59.3953 30.7657 59.3953 30.9173 59.3496 31.058C59.3039 31.1987 59.2147 31.3213 59.0949 31.4083C58.9752 31.4952 58.831 31.5421 58.6829 31.5421C58.5349 31.5421 58.3907 31.4952 58.2709 31.4083L57.367 30.7519C57.3027 30.705 57.2252 30.6798 57.1456 30.6798C57.066 30.6798 56.9884 30.705 56.9241 30.7519L56.0202 31.4083C55.9008 31.4963 55.7565 31.544 55.6082 31.5446ZM57.1456 30.3556C57.2936 30.3556 57.4379 30.4026 57.5575 30.4898L58.4615 31.1461C58.5258 31.1929 58.6034 31.2181 58.6829 31.2181C58.7625 31.2181 58.84 31.1929 58.9044 31.1462C58.9688 31.0994 59.0167 31.0335 59.0413 30.9579C59.0658 30.8823 59.0658 30.8008 59.0412 30.7252L58.696 29.6632C58.6499 29.5225 58.6498 29.3708 58.6956 29.2301C58.7413 29.0893 58.8307 28.9667 58.9506 28.8799L59.8546 28.2235C59.9189 28.1768 59.9668 28.1109 59.9914 28.0352C60.016 27.9596 60.016 27.8782 59.9914 27.8026C59.9668 27.7269 59.9189 27.661 59.8545 27.6143C59.7902 27.5676 59.7127 27.5424 59.6331 27.5424H58.5158C58.3677 27.5427 58.2233 27.4959 58.1035 27.4089C57.9837 27.3219 57.8946 27.1992 57.8491 27.0583L57.5038 25.9963C57.4793 25.9207 57.4314 25.8548 57.367 25.808C57.3026 25.7613 57.2251 25.7361 57.1455 25.7361C57.066 25.7361 56.9884 25.7613 56.9241 25.808C56.8597 25.8548 56.8118 25.9207 56.7872 25.9963L56.4419 27.0583C56.3965 27.1992 56.3074 27.3219 56.1876 27.4089C56.0678 27.4959 55.9234 27.5427 55.7754 27.5424H54.658C54.5784 27.5424 54.5009 27.5676 54.4366 27.6143C54.3722 27.661 54.3243 27.7269 54.2997 27.8025C54.2751 27.8782 54.2751 27.9596 54.2997 28.0352C54.3243 28.1109 54.3722 28.1768 54.4365 28.2235L55.3405 28.8799C55.4605 28.9667 55.5498 29.0893 55.5956 29.2301C55.6413 29.3708 55.6412 29.5225 55.5952 29.6632L55.2498 30.7252C55.2252 30.8008 55.2253 30.8823 55.2498 30.9579C55.2744 31.0335 55.3223 31.0994 55.3867 31.1461C55.4511 31.1929 55.5286 31.218 55.6081 31.218C55.6877 31.218 55.7652 31.1928 55.8296 31.1461L56.7336 30.4898C56.8533 30.4026 56.9975 30.3556 57.1456 30.3556Z" fill="#3F3D56"/>
<path d="M8.91598 4.86035C8.63653 4.86035 8.36852 4.9713 8.17092 5.16879C7.97331 5.36628 7.8623 5.63413 7.8623 5.91342C7.8623 6.19272 7.97331 6.46057 8.17092 6.65806C8.36852 6.85555 8.63653 6.9665 8.91598 6.9665H62.2483C62.5278 6.9665 62.7958 6.85555 62.9934 6.65806C63.191 6.46057 63.302 6.19272 63.302 5.91342C63.302 5.63413 63.191 5.36628 62.9934 5.16879C62.7958 4.9713 62.5278 4.86035 62.2483 4.86035H8.91598Z" fill="#CCCCCC"/>
<path d="M8.91598 10.3691C8.63653 10.3691 8.36852 10.4801 8.17092 10.6776C7.97331 10.8751 7.8623 11.1429 7.8623 11.4222C7.8623 11.7015 7.97331 11.9694 8.17092 12.1668C8.36852 12.3643 8.63653 12.4753 8.91598 12.4753H62.2483C62.5278 12.4753 62.7958 12.3643 62.9934 12.1668C63.191 11.9694 63.302 11.7015 63.302 11.4222C63.302 11.1429 63.191 10.8751 62.9934 10.6776C62.7958 10.4801 62.5278 10.3691 62.2483 10.3691H8.91598Z" fill="#CCCCCC"/>
<path d="M8.91598 15.877C8.63653 15.877 8.36852 15.9879 8.17092 16.1854C7.97331 16.3829 7.8623 16.6507 7.8623 16.93C7.8623 17.2093 7.97331 17.4772 8.17092 17.6747C8.36852 17.8721 8.63653 17.9831 8.91598 17.9831H62.2483C62.5278 17.9831 62.7958 17.8721 62.9934 17.6747C63.191 17.4772 63.302 17.2093 63.302 16.93C63.302 16.6507 63.191 16.3829 62.9934 16.1854C62.7958 15.9879 62.5278 15.877 62.2483 15.877H8.91598Z" fill="#CCCCCC"/>
<path d="M8.91598 4.86035C8.63653 4.86035 8.36852 4.9713 8.17092 5.16879C7.97331 5.36628 7.8623 5.63413 7.8623 5.91342C7.8623 6.19272 7.97331 6.46057 8.17092 6.65806C8.36852 6.85555 8.63653 6.9665 8.91598 6.9665H62.2483C62.5278 6.9665 62.7958 6.85555 62.9934 6.65806C63.191 6.46057 63.302 6.19272 63.302 5.91342C63.302 5.63413 63.191 5.36628 62.9934 5.16879C62.7958 4.9713 62.5278 4.86035 62.2483 4.86035H8.91598Z" fill="#CCCCCC"/>
<path d="M8.91598 10.3691C8.63653 10.3691 8.36852 10.4801 8.17092 10.6776C7.97331 10.8751 7.8623 11.1429 7.8623 11.4222C7.8623 11.7015 7.97331 11.9694 8.17092 12.1668C8.36852 12.3643 8.63653 12.4753 8.91598 12.4753H62.2483C62.5278 12.4753 62.7958 12.3643 62.9934 12.1668C63.191 11.9694 63.302 11.7015 63.302 11.4222C63.302 11.1429 63.191 10.8751 62.9934 10.6776C62.7958 10.4801 62.5278 10.3691 62.2483 10.3691H8.91598Z" fill="#CCCCCC"/>
<path d="M8.91598 15.877C8.63653 15.877 8.36852 15.9879 8.17092 16.1854C7.97331 16.3829 7.8623 16.6507 7.8623 16.93C7.8623 17.2093 7.97331 17.4772 8.17092 17.6747C8.36852 17.8721 8.63653 17.9831 8.91598 17.9831H62.2483C62.5278 17.9831 62.7958 17.8721 62.9934 17.6747C63.191 17.4772 63.302 17.2093 63.302 16.93C63.302 16.6507 63.191 16.3829 62.9934 16.1854C62.7958 15.9879 62.5278 15.877 62.2483 15.877H8.91598Z" fill="#CCCCCC"/>
</g>
<defs>
<clipPath id="clip0_607_14802">
<rect width="130" height="87" fill="white"/>
</clipPath>
</defs>
</svg>
