<svg width="70" height="70" viewBox="0 0 70 70" fill="none" xmlns="http://www.w3.org/2000/svg">
<circle cx="35" cy="35" r="35" fill="#E6E6E6"/>
<path d="M37.8211 21.0256L40.6954 26.8218C41.0874 27.6286 42.1326 28.4026 43.0146 28.5507L48.2243 29.4235C51.556 29.9833 52.34 32.4204 49.9391 34.8245L45.8889 38.9082C45.2029 39.5997 44.8274 40.9335 45.0396 41.8887L46.1993 46.9438C47.1138 50.9452 45.0069 52.4931 41.4958 50.4018L36.6126 47.4872C35.7308 46.9603 34.2773 46.9603 33.3789 47.4872L28.4959 50.4018C25.0009 52.4931 22.8778 50.9287 23.7924 46.9438L24.9519 41.8887C25.1642 40.9335 24.7886 39.5997 24.1027 38.9082L20.0525 34.8245C17.668 32.4204 18.4356 29.9833 21.7673 29.4235L26.977 28.5507C27.8426 28.4026 28.8878 27.6286 29.2798 26.8218L32.1541 21.0256C33.7219 17.8805 36.2696 17.8805 37.8211 21.0256Z" stroke="#F29254" stroke-width="1.75" stroke-linecap="round" stroke-linejoin="round"/>
</svg>
