<svg width="70" height="70" viewBox="0 0 70 70" fill="none" xmlns="http://www.w3.org/2000/svg">
<circle cx="35" cy="35" r="35" fill="#E6E6E6"/>
<path d="M29.2832 40.7163H40.7165M29.2832 32.5497H34.9999" stroke="#F29254" stroke-width="1.75" stroke-linecap="round" stroke-linejoin="round"/>
<path d="M32.5493 20.2997C32.1822 20.3163 31.8168 20.3367 31.454 20.3609C24.6218 20.8158 19.1795 26.3451 18.7317 33.2865C18.6441 34.6449 18.6441 36.0517 18.7317 37.4102C18.8948 39.9382 20.0109 42.2791 21.3249 44.2556C22.0879 45.6394 21.5844 47.3665 20.7897 48.8752C20.2167 49.9628 19.9302 50.5067 20.1603 50.8995C20.3903 51.2925 20.9041 51.3049 21.9317 51.3301C23.964 51.3796 25.3344 50.8025 26.4222 49.9989C27.0391 49.543 27.3476 49.3152 27.5602 49.2891C27.7728 49.2629 28.1912 49.4356 29.0279 49.7807C29.7799 50.091 30.653 50.2825 31.454 50.3357C33.7802 50.4907 36.2137 50.491 38.5447 50.3357C45.3769 49.8808 50.8192 44.3517 51.267 37.4102C51.3546 36.0517 51.3546 34.6449 51.267 33.2865C51.2331 32.7601 51.1703 32.2416 51.0805 31.733" stroke="#F29254" stroke-width="1.75" stroke-linecap="round" stroke-linejoin="round"/>
<path d="M43.9824 23.5663H43.9971" stroke="#F29254" stroke-width="2.33333" stroke-linecap="round" stroke-linejoin="round"/>
<path d="M50.9977 22.8979C51.2211 23.1963 51.3328 23.3455 51.3328 23.5664C51.3328 23.7873 51.2211 23.9365 50.9977 24.2349C49.9936 25.5758 47.4293 28.4664 43.9828 28.4664C40.5363 28.4664 37.972 25.5758 36.968 24.2349C36.7445 23.9365 36.6328 23.7873 36.6328 23.5664C36.6328 23.3455 36.7445 23.1963 36.968 22.8979C37.972 21.557 40.5363 18.6664 43.9828 18.6664C47.4293 18.6664 49.9936 21.557 50.9977 22.8979Z" stroke="#F29254" stroke-width="1.75"/>
</svg>
