<svg width="200" height="200" viewBox="0 0 200 200" fill="none" xmlns="http://www.w3.org/2000/svg">
<path d="M200 100C200 155.228 155.228 200 100 200C44.7715 200 0 155.228 0 100C0 44.7715 44.7715 0 100 0C155.228 0 200 44.7715 200 100ZM48.4015 100C48.4015 128.497 71.503 151.598 100 151.598C128.497 151.598 151.598 128.497 151.598 100C151.598 71.503 128.497 48.4015 100 48.4015C71.503 48.4015 48.4015 71.503 48.4015 100Z" fill="#123FB2"/>
<path d="M158.447 18.8587C147.792 11.1833 135.729 5.6818 122.947 2.66838C110.165 -0.345035 96.9149 -0.811391 83.9529 1.29594C70.9909 3.40328 58.5709 8.04304 47.402 14.9503C36.2331 21.8576 26.5341 30.8971 18.8587 41.5527L58.1323 69.8421C62.0927 64.344 67.0973 59.6797 72.8602 56.1157C78.6232 52.5516 85.0317 50.1576 91.7199 49.0702C98.4081 47.9829 105.245 48.2235 111.84 49.7784C118.435 51.3333 124.66 54.1719 130.158 58.1323L158.447 18.8587Z" fill="#4C77E6"/>
<path d="M200 100C200 84.0643 196.192 68.3593 188.892 54.1937C181.592 40.0282 171.013 27.8122 158.036 18.5638L129.946 57.9802C136.642 62.7522 142.1 69.0555 145.867 76.3647C149.633 83.6739 151.598 91.7774 151.598 100H200Z" fill="#8DADFE"/>
</svg>
