<svg width="56" height="56" viewBox="0 0 56 56" fill="none" xmlns="http://www.w3.org/2000/svg">
<path d="M22.336 25.064C22.336 24.648 22.16 24.296 21.792 23.992C21.44 23.688 21.024 23.544 20.528 23.544C19.568 23.544 18.768 24.168 18.384 25.176L16.464 24.264C17.184 22.6 18.72 21.56 20.528 21.56C21.632 21.56 22.576 21.896 23.328 22.568C24.096 23.24 24.48 24.056 24.48 25C24.48 26.152 23.744 27.336 22.08 28.936L19.888 31.016H24.576V33H16.688V31.448L20.8 27.528C21.824 26.536 22.336 25.72 22.336 25.064ZM25.8253 31.976C25.8253 31.272 26.3533 30.728 27.0733 30.728C27.7933 30.728 28.3213 31.272 28.3213 31.976C28.3213 32.696 27.7933 33.24 27.0733 33.24C26.3533 33.24 25.8253 32.696 25.8253 31.976ZM37.8834 29.432C37.8834 30.504 37.4674 31.416 36.6514 32.152C35.8354 32.872 34.8274 33.24 33.5954 33.24C31.6114 33.24 30.0274 32.104 29.4034 30.376L31.4674 29.816C31.8354 30.696 32.6354 31.256 33.6114 31.256C34.2034 31.256 34.7154 31.08 35.1154 30.728C35.5314 30.376 35.7394 29.944 35.7394 29.432C35.7394 28.872 35.5154 28.424 35.0514 28.056C34.6034 27.688 34.0434 27.512 33.3714 27.512H30.2514L30.8274 21.8H36.9234V23.704H32.5394L32.3634 25.624H33.4834C34.7474 25.624 35.7874 25.992 36.6194 26.712C37.4674 27.432 37.8834 28.344 37.8834 29.432Z" fill="#E94F1E"/>
<path d="M56 28C56 24.323 55.2758 20.682 53.8686 17.2849C52.4615 13.8877 50.399 10.8011 47.799 8.20101C45.1989 5.60097 42.1123 3.5385 38.7151 2.13137C35.318 0.724241 31.677 -1.60727e-07 28 0C24.323 1.60727e-07 20.682 0.724242 17.2849 2.13137C13.8877 3.53851 10.801 5.60097 8.20101 8.20101C5.60097 10.8011 3.5385 13.8877 2.13137 17.2849C0.724241 20.682 -3.21455e-07 24.323 0 28H7.31722C7.31722 25.2839 7.85219 22.5944 8.8916 20.085C9.93101 17.5757 11.4545 15.2956 13.3751 13.3751C15.2956 11.4545 17.5757 9.93101 20.085 8.8916C22.5944 7.85219 25.2839 7.31722 28 7.31722C30.7161 7.31722 33.4056 7.85219 35.915 8.8916C38.4243 9.93101 40.7044 11.4545 42.6249 13.3751C44.5455 15.2956 46.069 17.5757 47.1084 20.085C48.1478 22.5944 48.6828 25.2839 48.6828 28H56Z" fill="#E7ECF0"/>
<path d="M11.3329 5.50092C7.81811 8.10466 4.9622 11.4957 2.99415 15.4021C1.02609 19.3085 0.000643102 23.6217 3.02334e-07 27.9959L7.31722 27.997C7.31769 24.7659 8.07516 21.5799 9.52891 18.6943C10.9827 15.8087 13.0922 13.3039 15.6885 11.3806L11.3329 5.50092Z" fill="#E94F1E"/>
</svg>
