<svg width="16" height="16" viewBox="0 0 16 16" fill="none" xmlns="http://www.w3.org/2000/svg">
<path d="M1.66602 8.66699L2.99935 9.33366" stroke="#F29254" stroke-linecap="round" stroke-linejoin="round"/>
<path d="M14.3333 9L13 9.33333" stroke="#F29254" stroke-linecap="round" stroke-linejoin="round"/>
<path d="M5.33398 12.3337L5.49776 11.9242C5.74132 11.3153 5.8631 11.0109 6.11706 10.8389C6.371 10.667 6.69892 10.667 7.35472 10.667H8.64658C9.30238 10.667 9.63032 10.667 9.88425 10.8389C10.1382 11.0109 10.26 11.3153 10.5035 11.9242L10.6673 12.3337" stroke="#F29254" stroke-linecap="round" stroke-linejoin="round"/>
<path d="M1.33398 12V13.9213C1.33398 14.1738 1.49448 14.4047 1.74857 14.5176C1.91344 14.5909 2.0709 14.6667 2.26104 14.6667H3.40693C3.59706 14.6667 3.75453 14.5909 3.9194 14.5176C4.17348 14.4047 4.33398 14.1738 4.33398 13.9213V12.6667" stroke="#F29254" stroke-linecap="round" stroke-linejoin="round"/>
<path d="M11.666 12.6667V13.9213C11.666 14.1738 11.8265 14.4047 12.0806 14.5176C12.2455 14.5909 12.4029 14.6667 12.5931 14.6667H13.7389C13.9291 14.6667 14.0865 14.5909 14.2514 14.5176C14.5055 14.4047 14.666 14.1738 14.666 13.9213V12" stroke="#F29254" stroke-linecap="round" stroke-linejoin="round"/>
<path d="M13.334 6.33333L14.0007 6" stroke="#F29254" stroke-linecap="round" stroke-linejoin="round"/>
<path d="M2.66667 6.33333L2 6" stroke="#F29254" stroke-linecap="round" stroke-linejoin="round"/>
<path d="M3 7L3.72553 4.82339C4.01888 3.94337 4.16555 3.50335 4.51473 3.25168C4.86391 3 5.32773 3 6.25536 3H9.74467C10.6723 3 11.1361 3 11.4853 3.25168C11.8345 3.50335 11.9811 3.94337 12.2745 4.82339L13 7" stroke="#F29254" stroke-linejoin="round"/>
<path d="M10.3327 2.99967C10.1725 2.19529 10.0925 1.79309 9.90188 1.56305C9.71128 1.33301 9.45808 1.33301 8.95168 1.33301H7.04702C6.54062 1.33301 6.28743 1.33301 6.09682 1.56305C5.90621 1.79309 5.82614 2.19529 5.66602 2.99967" stroke="#F29254" stroke-linejoin="round"/>
<path d="M3.00065 7H13.0007C13.6388 7.63813 14.6673 8.5268 14.6673 9.51827V11.7035C14.6673 12.0627 14.4143 12.3649 14.0785 12.4069L12.0007 12.6667H4.00065L1.92276 12.4069C1.58702 12.3649 1.33398 12.0627 1.33398 11.7035V9.51827C1.33398 8.5268 2.36251 7.63813 3.00065 7Z" stroke="#F29254" stroke-linejoin="round"/>
</svg>
