<svg width="16" height="16" viewBox="0 0 16 16" fill="none" xmlns="http://www.w3.org/2000/svg">
<path d="M4.00195 6.66634V3.33301M7.33528 6.66634V3.33301M10.6686 6.66634V3.66634" stroke="#F29254" stroke-linecap="round" stroke-linejoin="round"/>
<path d="M3.34406 11.333C2.39742 11.333 1.9241 11.333 1.63002 11.0401C1.33594 10.7472 1.33594 10.2758 1.33594 9.33301V5.33301C1.33594 4.3902 1.33594 3.91879 1.63002 3.6259C1.9241 3.33301 2.39742 3.33301 3.34406 3.33301H8.067C10.3828 3.33301 11.5407 3.33301 12.4268 3.80383C13.0793 4.15056 13.6231 4.67001 13.9981 5.30491C14.5073 6.16708 14.5555 7.31927 14.6519 9.62367C14.6779 10.2449 14.6909 10.5555 14.5695 10.7905C14.4803 10.9633 14.3423 11.1064 14.1727 11.2024C13.942 11.333 13.6299 11.333 13.0057 11.333H12.6693M6.0026 11.333H10.0026" stroke="#F29254" stroke-linecap="round" stroke-linejoin="round"/>
<path d="M4.66927 12.6667C5.40565 12.6667 6.0026 12.0697 6.0026 11.3333C6.0026 10.5969 5.40565 10 4.66927 10C3.93289 10 3.33594 10.5969 3.33594 11.3333C3.33594 12.0697 3.93289 12.6667 4.66927 12.6667Z" stroke="#F29254"/>
<path d="M11.3353 12.6667C12.0717 12.6667 12.6686 12.0697 12.6686 11.3333C12.6686 10.5969 12.0717 10 11.3353 10C10.5989 10 10.002 10.5969 10.002 11.3333C10.002 12.0697 10.5989 12.6667 11.3353 12.6667Z" stroke="#F29254"/>
<path d="M1.33008 6.66699H10.2421C10.6601 6.66699 10.8021 6.91179 11.1221 7.29579C11.4901 7.65579 11.7389 7.90833 12.0821 7.95979C12.5621 8.03179 14.3381 7.99579 14.3381 7.99579" stroke="#F29254" stroke-linecap="round"/>
</svg>
