<svg width="16" height="16" viewBox="0 0 16 16" fill="none" xmlns="http://www.w3.org/2000/svg">
<path d="M12.0007 8.66667C13.4734 8.66667 14.6673 7.47273 14.6673 6C14.6673 4.52724 13.4734 3.33333 12.0007 3.33333C11.4518 3.33333 10.9417 3.49916 10.5176 3.78345M10.5176 3.78345C10.1531 2.74476 9.16385 2 8.00065 2C6.83745 2 5.8482 2.74476 5.48372 3.78345M10.5176 3.78345C10.6146 4.05987 10.6673 4.35711 10.6673 4.66667C10.6673 4.89687 10.6381 5.12025 10.5833 5.33333M4.00065 8.66667C2.52789 8.66667 1.33398 7.47273 1.33398 6C1.33398 4.52724 2.52789 3.33333 4.00065 3.33333C4.54953 3.33333 5.05968 3.49916 5.48372 3.78345M5.48372 3.78345C5.82224 4.0104 6.10588 4.31283 6.31056 4.66667" stroke="#F29254" stroke-linecap="round" stroke-linejoin="round"/>
<path d="M4 11.6667C5.06603 11.2517 6.46635 11 8 11C9.53367 11 10.934 11.2517 12 11.6667" stroke="#F29254" stroke-linecap="round"/>
<path d="M3.33398 13.9997C4.57769 13.5847 6.21138 13.333 8.00065 13.333C9.78992 13.333 11.4236 13.5847 12.6673 13.9997" stroke="#F29254" stroke-linecap="round"/>
<path d="M12 8V13.3333M4 8V13.3333" stroke="#F29254" stroke-linecap="round"/>
</svg>
