<svg width="16" height="16" viewBox="0 0 16 16" fill="none" xmlns="http://www.w3.org/2000/svg">
<path d="M2.84506 2.88489C3.96933 2.01795 5.71558 1.33301 8 1.33301C10.2844 1.33301 12.0307 2.01795 13.1549 2.88489C13.3129 3.00666 13.3918 3.06755 13.4566 3.17545C13.511 3.26602 13.5501 3.40339 13.5517 3.50903C13.5535 3.63487 13.5115 3.7468 13.4275 3.97066C13.2203 4.52327 13.1167 4.79957 13.0748 5.07321C13.022 5.41836 13.0215 5.50283 13.0702 5.84859C13.1088 6.12272 13.3197 6.70621 13.7414 7.87321C13.896 8.30101 14 8.78581 14 9.33301C14 11.333 12.3333 12.9163 10.6667 13.333C9.20547 13.6983 8.44447 14.2219 8 14.6663C7.55553 14.2219 6.79453 13.6983 5.33333 13.333C3.66667 12.9163 2 11.333 2 9.33301C2 8.78581 2.10397 8.30101 2.25857 7.87321C2.68033 6.70621 2.89121 6.12272 2.92982 5.84859C2.97851 5.50283 2.97801 5.41836 2.92518 5.07321C2.88329 4.79957 2.77968 4.52327 2.57245 3.97066C2.48851 3.7468 2.44653 3.63487 2.44835 3.50903C2.44987 3.40339 2.48901 3.26602 2.54339 3.17545C2.60818 3.06755 2.68714 3.00666 2.84506 2.88489Z" stroke="#F29254" stroke-linecap="round" stroke-linejoin="round"/>
<path d="M8.46138 5.05211L8.93065 5.99843C8.99465 6.13016 9.16525 6.25651 9.30925 6.28071L10.1599 6.42319C10.7038 6.5146 10.8318 6.91246 10.4398 7.30499L9.77852 7.97173C9.66658 8.08466 9.60525 8.30239 9.63992 8.45833L9.82918 9.28366C9.97852 9.93693 9.63458 10.1897 9.06132 9.84819L8.26405 9.37239C8.12005 9.28633 7.88278 9.28633 7.73612 9.37239L6.93885 9.84819C6.36825 10.1897 6.02162 9.93426 6.17094 9.28366L6.36025 8.45833C6.39492 8.30239 6.33359 8.08466 6.2216 7.97173L5.56034 7.30499C5.17105 6.91246 5.29637 6.5146 5.84031 6.42319L6.69085 6.28071C6.83218 6.25651 7.00285 6.13016 7.06685 5.99843L7.53612 5.05211C7.79212 4.53862 8.20805 4.53862 8.46138 5.05211Z" stroke="#F29254" stroke-linecap="round" stroke-linejoin="round"/>
</svg>
