<svg width="20" height="20" viewBox="0 0 20 20" fill="none" xmlns="http://www.w3.org/2000/svg">
<path d="M1.66699 6.66667C1.66699 6.66667 5.39795 2.5 10.0003 2.5C14.6027 2.5 18.3337 6.66667 18.3337 6.66667" stroke="#858585" stroke-width="1.25" stroke-linecap="round"/>
<path d="M17.9537 10.8705C18.207 11.2258 18.3337 11.4034 18.3337 11.6663C18.3337 11.9293 18.207 12.1069 17.9537 12.4622C16.8152 14.0585 13.908 17.4997 10.0003 17.4997C6.09264 17.4997 3.18541 14.0585 2.04703 12.4622C1.79367 12.1069 1.66699 11.9293 1.66699 11.6663C1.66699 11.4034 1.79367 11.2258 2.04703 10.8705C3.18541 9.27417 6.09264 5.83301 10.0003 5.83301C13.908 5.83301 16.8152 9.27417 17.9537 10.8705Z" stroke="#858585" stroke-width="1.25"/>
<path d="M12.5 11.667C12.5 10.2862 11.3807 9.16699 10 9.16699C8.61925 9.16699 7.5 10.2862 7.5 11.667C7.5 13.0477 8.61925 14.167 10 14.167C11.3807 14.167 12.5 13.0477 12.5 11.667Z" stroke="#858585" stroke-width="1.25"/>
</svg>
