<svg width="54" height="54" viewBox="0 0 54 54" fill="none" xmlns="http://www.w3.org/2000/svg">
<path d="M5.625 27C5.625 16.9237 5.625 11.8856 8.75529 8.75529C11.8856 5.625 16.9237 5.625 27 5.625C37.0762 5.625 42.1144 5.625 45.2448 8.75529C48.375 11.8856 48.375 16.9237 48.375 27C48.375 37.0762 48.375 42.1144 45.2448 45.2448C42.1144 48.375 37.0762 48.375 27 48.375C16.9237 48.375 11.8856 48.375 8.75529 45.2448C5.625 42.1144 5.625 37.0762 5.625 27Z" stroke="#AB4412" stroke-width="2"/>
<path d="M37.125 20.25C38.989 20.25 40.5 18.739 40.5 16.875C40.5 15.011 38.989 13.5 37.125 13.5C35.261 13.5 33.75 15.011 33.75 16.875C33.75 18.739 35.261 20.25 37.125 20.25Z" stroke="#AB4412" stroke-width="2"/>
<path d="M36 49.5C34.6061 44.4935 31.3526 40.0097 26.7221 36.7519C21.7296 33.239 15.4612 31.3798 9.0353 31.506C8.2723 31.5042 7.50996 31.5285 6.75 31.5789" stroke="#AB4412" stroke-width="2" stroke-linejoin="round"/>
<path d="M29.25 40.5C33.0784 37.515 37.2026 35.9838 41.3689 36.0003C43.7314 35.9978 46.0827 36.4986 48.375 37.4889" stroke="#AB4412" stroke-width="2" stroke-linejoin="round"/>
</svg>
