<svg width="29" height="29" viewBox="0 0 29 29" fill="none" xmlns="http://www.w3.org/2000/svg">
<path d="M16.4547 25.8188C15.9308 26.3094 15.2303 26.5837 14.5013 26.5837C13.7723 26.5837 13.072 26.3094 12.5479 25.8188C7.74907 21.2984 1.318 16.2487 4.45424 8.91741C6.14997 4.95348 10.2205 2.41699 14.5013 2.41699C18.7822 2.41699 22.8527 4.95348 24.5485 8.91741C27.6807 16.2395 21.2655 21.314 16.4547 25.8188Z" stroke="#F29254"/>
<path d="M18.7288 13.2917C18.7288 15.6274 16.8354 17.5208 14.4997 17.5208C12.164 17.5208 10.2705 15.6274 10.2705 13.2917C10.2705 10.956 12.164 9.0625 14.4997 9.0625C16.8354 9.0625 18.7288 10.956 18.7288 13.2917Z" stroke="#F29254"/>
</svg>
