<svg width="13" height="13" viewBox="0 0 13 13" fill="none" xmlns="http://www.w3.org/2000/svg">
<path d="M7.37625 11.5735C7.14139 11.7934 6.82738 11.9163 6.5006 11.9163C6.17381 11.9163 5.85986 11.7934 5.62494 11.5735C3.47372 9.54709 0.590829 7.28341 1.99673 3.99699C2.75688 2.22005 4.5816 1.08301 6.5006 1.08301C8.41961 1.08301 10.2443 2.22005 11.0045 3.99699C12.4086 7.27929 9.53279 9.55408 7.37625 11.5735Z" stroke="#F29254"/>
<path d="M8.39567 5.95833C8.39567 7.00538 7.54688 7.85417 6.49984 7.85417C5.4528 7.85417 4.604 7.00538 4.604 5.95833C4.604 4.91129 5.4528 4.0625 6.49984 4.0625C7.54688 4.0625 8.39567 4.91129 8.39567 5.95833Z" stroke="#F29254"/>
</svg>
