<svg width="250" height="250" viewBox="0 0 270 270" fill="none" xmlns="http://www.w3.org/2000/svg">
<g filter="url(#filter0_d_607_15294)">
<path d="M65.4752 151.5L60.8677 145.695L47.7402 145.778L54.2827 154.653L58.5602 160.455C59.8032 162.141 61.4246 163.511 63.294 164.456C65.1633 165.4 67.2283 165.892 69.3227 165.893C71.415 165.89 73.4776 165.397 75.3446 164.453C77.2116 163.509 78.8311 162.139 80.0727 160.455L84.3477 154.653L90.8902 145.778L77.7527 145.703L73.1702 151.5C72.7262 152.103 72.1468 152.593 71.4787 152.93C70.8106 153.268 70.0725 153.444 69.324 153.444C68.5754 153.444 67.8374 153.268 67.1693 152.93C66.5012 152.593 65.9218 152.103 65.4777 151.5H65.4752Z" fill="#AB4412"/>
<path d="M117.355 145.778H103.872L99.545 139.87L93.11 131.063L84.9675 119.928C83.1842 117.482 80.8484 115.492 78.1503 114.12C75.4522 112.748 72.4681 112.033 69.4413 112.033C66.4144 112.033 63.4303 112.748 60.7322 114.12C58.0341 115.492 55.6983 117.482 53.915 119.928L45.6775 131.178L39.25 139.98L35 145.778H21.5L26.515 138.925L31.75 131.803L38.61 122.41L46.1925 112.038C48.6623 108.666 51.8917 105.922 55.6193 104.031C59.3468 102.139 63.4675 101.153 67.6475 101.15H71.25C75.4292 101.151 79.5493 102.137 83.2759 104.029C87.0024 105.921 90.2303 108.665 92.6975 112.038L100.152 122.23L105.925 130.135L106.238 130.56L107.03 131.64L112.25 138.773L117.355 145.778Z" fill="#F29254"/>
<path d="M130.398 149.027V154.61C130.752 154.096 131.23 153.681 131.787 153.402C132.345 153.123 132.965 152.99 133.588 153.015C134.929 153.015 135.94 153.432 136.62 154.265C137.3 155.098 137.639 156.238 137.638 157.685V163H135.583V157.702C135.583 156.797 135.364 156.109 134.925 155.637C134.691 155.397 134.407 155.209 134.094 155.087C133.781 154.965 133.446 154.912 133.11 154.93C132.744 154.92 132.38 154.991 132.043 155.137C131.707 155.284 131.407 155.502 131.165 155.777C130.652 156.349 130.377 157.095 130.398 157.862V163H128.343V149.027H130.398Z" fill="#F29254"/>
<path d="M148.415 154.422C149.33 155.42 149.839 156.724 149.842 158.077C149.846 159.431 149.344 160.737 148.435 161.74C147.498 162.705 146.265 163.187 144.735 163.187C143.205 163.187 141.982 162.708 141.067 161.75C140.164 160.743 139.665 159.438 139.665 158.086C139.665 156.734 140.164 155.429 141.067 154.422C142.002 153.451 143.221 152.965 144.725 152.965C146.228 152.965 147.458 153.451 148.415 154.422ZM142.552 155.787C141.998 156.42 141.702 157.239 141.725 158.08C141.699 158.914 141.992 159.727 142.542 160.355C142.818 160.66 143.157 160.9 143.536 161.058C143.915 161.217 144.324 161.29 144.735 161.272C145.147 161.289 145.558 161.216 145.939 161.057C146.32 160.899 146.661 160.659 146.94 160.355C147.48 159.717 147.774 158.906 147.768 158.071C147.763 157.235 147.458 156.428 146.91 155.797C146.638 155.49 146.303 155.246 145.927 155.082C145.552 154.919 145.145 154.839 144.735 154.85C144.324 154.835 143.915 154.911 143.538 155.073C143.161 155.235 142.824 155.479 142.552 155.787Z" fill="#F29254"/>
<path d="M158.735 163V157.582C158.758 156.894 158.54 156.22 158.117 155.677C157.918 155.427 157.663 155.226 157.371 155.093C157.08 154.96 156.762 154.897 156.442 154.91C156.116 154.9 155.792 154.965 155.495 155.1C155.197 155.234 154.935 155.435 154.727 155.687C154.284 156.217 154.05 156.891 154.07 157.582V163H152.015V153.135H153.93L154.07 154.452C154.317 153.963 154.72 153.57 155.215 153.335C155.715 153.095 156.264 152.971 156.82 152.975C158.378 152.975 159.409 153.633 159.912 154.95C160.637 153.65 161.76 153 163.282 153C164.624 153 165.655 153.399 166.375 154.197C167.095 154.995 167.453 156.112 167.45 157.547V163H165.377V157.542C165.408 156.869 165.21 156.205 164.817 155.657C164.627 155.415 164.38 155.222 164.099 155.095C163.818 154.968 163.51 154.912 163.202 154.93C162.874 154.918 162.547 154.981 162.246 155.114C161.946 155.247 161.679 155.446 161.467 155.697C161.024 156.223 160.79 156.894 160.81 157.582V163H158.735Z" fill="#F29254"/>
<path d="M171.637 158.84C171.674 159.191 171.781 159.531 171.953 159.84C172.125 160.148 172.358 160.419 172.637 160.635C173.274 161.104 174.052 161.343 174.843 161.312C175.39 161.309 175.933 161.211 176.447 161.022C176.921 160.872 177.35 160.609 177.697 160.255L179.035 161.55C178.511 162.103 177.866 162.527 177.15 162.787C176.403 163.077 175.609 163.226 174.807 163.227C173.197 163.227 171.911 162.755 170.947 161.81C169.984 160.865 169.502 159.601 169.5 158.02C169.5 156.52 169.978 155.29 170.935 154.332C171.892 153.374 173.135 152.895 174.665 152.895C176.313 152.895 177.596 153.4 178.512 154.412C179.429 155.424 179.795 156.9 179.61 158.84H171.637ZM177.637 157.105C177.629 156.767 177.547 156.436 177.398 156.133C177.248 155.831 177.034 155.565 176.77 155.355C176.176 154.951 175.475 154.734 174.756 154.734C174.038 154.734 173.336 154.951 172.742 155.355C172.179 155.783 171.798 156.408 171.675 157.105H177.637Z" fill="#F29254"/>
<path d="M188 155.567C187.287 154.938 186.358 154.609 185.408 154.65C184.883 154.615 184.358 154.715 183.883 154.94C183.713 155.017 183.568 155.142 183.467 155.299C183.367 155.457 183.314 155.64 183.315 155.827C183.327 156.532 184.038 156.949 185.448 157.077C185.934 157.119 186.417 157.189 186.895 157.285C187.341 157.385 187.776 157.532 188.19 157.725C188.632 157.914 189.003 158.239 189.248 158.652C189.506 159.114 189.634 159.638 189.618 160.167C189.619 160.607 189.515 161.042 189.313 161.433C189.112 161.825 188.819 162.162 188.46 162.417C187.704 162.989 186.693 163.275 185.428 163.277C183.513 163.277 182.017 162.672 180.94 161.462L182.018 160.005C182.871 160.95 184.021 161.435 185.468 161.462C185.972 161.474 186.472 161.364 186.925 161.142C187.112 161.06 187.271 160.926 187.384 160.757C187.497 160.587 187.559 160.388 187.563 160.185C187.576 159.99 187.529 159.796 187.428 159.629C187.328 159.462 187.178 159.329 187 159.25C186.456 159.006 185.871 158.865 185.275 158.832C182.617 158.58 181.284 157.596 181.275 155.88C181.255 155.426 181.36 154.975 181.581 154.577C181.802 154.18 182.129 153.852 182.525 153.63C183.385 153.123 184.368 152.863 185.365 152.88C186.909 152.88 188.172 153.319 189.155 154.197L188 155.567Z" fill="#F29254"/>
<path d="M140.175 146.06C138.31 146.074 136.461 145.708 134.742 144.984C133.023 144.261 131.469 143.195 130.175 141.853C128.883 140.513 127.864 138.936 127.175 137.208C126.449 135.378 126.085 133.426 126.102 131.458C126.085 129.506 126.45 127.57 127.175 125.758C127.868 124.037 128.887 122.466 130.175 121.13C131.442 119.805 132.958 118.742 134.635 118C136.381 117.239 138.269 116.854 140.175 116.873C141.813 116.837 143.445 117.083 145 117.6C146.481 118.164 147.855 118.977 149.062 120.005C149.238 120.131 149.392 120.284 149.517 120.46C149.62 120.602 149.694 120.763 149.737 120.933C149.776 121.118 149.794 121.308 149.792 121.498C149.796 121.714 149.754 121.928 149.668 122.126C149.581 122.324 149.453 122.501 149.292 122.645C148.951 122.965 148.504 123.148 148.036 123.158C147.569 123.168 147.114 123.005 146.76 122.7C145.928 121.965 144.988 121.363 143.972 120.915C143.012 120.503 141.744 120.297 140.167 120.295C138.771 120.287 137.39 120.586 136.122 121.17C134.866 121.748 133.734 122.565 132.79 123.575C131.82 124.605 131.056 125.811 130.54 127.128C129.473 129.919 129.473 133.006 130.54 135.798C131.057 137.114 131.82 138.32 132.79 139.35C133.732 140.364 134.868 141.18 136.13 141.75C138.523 142.813 141.239 142.891 143.69 141.968C144.827 141.526 145.899 140.933 146.877 140.203C147.243 139.91 147.702 139.761 148.17 139.783C148.578 139.81 148.961 139.988 149.245 140.283C149.549 140.626 149.706 141.075 149.682 141.533C149.681 141.777 149.632 142.018 149.537 142.243C149.434 142.482 149.286 142.698 149.1 142.88C147.838 143.898 146.416 144.699 144.892 145.25C143.378 145.791 141.782 146.065 140.175 146.06Z" fill="#AB4412"/>
<path d="M157.222 138.445C156.977 138.452 156.732 138.408 156.504 138.317C156.275 138.226 156.068 138.09 155.894 137.916C155.72 137.742 155.583 137.535 155.492 137.306C155.401 137.078 155.358 136.833 155.365 136.587V119.102C155.354 118.853 155.396 118.604 155.487 118.371C155.578 118.139 155.717 117.928 155.895 117.752C156.154 117.48 156.49 117.293 156.859 117.217C157.227 117.141 157.609 117.179 157.955 117.325C158.302 117.472 158.595 117.72 158.796 118.038C158.997 118.355 159.097 118.727 159.082 119.102V136.587C159.092 136.831 159.052 137.074 158.966 137.302C158.88 137.531 158.75 137.74 158.582 137.917C158.405 138.095 158.193 138.235 157.959 138.325C157.724 138.416 157.473 138.457 157.222 138.445ZM157.222 145.732C156.977 145.738 156.732 145.694 156.504 145.603C156.275 145.512 156.068 145.375 155.894 145.201C155.721 145.027 155.584 144.819 155.493 144.591C155.402 144.363 155.358 144.118 155.365 143.872V127.622C155.354 127.373 155.396 127.124 155.487 126.892C155.579 126.66 155.717 126.45 155.895 126.275C156.154 126.003 156.49 125.816 156.858 125.74C157.226 125.664 157.608 125.701 157.954 125.847C158.3 125.994 158.593 126.242 158.795 126.559C158.997 126.876 159.097 127.247 159.082 127.622V143.872C159.092 144.116 159.052 144.359 158.967 144.588C158.881 144.816 158.75 145.025 158.582 145.202C158.406 145.381 158.193 145.52 157.959 145.612C157.724 145.703 157.474 145.744 157.222 145.732ZM172.197 145.732C171.951 145.739 171.707 145.695 171.478 145.604C171.249 145.513 171.042 145.376 170.868 145.202C170.694 145.028 170.557 144.82 170.466 144.592C170.375 144.363 170.331 144.118 170.337 143.872V134.912C170.337 133.527 170.082 132.398 169.572 131.525C169.098 130.683 168.381 130.003 167.515 129.575C166.588 129.136 165.573 128.917 164.547 128.937C163.588 128.924 162.639 129.136 161.777 129.557C160.992 129.935 160.316 130.505 159.81 131.215C159.323 131.913 159.068 132.748 159.082 133.6H156.787C156.762 132.155 157.147 130.734 157.897 129.5C158.641 128.294 159.691 127.307 160.94 126.64C162.271 125.924 163.763 125.56 165.275 125.582C166.841 125.557 168.389 125.926 169.775 126.657C171.104 127.38 172.193 128.476 172.907 129.81C173.672 131.191 174.055 132.891 174.055 134.91V143.87C174.061 144.115 174.018 144.36 173.927 144.588C173.836 144.817 173.699 145.024 173.526 145.198C173.352 145.372 173.144 145.509 172.916 145.601C172.688 145.692 172.443 145.736 172.197 145.73V145.732Z" fill="#AB4412"/>
<path d="M188.552 145.843C186.867 145.866 185.21 145.405 183.78 144.513C182.371 143.625 181.221 142.38 180.447 140.905C179.616 139.316 179.196 137.544 179.227 135.75C179.199 133.938 179.659 132.152 180.557 130.578C181.418 129.073 182.662 127.822 184.162 126.953C185.305 126.277 186.57 125.835 187.885 125.652C189.2 125.469 190.538 125.548 191.822 125.885C193.106 126.222 194.311 126.81 195.366 127.616C196.421 128.421 197.306 129.428 197.97 130.578C198.868 132.152 199.328 133.938 199.3 135.75H197.88C197.909 137.544 197.49 139.316 196.66 140.905C195.885 142.38 194.734 143.625 193.325 144.513C191.894 145.405 190.238 145.867 188.552 145.843ZM189.282 142.563C190.449 142.582 191.598 142.273 192.597 141.67C193.566 141.077 194.359 140.234 194.892 139.23C195.443 138.146 195.731 136.947 195.731 135.73C195.731 134.514 195.443 133.315 194.892 132.23C194.358 131.226 193.566 130.383 192.597 129.788C191.593 129.203 190.453 128.895 189.291 128.895C188.129 128.895 186.988 129.203 185.985 129.788C185.004 130.381 184.199 131.224 183.652 132.23C183.09 133.311 182.796 134.512 182.796 135.73C182.796 136.949 183.09 138.15 183.652 139.23C184.199 140.237 185.004 141.079 185.985 141.67C186.98 142.268 188.121 142.577 189.282 142.563ZM197.442 145.733C197.196 145.74 196.951 145.696 196.723 145.605C196.494 145.514 196.286 145.377 196.112 145.203C195.939 145.029 195.802 144.821 195.711 144.593C195.62 144.364 195.577 144.119 195.585 143.873V138.3L196.277 134.438L199.3 135.75V143.873C199.307 144.119 199.264 144.364 199.173 144.593C199.082 144.821 198.946 145.029 198.772 145.203C198.598 145.377 198.39 145.514 198.162 145.605C197.933 145.696 197.688 145.74 197.442 145.733Z" fill="#AB4412"/>
<path d="M206.66 145.695C206.417 145.712 206.172 145.68 205.941 145.602C205.71 145.524 205.496 145.401 205.313 145.24C204.996 144.937 204.838 144.481 204.838 143.873V127.59C204.811 127.344 204.84 127.096 204.922 126.863C205.005 126.629 205.138 126.418 205.313 126.243C205.488 126.068 205.699 125.935 205.933 125.852C206.166 125.77 206.414 125.741 206.66 125.768C206.908 125.733 207.16 125.755 207.397 125.835C207.634 125.914 207.849 126.047 208.026 126.224C208.202 126.401 208.335 126.616 208.414 126.853C208.493 127.091 208.516 127.343 208.48 127.59V143.873C208.512 144.365 208.348 144.85 208.025 145.223C207.842 145.391 207.626 145.519 207.392 145.6C207.157 145.682 206.908 145.714 206.66 145.695ZM206.623 133.235C206.601 131.854 206.974 130.496 207.698 129.32C208.41 128.17 209.407 127.223 210.593 126.57C211.815 125.889 213.193 125.537 214.593 125.55C216.051 125.55 217.138 125.787 217.855 126.26C218.572 126.733 218.844 127.298 218.673 127.953C218.622 128.253 218.476 128.528 218.255 128.738C218.055 128.917 217.809 129.036 217.545 129.083C217.254 129.131 216.956 129.119 216.67 129.048C215.293 128.735 213.867 128.709 212.48 128.973C211.376 129.173 210.356 129.695 209.548 130.473C209.191 130.838 208.912 131.271 208.727 131.746C208.542 132.222 208.456 132.73 208.473 133.24L206.623 133.235Z" fill="#AB4412"/>
<path d="M224.765 145.695C224.52 145.702 224.275 145.659 224.046 145.568C223.817 145.478 223.61 145.341 223.436 145.167C223.262 144.993 223.125 144.785 223.035 144.557C222.944 144.328 222.901 144.083 222.908 143.837V127.625C222.897 127.376 222.938 127.127 223.029 126.895C223.12 126.663 223.258 126.453 223.435 126.277C223.695 126.006 224.031 125.819 224.398 125.743C224.766 125.666 225.149 125.704 225.495 125.85C225.841 125.996 226.134 126.245 226.336 126.562C226.537 126.879 226.637 127.249 226.623 127.625V143.837C226.632 144.081 226.593 144.324 226.507 144.553C226.421 144.781 226.29 144.99 226.123 145.167C225.946 145.346 225.734 145.485 225.5 145.576C225.266 145.667 225.016 145.707 224.765 145.695Z" fill="#AB4412"/>
<path d="M233.98 129.193C232.84 129.193 232.27 128.622 232.27 127.48C232.27 126.338 232.84 125.768 233.98 125.768H246.405C247.545 125.768 248.115 126.338 248.117 127.48C248.119 128.622 247.548 129.193 246.405 129.193H233.98ZM234.345 145.693C233.205 145.693 232.634 145.122 232.632 143.98C232.63 142.838 233.201 142.268 234.345 142.268H246.767C247.909 142.268 248.48 142.838 248.48 143.98C248.48 145.122 247.909 145.693 246.767 145.693H234.345ZM235.437 145L232.96 142.815L245.347 126.458L247.787 128.643L235.437 145Z" fill="#AB4412"/>
<path d="M223.552 120L222.1 121.83L217.965 121.805L220.025 119L221.372 117.172C221.764 116.64 222.275 116.208 222.864 115.91C223.454 115.612 224.105 115.457 224.765 115.457C225.425 115.458 226.076 115.613 226.665 115.911C227.254 116.209 227.765 116.641 228.157 117.172L229.5 119L231.56 121.797L227.42 121.82L225.977 120C225.838 119.809 225.656 119.654 225.445 119.547C225.235 119.44 225.002 119.384 224.766 119.384C224.53 119.384 224.297 119.44 224.087 119.547C223.876 119.654 223.694 119.809 223.555 120H223.552Z" fill="#F29254"/>
</g>
<defs>
<filter id="filter0_d_607_15294" x="-4" y="0" width="250" height="250" filterUnits="userSpaceOnUse" color-interpolation-filters="sRGB">
<feFlood flood-opacity="0" result="BackgroundImageFix"/>
<feColorMatrix in="SourceAlpha" type="matrix" values="0 0 0 0 0 0 0 0 0 0 0 0 0 0 0 0 0 0 127 0" result="hardAlpha"/>
<feOffset dy="4"/>
<feGaussianBlur stdDeviation="2"/>
<feComposite in2="hardAlpha" operator="out"/>
<feColorMatrix type="matrix" values="0 0 0 0 0 0 0 0 0 0 0 0 0 0 0 0 0 0 0.25 0"/>
<feBlend mode="normal" in2="BackgroundImageFix" result="effect1_dropShadow_607_15294"/>
<feBlend mode="normal" in="SourceGraphic" in2="effect1_dropShadow_607_15294" result="shape"/>
</filter>
</defs>
</svg>
