<svg width="16" height="16" viewBox="0 0 16 16" fill="none" xmlns="http://www.w3.org/2000/svg">
<path d="M2.66602 2V14M13.3327 2V14" stroke="#F29254" stroke-linecap="round" stroke-linejoin="round"/>
<path d="M6.44133 11.2431C7.11459 9.96974 7.45125 9.33301 8.00065 9.33301C8.55005 9.33301 8.88672 9.96974 9.55999 11.2431L10.0185 12.1103C10.5355 13.0883 10.7941 13.5773 10.6061 13.8124C10.5556 13.8756 10.489 13.9277 10.4115 13.9647C10.1234 14.1024 9.59452 13.8251 8.53685 13.2705C8.30225 13.1474 8.18492 13.0859 8.05665 13.0749C8.01939 13.0717 7.98192 13.0717 7.94465 13.0749C7.81639 13.0859 7.69905 13.1474 7.46445 13.2705C6.40675 13.8251 5.8779 14.1024 5.5898 13.9647C5.51235 13.9277 5.44575 13.8756 5.39521 13.8124C5.20725 13.5773 5.46578 13.0883 5.98285 12.1103L6.44133 11.2431Z" stroke="#F29254"/>
<path d="M8 2V3.33333" stroke="#F29254" stroke-linecap="round" stroke-linejoin="round"/>
<path d="M8 6V7.33333" stroke="#F29254" stroke-linecap="round" stroke-linejoin="round"/>
</svg>
