<svg width="16" height="16" viewBox="0 0 16 16" fill="none" xmlns="http://www.w3.org/2000/svg">
<path d="M8.66475 4.33301H7.33395C5.42066 4.33301 4.13069 6.37907 4.88437 8.21834C4.98936 8.47461 5.23024 8.64067 5.49676 8.64067H5.96542C6.12338 8.64067 6.26108 8.75314 6.29939 8.91341L6.90275 11.4375C7.02855 11.9638 7.48068 12.333 7.99935 12.333C8.51802 12.333 8.97015 11.9638 9.09595 11.4375L9.69928 8.91341C9.73762 8.75314 9.87535 8.64067 10.0333 8.64067H10.5019C10.7685 8.64067 11.0093 8.47461 11.1143 8.21834C11.868 6.37907 10.578 4.33301 8.66475 4.33301Z" stroke="#F29254"/>
<path d="M9.66732 2.66667C9.66732 3.58714 8.92112 4.33333 8.00065 4.33333C7.08018 4.33333 6.33398 3.58714 6.33398 2.66667C6.33398 1.74619 7.08018 1 8.00065 1C8.92112 1 9.66732 1.74619 9.66732 2.66667Z" stroke="#F29254"/>
<path d="M4.66667 11H4" stroke="#F29254" stroke-linecap="round" stroke-linejoin="round"/>
<path d="M8 14.333V14.9997" stroke="#F29254" stroke-linecap="round" stroke-linejoin="round"/>
<path d="M12.0007 11H11.334" stroke="#F29254" stroke-linecap="round" stroke-linejoin="round"/>
</svg>
